<svg xmlns="http://www.w3.org/2000/svg" width="113.415" height="68.366" viewBox="0 0 113.415 68.366"><defs><style>.a{fill:#357ce1;}.a,.y{fill-rule:evenodd;}.b,.c{fill:#0950b5;}.c{opacity:0.5;}.d{opacity:0.25;}.e{fill:#004497;}.f{fill:#090a09;}.g{fill:#dacfb1;}.h{fill:#c4bb9c;}.i{fill:#e2e0c7;}.j{fill:#f0f9f9;}.k{fill:#1b2614;}.l{fill:#391012;}.m{fill:#f26211;}.n{fill:#c6431a;}.o{fill:#c8d26c;}.p{fill:#97b163;}.q{fill:#eee37f;}.r{fill:#922429;}.s{fill:#781222;}.t{fill:#f88421;}.u{fill:#fd9e41;}.v{fill:#2b5126;}.w{fill:#bf383a;}.x{fill:#e6dab9;}.y{fill:#e02a41;}.z{fill:#e85c17;}.aa{fill:#030504;}.ab{fill:#0e2374;}.ac{fill:#d5a214;}</style></defs><g transform="translate(0 0)"><path class="a" d="M6.934,5.254,6.2,5.411a1.077,1.077,0,0,0-.574.52L5.248,7.009a1.027,1.027,0,0,1-.3.363,1.822,1.822,0,0,1-2.165.005A1.014,1.014,0,0,1,2.481,7L2.146,5.981a1.076,1.076,0,0,0-.557-.526l-.81-.2a1.065,1.065,0,0,1-.488-.4A1.824,1.824,0,0,1,.353,2.787a1.016,1.016,0,0,1,.382-.306l1.008-.328A1.075,1.075,0,0,0,2.27,1.6L2.477.777a1.067,1.067,0,0,1,.4-.485A1.823,1.823,0,0,1,4.936.348a.994.994,0,0,1,.314.4l.284.943a1.076,1.076,0,0,0,.542.535l.9.254a1.007,1.007,0,0,1,.411.321,1.822,1.822,0,0,1,.059,2.043A1.053,1.053,0,0,1,6.934,5.254Z" transform="translate(60.222 12.48) rotate(-20)"/><ellipse class="b" cx="2.172" cy="2.172" rx="2.172" ry="2.172" transform="translate(42.978 1.491)"/><ellipse class="b" cx="2.172" cy="2.172" rx="2.172" ry="2.172" transform="translate(109.071 49.584)"/><ellipse class="c" cx="0.724" cy="0.724" rx="0.724" ry="0.724" transform="translate(109.795 43.504)"/><ellipse class="c" cx="0.724" cy="0.724" rx="0.724" ry="0.724" transform="translate(0 46.577)"/><g transform="translate(435.528 1197.466)"><g transform="translate(-431.842 -1187.691)"><g class="d" transform="translate(0.728 32.134)"><ellipse class="e" cx="52.163" cy="13.228" rx="52.163" ry="13.228"/></g><g transform="translate(0 5.311)"><g transform="translate(35.612 22.749)"><g transform="translate(0)"><path class="f" d="M37.521-732.041a.95.95,0,0,1-.22-.025L25.1-734.88a.976.976,0,0,1-.733-1.17h0a.976.976,0,0,1,1.17-.732h0l12.2,2.813a.978.978,0,0,1,.733,1.172A.977.977,0,0,1,37.521-732.041Z" transform="translate(-24.342 736.808)"/></g></g><g transform="translate(45.782 23.529)"><g transform="translate(0)"><path class="f" d="M156.989-721.228a.975.975,0,0,1-.756-.358l-1.4-1.709a.976.976,0,0,1-.023-1.209l1.46-1.927a.977.977,0,0,1,1.368-.189.975.975,0,0,1,.19,1.366l0,0-1,1.314.913,1.114a.976.976,0,0,1-.136,1.374h0A.973.973,0,0,1,156.989-721.228Z" transform="translate(-154.615 726.818)"/></g></g><g transform="translate(27.304 26.029)"><g transform="translate(0)"><path class="f" d="M-77.491-674.84h-.089l-2.636-.238A.976.976,0,0,1-81.1-676l-.979-17.759a.977.977,0,0,1,.921-1.029.968.968,0,0,1,1.028.9c0,.006,0,.011,0,.017l.932,16.916,1.8.163a.977.977,0,0,1,.885,1.061A.977.977,0,0,1-77.491-674.84Z" transform="translate(82.084 694.788)"/></g></g><g transform="translate(13.768 28.19)"><path class="f" d="M-252-646.818a.973.973,0,0,1-.316-.053l-2.5-.856a.976.976,0,0,1-.644-1.1l3.25-17.487a.976.976,0,0,1,1.138-.782h0a.976.976,0,0,1,.782,1.138h0l-3.091,16.653,1.7.582a.977.977,0,0,1,.608,1.241A.977.977,0,0,1-252-646.818Z" transform="translate(255.48 667.115)"/></g><g transform="translate(0.727 0.715)"><g transform="translate(0.011 0.001)"><path class="g" d="M-401.039-1017.567s-2.332-2.449-3.849-1.049-1.516,1.982-1.516,1.982-1.982-2.215-3.382-.7a3.989,3.989,0,0,0-1.283,2.8s-2.449-1.283-3.383-.466a6.147,6.147,0,0,0-1.4,2.566,2.145,2.145,0,0,0-1.867.582,8.86,8.86,0,0,0-1.4,3.033s-1.048-.7-1.865.817.932,2.449.932,2.449-1.866,1.05-1.517,2.566a5.675,5.675,0,0,0,.933,2.216s-1.632.7-1.166,2.217a8.073,8.073,0,0,0,1.516,2.682s-2.332.7-2.094,2.217.816,1.632.816,1.632-.233.233,0,1.4a2.864,2.864,0,0,0,1.167,1.749s-2.1,1.632.233,2.332a8.078,8.078,0,0,0,3.5.467s-1.866,1.4.233,1.632a21.6,21.6,0,0,0,4.2,0s-.817,3.732.932,2.566,2.333-.932,2.333-.932.583,2.449,1.167,1.4,1.631.232,1.631.232,1.517,2.217,2.1,1.283,1.749,1.049,2.216-.118l.932-.583s3.383,1.865,3.733.466l.351-1.4s2.332,1.749,3.032.583A2.516,2.516,0,0,1-391.581-982s3.383,1.4,4.083-.7,2.216-1.166,2.216-1.166,3.5.349,2.566-.933-.233-.467-.233-.467l-.35-1.283s2.8-.349,1.983-2.094-1.05-2.334-1.05-2.334,1.283-.931.7-1.516a6.863,6.863,0,0,1-1.05-2.216s1.632-1.518.816-2.217a2.707,2.707,0,0,1-.932-1.517s1.982-1.283,1.049-2.094a3.334,3.334,0,0,1-1.049-1.984s1.749-1.05,1.049-1.866a4.791,4.791,0,0,1-.932-1.749s1.982-1.75.35-2.449a7.1,7.1,0,0,1-2.682-2.215s-.466-2.1-1.167-1.984a13.359,13.359,0,0,1-1.749.117s-.233-2.216-1.167-1.866a5.989,5.989,0,0,1-1.866.35s.467-2.566-1.167-2.332a7.046,7.046,0,0,0-2.682.934s1.281-1.283-.35-1.516a2.088,2.088,0,0,0-2.216.816s.233-.816-.232-1.166a1.985,1.985,0,0,0-1.984.35C-399.872-1016.749-400.339-1019.082-401.039-1017.567Z" transform="translate(422.388 1019.048)"/></g><g transform="translate(17.003 16.381)"><path class="h" d="M-201.265-786.386a.6.6,0,0,1-.084.1l-.017.014a.34.34,0,0,1-.091.06l-.016.007a.383.383,0,0,1-.1.026h-.008a.54.54,0,0,1-.111,0h-.008a.745.745,0,0,1-.117-.029h-.017a1.218,1.218,0,0,1-.119-.046l-.02-.008-.12-.059h-.005c-.188-.653-.8-1.895-1.02-2.609a1.6,1.6,0,0,1,.328-1.456s.9-.826.432-1.062-1.141-1.534-1.141-1.534.55.354.709.472.707.865.746.2a4.353,4.353,0,0,1,.236-1.18,15.958,15.958,0,0,0-1.141-1.258,4.336,4.336,0,0,1-.786-1.338s1.14,1.181,1.376.354a2.841,2.841,0,0,1,1.1-1.377,3.232,3.232,0,0,0-1.061-1.415,1.269,1.269,0,0,1-.629-1.1,8.116,8.116,0,0,0,.943.63c.551.314.63-.433.668-.983s.2-1.376.2-1.376a10.857,10.857,0,0,1-1.967-.669c-.787-.393.079-1.454.079-1.454a5.506,5.506,0,0,0,.551.9c.2.2.747-.04.747-.512s.825-1.3.825-1.3l-.746-1.377s-.708.2-1.849.4a.979.979,0,0,1-1.19-.709.986.986,0,0,1-.029-.2,17.4,17.4,0,0,1,1.809-2.753,8.116,8.116,0,0,1,1.612-.2c.511.039,3.7.9,4.561,1.062s4.089,4.914,3.933,6.174a132.108,132.108,0,0,1-2.728,14.337c-.321-.187-.557-.356-.616-.4h-.005l-.009-.007-.351,1.4c-.35,1.4-3.733-.466-3.733-.466l-.932.583a.948.948,0,0,1-.078.154Z" transform="translate(204.717 809.218)"/></g><g transform="translate(0 6.322)"><path class="h" d="M-407.927-906.753c-.583,1.05-1.167-1.4-1.167-1.4s-.583-.233-2.333.932-.932-2.566-.932-2.566a21.6,21.6,0,0,1-4.2,0c-2.1-.233-.233-1.633-.233-1.633a8.077,8.077,0,0,1-3.5-.467c-2.333-.7-.233-2.333-.233-2.333a2.865,2.865,0,0,1-1.167-1.749c-.233-1.166,0-1.4,0-1.4s-.583-.117-.816-1.633,2.094-2.216,2.094-2.216a8.075,8.075,0,0,1-1.516-2.683c-.467-1.518,1.166-2.217,1.166-2.217a5.671,5.671,0,0,1-.933-2.216c-.35-1.516,1.517-2.566,1.517-2.566s-1.749-.932-.932-2.449,1.865-.817,1.865-.817a8.86,8.86,0,0,1,1.4-3.033,2.145,2.145,0,0,1,1.867-.582s.03-.114.09-.3c1.154.226,1.988.4,1.988.4l-4.771,3.47s-1.994.259-1.994,1.04,1.215,1.647,1.475,1.734a2.3,2.3,0,0,0,.607.087,1.763,1.763,0,0,0-1.3,2.082,3.932,3.932,0,0,0,1.127,2.256l1.215.087-2.342.7s-1.475,1.822-.868,2.6,1.822,2.08,2.169,1.821a3.953,3.953,0,0,1,.78-.433s-.868,1.562-1.387,1.3a2.155,2.155,0,0,0-.868-.26s-1.387.953-1.127,1.82,1.735,1.129,1.735,1.129.607.781-.087.868-1.475.174-1.475.174,0,1.473,1.041,1.473h1.475s-2.081,2.081-1.3,2.6a4.787,4.787,0,0,0,2.776.608,14.237,14.237,0,0,0,2.775-1.3s-2.341,2.774-.52,3.034a14.054,14.054,0,0,0,2.862.173l.781-1.647s-.954,3.643-.087,3.9,1.821-.607,1.821-.607l.942-1.882c-.1.193-.691,1.5.272,2.055a1.484,1.484,0,0,0,1.735,0s-.867,1.041.521,1.475,1.907,0,1.994-.434,2.08-2.342,2.949-2.081c.684.205,1.895,2.084,1.452,4.569a12.258,12.258,0,0,1-1.526-.684l-.932.583c-.467,1.167-1.632-.817-2.216.118s-2.1-1.283-2.1-1.283S-407.346-907.8-407.927-906.753Z" transform="translate(422.523 938.069)"/><g transform="translate(14.074 27.205)"><path class="h" d="M-242.237-589.553l.012-.027Z" transform="translate(242.237 589.58)"/></g></g><g transform="translate(18.145 6.67)"><g transform="translate(0)"><path class="i" d="M-183.03-901.361l.351-1.4s2.331,1.749,3.032.582a2.516,2.516,0,0,1,2.216-1.049s3.383,1.4,4.083-.7,2.216-1.166,2.216-1.166,3.426.533,2.707-.881a4.44,4.44,0,0,0-.321-.534l-.4-1.268s2.8-.349,1.983-2.1-1.049-2.332-1.049-2.332,1.283-.932.7-1.516a6.86,6.86,0,0,1-1.05-2.216s1.632-1.518.816-2.217a2.708,2.708,0,0,1-.933-1.516s1.982-1.283,1.049-2.094a3.335,3.335,0,0,1-1.049-1.983s1.749-1.05,1.049-1.866a4.793,4.793,0,0,1-.932-1.749s1.982-1.75.35-2.449a7.1,7.1,0,0,1-2.682-2.215,6.162,6.162,0,0,0-.593-1.587c-4.4,3.417-8.453,7.051-8.453,7.051s-6.687,3.14-7.6,4.5.955,3.091.955,3.091a3.068,3.068,0,0,0-.911.547c-.227.272-.546,1.5.545,1.775s.41,1.455.41,1.455l-.774.774c-.318.319-.226,1.092-.045,1.774a11.671,11.671,0,0,0,.368,1.157,4.019,4.019,0,0,0-1.4,1.225c-.7.919.832,2.143.832,2.143a2.531,2.531,0,0,0-.569,1.005c-.176.613.525,1.225.525,1.225a6.234,6.234,0,0,1-1.049.744c-.787.481-.072,2.146-.072,2.146s-2.427-.031-.816,1.62c.615-.063,1.468,1.1,1.849.138l.932-.582S-183.38-899.961-183.03-901.361Z" transform="translate(190.094 933.61)"/></g></g><g transform="translate(36.434 9.844)"><g transform="translate(0)"><path class="j" d="M44.182-867.822a1.3,1.3,0,0,1,.939-.006c.877.26,1.753-.555,1.507-.985a29.121,29.121,0,0,1-.866-3.217l.926,1.218s1.4-.755,1.333-1.739a10.319,10.319,0,0,0-1.565-3.131l.928.464a1.487,1.487,0,0,0,.173-1.4,21.734,21.734,0,0,1-.928-2.493h.349c.347,0,.7-.754.29-1.4a7.662,7.662,0,0,1-.7-1.795l-.7-.7a5.825,5.825,0,0,0,1.333-.058c.523-.116.637-.7.29-1.334a9.739,9.739,0,0,1-.638-1.854l-.927-.579a5.11,5.11,0,0,0,1.508-.986c.637-.637-1.972-2.551-1.972-2.551l.007-2s.566-.277,1.237-.6a5.573,5.573,0,0,0,1.054.6c1.632.7-.35,2.449-.35,2.449a4.8,4.8,0,0,0,.932,1.749c.7.816-1.049,1.866-1.049,1.866a3.334,3.334,0,0,0,1.049,1.984c.932.816-1.049,2.094-1.049,2.094a2.707,2.707,0,0,0,.932,1.516c.817.7-.816,2.217-.816,2.217a6.865,6.865,0,0,0,1.05,2.216c.583.583-.7,1.516-.7,1.516s.233.583,1.05,2.333-1.983,2.094-1.983,2.094l.4,1.268a4.424,4.424,0,0,1,.32.534c.718,1.413-2.707.881-2.707.881A1.616,1.616,0,0,0,44.182-867.822Z" transform="translate(-44.182 892.962)"/></g></g><g transform="translate(3.374)"><path class="j" d="M-377.994-1011.859a2.145,2.145,0,0,1,1.867-.582,6.147,6.147,0,0,1,1.4-2.566c.932-.818,3.382.466,3.382.466a3.989,3.989,0,0,1,1.283-2.8c1.4-1.516,3.382.7,3.382.7s0-.583,1.517-1.982,3.849,1.049,3.849,1.049c.7-1.515,1.167.818,1.4.468a1.984,1.984,0,0,1,1.984-.35c.466.35.232,1.166.232,1.166a2.088,2.088,0,0,1,2.216-.816c1.632.231.35,1.516.35,1.516a7.05,7.05,0,0,1,2.682-.934c1.605-.228,1.183,2.239,1.168,2.326a1.969,1.969,0,0,1,2.353-.447,1.229,1.229,0,0,1,.8,1.541,1.226,1.226,0,0,1-.142.3.467.467,0,0,0,.008.065,1.823,1.823,0,0,1,1.7-.384c1.46.28,1.231,2.315,1.231,2.315a7.1,7.1,0,0,0,2.682,2.215c1.632.7-.35,2.449-.35,2.449a4.713,4.713,0,0,0,.5,1.14,3.4,3.4,0,0,1-2.194-1.141,1.122,1.122,0,0,0-1.255.97,1.115,1.115,0,0,0-.007.205c0,1.3-2.273,0-2.273,0s-2.018-.235-1.009,1.528-3.534.705-3.534.705-2.019-.118-1.641,1.411-3.029.471-3.029.471-1.137-.353-1.767,1.411-2.9-.823-2.9-.823a9.107,9.107,0,0,0-2.524.94c-1.64.823-1.515-2.116-1.515-2.116s-1.388-.118-2.9-.118-.63-1.058-.63-1.058-1.389-.118-2.778-.353.506-2.115.506-2.115-.178-.021-.487-.048a27.566,27.566,0,0,0-3.68-.069c-2.147.118-1.389-2.7-1.389-2.7s-1.641,0-1.766-1.058c-.008-.063-.008-.13-.012-.193A7.656,7.656,0,0,1-377.994-1011.859Z" transform="translate(379.301 1019.056)"/></g><g transform="translate(8.029 3.761)"><path class="k" d="M-306.222-970.826s8.964,3.647,10.9,5.014l1.824.912s1.139.911.114,1.6-9.972,4.535-12.593,4.986c0,0-1.2.6-3.934-.66s-9.348-5.129-9.348-5.129-1.253-.912.569-2.052,9.16-4.215,9.16-4.215A6.567,6.567,0,0,1-306.222-970.826Z" transform="translate(319.677 970.875)"/></g><g transform="translate(9.603 4.536)"><path class="l" d="M-287.513-960.906s7.988,3.1,9.715,4.267l1.625.777s1.015.775.1,1.356-8.885,3.861-11.222,4.248c0,0-1.069.506-3.507-.561s-8.331-4.365-8.331-4.365-1.117-.777.509-1.747,8.163-3.59,8.163-3.59A6.113,6.113,0,0,1-287.513-960.906Z" transform="translate(299.507 960.947)"/></g><g transform="translate(16.36 4.537)"><path class="m" d="M-212.953-959.581c1.3-.538,2.283-.932,2.283-.932a6.115,6.115,0,0,1,2.947-.39s7.988,3.1,9.715,4.267l1.625.777s1.015.775.1,1.356a56.512,56.512,0,0,1-5.385,2.315,16.878,16.878,0,0,1-8.833-2.383A5.771,5.771,0,0,1-212.953-959.581Z" transform="translate(212.96 960.943)"/></g><g transform="translate(16.36 5.79)"><path class="n" d="M-212.951-944.782l.26-.108a11.626,11.626,0,0,0,.63,3c.4.937,5.146,3.524,6.693,3.854a28.2,28.2,0,0,0,4.8.214c-.358.143-.722.287-1.09.43a16.876,16.876,0,0,1-8.833-2.383A5.771,5.771,0,0,1-212.951-944.782Z" transform="translate(212.958 944.89)"/></g><g transform="translate(9.604 6.287)"><path class="o" d="M-298.615-936.25c.852-.508,3.05-1.467,4.952-2.265a12.858,12.858,0,0,1,1.751,4.159c.119,1.347-.9,2.156-2.741,2.285-2.268-1.2-4.469-2.432-4.469-2.432S-300.239-935.281-298.615-936.25Z" transform="translate(299.497 938.515)"/></g><g transform="translate(9.608 8.855)"><path class="p" d="M-292.174-902.793a3.1,3.1,0,0,1-2.438,1.049c-2.268-1.2-4.47-2.432-4.47-2.432s-.888-.622.087-1.447a2.1,2.1,0,0,0,.2,1.2,26.49,26.49,0,0,0,3.481,1.911c.7.339,2.66-.387,2.66-.387Z" transform="translate(299.452 905.623)"/></g><g transform="translate(9.603 6.287)"><path class="q" d="M-298.624-936.25c.852-.508,3.049-1.467,4.952-2.265a18.948,18.948,0,0,1,1.365,2.723c.032.413.053.7.053.7s-1.672-2.45-1.772-2.534a1.927,1.927,0,0,0-1.259.25,20.766,20.766,0,0,0-3.561,1.721,1.374,1.374,0,0,0-.523.9C-299.575-935.061-299.693-935.612-298.624-936.25Z" transform="translate(299.506 938.515)"/></g><g transform="translate(15.025 11.874)"><path class="r" d="M-230.063-865.79a5.217,5.217,0,0,0,.861-.32,5.878,5.878,0,0,1,3.261-.836,20.605,20.605,0,0,1,4.933,1.629,1.386,1.386,0,0,1,.605.882,20.954,20.954,0,0,1-2.868.835s-1.069.506-3.507-.561C-227.6-864.521-228.816-865.134-230.063-865.79Z" transform="translate(230.063 866.95)"/></g><g transform="translate(15.025 12.902)"><path class="s" d="M-230.063-853.652c.126-.035.264-.078.412-.133.572.24,1.3.616,1.843.917a10.109,10.109,0,0,0,3.578,1.209,14.834,14.834,0,0,0,2.331-.152,12.136,12.136,0,0,1-1.372.348s-1.069.506-3.507-.561C-227.6-852.385-228.816-853-230.063-853.652Z" transform="translate(230.063 853.785)"/></g><g transform="translate(16.367 4.537)"><path class="t" d="M-197.176-955.509c-.769-.384-10.755-5.1-11.413-5.1a29.209,29.209,0,0,0-4.265,1.514c-.01-.169-.016-.333-.015-.482,1.3-.537,2.283-.932,2.283-.932a6.115,6.115,0,0,1,2.947-.39s7.988,3.1,9.715,4.267l1.625.777s1.015.775.1,1.356a56.522,56.522,0,0,1-5.385,2.315c-.114,0-.226-.01-.341-.013,1.4-.748,3.4-1.823,3.92-2.1C-197.176-954.741-196.407-955.124-197.176-955.509Z" transform="translate(212.869 960.942)"/></g><g transform="translate(25.873 7.28)"><g transform="translate(0)"><path class="u" d="M-90.4-925.349a11.742,11.742,0,0,0-.644,2.331,10.771,10.771,0,0,0,.05,2.479s.4-2.728.645-3.472.545-1.885.4-1.787A3.649,3.649,0,0,0-90.4-925.349Z" transform="translate(91.094 925.803)"/></g></g><g transform="translate(22.92 6.082)"><g transform="translate(0)"><path class="u" d="M-128.227-940.693a11.723,11.723,0,0,0-.645,2.33,10.728,10.728,0,0,0,.05,2.479s.4-2.727.644-3.472.546-1.884.4-1.785A3.536,3.536,0,0,0-128.227-940.693Z" transform="translate(128.922 941.147)"/></g></g><g transform="translate(19.557 4.87)"><path class="u" d="M-171.314-956.217a11.733,11.733,0,0,0-.645,2.331,10.741,10.741,0,0,0,.05,2.481s.4-2.729.645-3.472.545-1.886.4-1.786A3.6,3.6,0,0,0-171.314-956.217Z" transform="translate(172.008 956.669)"/></g><g transform="translate(30.289 9.625)"><g transform="translate(0)"><path class="t" d="M-34.328-895.764s1.017.338.984.688-.7.547-.744.449.285-.328,0-.557S-34.787-895.776-34.328-895.764Z" transform="translate(34.533 895.765)"/></g></g><g transform="translate(27.392 8.18)"><g transform="translate(0)"><path class="t" d="M-71.45-914.27s.721.185.689.4-.493.185-.667.055S-71.8-914.172-71.45-914.27Z" transform="translate(71.644 914.27)"/></g></g><g transform="translate(24.981 7.055)"><g transform="translate(0)"><path class="t" d="M-102.189-928.679s.961.492.928.634.165.426-.207.24-.765-.426-.95-.514S-102.538-928.658-102.189-928.679Z" transform="translate(102.52 928.679)"/></g></g><g transform="translate(21.993 5.876)"><g transform="translate(0)"><path class="t" d="M-140.219-943.78s.983.228.884.438.011.338-.416.207-1.1-.46-1.038-.579S-140.219-943.78-140.219-943.78Z" transform="translate(140.793 943.792)"/></g></g><g transform="translate(18.724 5.326)"><g transform="translate(0)"><path class="t" d="M-181.459-950.829s-.022.339-.23.416-1.159.207-.962.066A2.524,2.524,0,0,1-181.459-950.829Z" transform="translate(182.678 950.829)"/></g></g><g transform="translate(13.981 6.287)"><path class="v" d="M-240.623-934.275a19.247,19.247,0,0,0-1.779-4.071l.434-.181a12.864,12.864,0,0,1,1.75,4.159c.119,1.347-.9,2.156-2.741,2.285l-.466-.247C-241.693-932.609-240.559-933.454-240.623-934.275Z" transform="translate(243.425 938.527)"/></g><g transform="translate(15.904 11.875)"><path class="w" d="M-216.7-866.58a17.049,17.049,0,0,0-2.094.468,5.832,5.832,0,0,1,3.24-.825,20.6,20.6,0,0,1,4.933,1.629,1.387,1.387,0,0,1,.606.881c-.214.074-.417.142-.621.208l-.125-.2c-.352-.553-.8-.8-1.913-1.259A9.672,9.672,0,0,0-216.7-866.58Z" transform="translate(218.798 866.942)"/></g><g transform="translate(21.469 13.497)"><path class="w" d="M-147.378-846.159a9.192,9.192,0,0,1,1.756.743c.044.165.044.3-.491.387s-.863.015-.684-.148.418-.3.312-.417S-147.927-845.966-147.378-846.159Z" transform="translate(147.51 846.159)"/></g><g transform="translate(18.029 12.485)"><g transform="translate(0)"><path class="w" d="M-191.342-859.125a16.126,16.126,0,0,1,2.513.685c.18.192-.714-.12-1.1-.179s-.982-.313-1.25-.313S-191.823-859.125-191.342-859.125Z" transform="translate(191.573 859.125)"/></g></g><g transform="translate(15.722 9.212)"><path class="q" d="M-221-901.035s.744,1.338.536,1.651-.358.357-.358.165.193-.18.075-.671S-221.343-901.168-221-901.035Z" transform="translate(221.122 901.05)"/></g><g transform="translate(17.234 20.694)"><path class="x" d="M-201.236-753.964a2.417,2.417,0,0,0,.173,1.033c.228.688-.632-.058-.689-.574S-201.236-753.964-201.236-753.964Z" transform="translate(201.757 753.966)"/></g><g transform="translate(3.138 13.945)"><path class="x" d="M-381.552-840.424s-1.435.688-.4,1.319,1.148.116,1.148-.057S-381.726-839.905-381.552-840.424Z" transform="translate(382.327 840.424)"/></g><g transform="translate(2.679 10.964)"><path class="x" d="M-387.889-878.6s-.746.689.058.918.8-.115.8-.115Z" transform="translate(388.204 878.605)"/></g><g transform="translate(2.261 18.881)"><path class="x" d="M-392.774-777.2c-.167-.042-1.092.459-.69,1.148s.69.518.862-.172S-392.545-777.138-392.774-777.2Z" transform="translate(393.564 777.198)"/></g><g transform="translate(2.114 24.224)"><path class="x" d="M-395.073-708.7s-.632.631-.23.919.862.058.862-.115S-394.674-708.986-395.073-708.7Z" transform="translate(395.437 708.754)"/></g><g transform="translate(3.326 29.77)"><path class="x" d="M-378.817-637.63c-.574.286-1.609.8-.8.747a2.991,2.991,0,0,0,1.609-.747C-377.78-637.8-378.817-637.63-378.817-637.63Z" transform="translate(379.916 637.706)"/></g><g transform="translate(16.825 35.566)"><path class="x" d="M-205.965-563.041c-.236.275-.4.975-.747.517s-.4-.688-.057-.861S-205.625-563.44-205.965-563.041Z" transform="translate(207.001 563.462)"/></g><g transform="translate(18.207 23.85)"><path class="x" d="M-188.211-712.844c-.173.689.057,1.551-.518.919s-.573-.46-.573-1.321S-188.211-712.844-188.211-712.844Z" transform="translate(189.302 713.547)"/></g><g transform="translate(7.34 28.372)"><path class="h" d="M-328.5-655.622s-.053,2.063,1.111,2.593a4.493,4.493,0,0,0,1.957.476s-1.8-.74-2.063-1.533A4.716,4.716,0,0,0-328.5-655.622Z" transform="translate(328.505 655.622)"/></g><g transform="translate(4.158 24.564)"><path class="h" d="M-369.036-704.393a1.381,1.381,0,0,0,.106,1.638c.688.742,1.9.212,1.9.212s-1.268-.159-1.533-.8S-369.036-704.393-369.036-704.393Z" transform="translate(369.256 704.393)"/></g><g transform="translate(13.579 32.389)"><path class="h" d="M-245.675-604.156a1.132,1.132,0,0,1-1.138,1.126,1.143,1.143,0,0,1-.185-.016c-1.269-.159-1.586-.8-1.586-.8s1.427.531,1.957.211S-245.675-604.156-245.675-604.156Z" transform="translate(248.584 604.156)"/></g><g transform="translate(11.498 28.744)"><path class="h" d="M-275.066-650.857a2.423,2.423,0,0,0,.635,1.64,2.365,2.365,0,0,0,1.586.422s-1.163,1.058-1.956-.053A1.888,1.888,0,0,1-275.066-650.857Z" transform="translate(275.242 650.857)"/></g><g transform="translate(25.069 28.674)"><g transform="translate(0)"><path class="y" d="M-100.466-650.765c-.468.074-.884-.082-.926-.348s.305-.542.773-.617.884.081.926.346S-100-650.845-100.466-650.765Z" transform="translate(101.396 651.749)"/></g></g><g transform="translate(35.215 26.379)"><g transform="translate(0)"><path class="y" d="M29.518-680.156c-.465.1-.889-.033-.945-.3s.274-.559.738-.659.888.033.943.3S29.979-680.256,29.518-680.156Z" transform="translate(-28.567 681.148)"/></g></g><g transform="translate(36.884 8)"><g transform="translate(0)"><path class="j" d="M49.956-916.374s.56-.529,1.895.125.4,2.144.4,2.144L50.3-915Z" transform="translate(-49.956 916.576)"/></g></g></g><path class="f" d="M-412.506-1027.5a4.849,4.849,0,0,1,2.751,1.482c.176-.379.335-.517.482-.517.4,0,.684,1.02.866,1.02a.065.065,0,0,0,.053-.036,2.081,2.081,0,0,1,1.409-.5.969.969,0,0,1,.574.146c.466.35.232,1.166.232,1.166a1.974,1.974,0,0,1,1.756-.85,3.255,3.255,0,0,1,.46.034c1.632.231.351,1.516.351,1.516a7.046,7.046,0,0,1,2.683-.934,1.555,1.555,0,0,1,.2-.014h.08a.442.442,0,0,1,.062.011.944.944,0,0,1,.175.033c.019.006.035.018.053.025a.788.788,0,0,1,.141.069.468.468,0,0,1,.041.034.953.953,0,0,1,.118.1c.01.011.018.026.027.037a1.083,1.083,0,0,1,.1.134l.018.037a1.5,1.5,0,0,1,.076.161.116.116,0,0,0,.011.035,1.721,1.721,0,0,1,.056.182.058.058,0,0,0,.006.031,2.011,2.011,0,0,1,.037.2v.025c.009.069.016.138.021.2v.022c0,.069.007.138.007.2v.231c0,.061-.007.121-.011.175v.013c0,.054-.01.1-.014.148v.013a.651.651,0,0,1-.014.112v.012c0,.032-.008.055-.01.07v.024a2.051,2.051,0,0,1,1.45-.659,2.154,2.154,0,0,1,.9.212,1.229,1.229,0,0,1,.8,1.54,1.229,1.229,0,0,1-.142.3.469.469,0,0,0,.008.065,1.656,1.656,0,0,1,1.184-.435,2.731,2.731,0,0,1,.509.051c1.159.222,1.253,1.546,1.242,2.084a1.543,1.543,0,0,1,.229-.016,2.755,2.755,0,0,1,1.2.326,1.288,1.288,0,0,1,.612,1.716c-.012.024-.024.048-.037.072l.1.064c.035.021.073.039.108.059.054.029.107.06.163.089.095.048.19.094.29.136,1.632.7-.35,2.449-.35,2.449v.027c.008.031.025.087.051.164a.026.026,0,0,0,.006.016c.028.081.065.181.113.3l.006.014c.05.12.112.251.186.4v.008c.038.072.08.146.125.22h0a4.441,4.441,0,0,0,.437.609c.7.816-1.049,1.865-1.049,1.865a3.335,3.335,0,0,0,1.049,1.984c.932.816-1.049,2.094-1.049,2.094a2.707,2.707,0,0,0,.932,1.516c.817.7-.816,2.217-.816,2.217a6.862,6.862,0,0,0,1.05,2.216c.583.583-.7,1.516-.7,1.516s.233.583,1.05,2.333-1.983,2.1-1.983,2.1l.4,1.268a4.454,4.454,0,0,1,.32.534c.41.807-.529.979-1.411.979a9.611,9.611,0,0,1-1.3-.1h-.014l-.032-.017h-.008l-.055-.026h-.006a1.829,1.829,0,0,0-.171-.067h-.008c-.033-.011-.069-.021-.106-.031h-.013c-.038-.01-.077-.018-.118-.025h-.008c-.044-.007-.089-.012-.135-.016h-.094c-.482,0-1.081.262-1.451,1.373a1.8,1.8,0,0,1-1.9,1.158,6.607,6.607,0,0,1-2.182-.458h-.115a2.444,2.444,0,0,0-2.1,1.052.831.831,0,0,1-.769.4,4.935,4.935,0,0,1-2.246-.972h0l-.009-.007-.351,1.4c-.095.382-.416.521-.833.521a8.238,8.238,0,0,1-2.9-.986l-.933.582a1.058,1.058,0,0,1-.069.14l-.016.023v.006a.627.627,0,0,1-.072.09l-.014.014-.009.007a.435.435,0,0,1-.071.052l-.01.006-.024.01h-.009a.275.275,0,0,1-.057.018l-.023.005h-.15l-.048-.01-.026-.007a.906.906,0,0,1-.094-.029l-.046-.018-.06-.026c-.036-.017-.072-.034-.108-.053h0a2.358,2.358,0,0,0-.9-.371h-.05a.484.484,0,0,0-.365.256.43.43,0,0,1-.376.228c-.688,0-1.724-1.513-1.724-1.513s-.528-.646-1.043-.646a.67.67,0,0,0-.589.414c-.1.185-.206.262-.305.262-.466,0-.861-1.661-.861-1.661a.479.479,0,0,0-.157-.019,4.388,4.388,0,0,0-2.176.951,1.09,1.09,0,0,1-.576.224c-.967,0-.356-2.792-.356-2.792a21.769,21.769,0,0,1-2.177.1,18.6,18.6,0,0,1-2.021-.1c-2.1-.233-.233-1.632-.233-1.632a3.238,3.238,0,0,1-.561.037,10.389,10.389,0,0,1-2.938-.5c-2.333-.7-.233-2.332-.233-2.332a2.864,2.864,0,0,1-1.167-1.749c-.233-1.166,0-1.4,0-1.4s-.583-.117-.816-1.633S-429-1004.3-429-1004.3a8.072,8.072,0,0,1-1.516-2.682c-.467-1.518,1.166-2.217,1.166-2.217a5.674,5.674,0,0,1-.932-2.216c-.35-1.516,1.517-2.566,1.517-2.566s-1.749-.932-.932-2.449c.425-.789.912-.978,1.282-.978a1.142,1.142,0,0,1,.583.162s.035-.129.1-.331h0a12.4,12.4,0,0,1,.612-1.622c0-.009.008-.018.012-.026.035-.074.071-.146.108-.216l.012-.024a4.813,4.813,0,0,1,.252-.427l.031-.045c.034-.048.068-.1.1-.14a.524.524,0,0,1,.035-.044q.069-.084.138-.156a2.11,2.11,0,0,1,1.511-.613,1.734,1.734,0,0,1,.356.031s.017-.065.051-.172h0c.012-.036.023-.074.039-.118h0a5.584,5.584,0,0,1,1.309-2.272,1.318,1.318,0,0,1,.885-.273,6.735,6.735,0,0,1,2.493.739,3.989,3.989,0,0,1,1.283-2.8,1.508,1.508,0,0,1,1.141-.531,3.746,3.746,0,0,1,2.241,1.229s0-.583,1.516-1.982a1.573,1.573,0,0,1,1.1-.433m0-.742h0a2.319,2.319,0,0,0-1.6.629,9.4,9.4,0,0,0-1.234,1.337,3.525,3.525,0,0,0-2.02-.782,2.26,2.26,0,0,0-1.686.769,5.654,5.654,0,0,0-1.327,2.234,5.718,5.718,0,0,0-1.908-.412,2.02,2.02,0,0,0-1.373.456,5.924,5.924,0,0,0-1.442,2.356,2.841,2.841,0,0,0-1.861.828,2.725,2.725,0,0,0-.186.208l-.037.044-.01.016c-.044.054-.085.112-.134.182l-.013.017-.019.029a5.245,5.245,0,0,0-.291.493l-.015.026c-.041.079-.08.157-.119.238l-.014.03a12.306,12.306,0,0,0-.54,1.371h-.082a2.186,2.186,0,0,0-1.936,1.367,2.294,2.294,0,0,0-.213,1.774,2.615,2.615,0,0,0,.591,1.005,2.9,2.9,0,0,0-1.031,2.755,7.882,7.882,0,0,0,.642,1.813,2.4,2.4,0,0,0-.863,2.671,8.353,8.353,0,0,0,1.058,2.152,2.653,2.653,0,0,0-1.664,2.642,3.479,3.479,0,0,0,.711,1.806,4.7,4.7,0,0,0,.111,1.258,3.511,3.511,0,0,0,.82,1.629,2,2,0,0,0-.511,1.588c.125.667.665,1.149,1.605,1.43a13.1,13.1,0,0,0,2.251.481,1.176,1.176,0,0,0,0,.623c.158.576.7.92,1.619,1.022a19.049,19.049,0,0,0,2.1.109c.489,0,.929-.015,1.29-.035a3.343,3.343,0,0,0,.337,2.286,1.143,1.143,0,0,0,.905.436,1.787,1.787,0,0,0,.988-.35,6.362,6.362,0,0,1,1.378-.737c.516,1.6,1.171,1.6,1.4,1.6a1.085,1.085,0,0,0,.954-.643h0a1.619,1.619,0,0,1,.391.327c.393.568,1.357,1.8,2.313,1.8a1.154,1.154,0,0,0,.9-.435c.075.037.163.086.228.122l.2.11.013.007c.047.023.093.046.139.067l.014.006.064.028c.026.01.051.021.079.031a1.628,1.628,0,0,0,.164.052l.044.01.1.02h.066c.027,0,.053.006.067.006h.138a.484.484,0,0,0,.055,0l.053-.008.056-.01h.016a1.151,1.151,0,0,0,.18-.056h.007a.721.721,0,0,0,.074-.033l.024-.012.038-.022a1.123,1.123,0,0,0,.175-.128l.018-.015.016-.014.031-.029a1.315,1.315,0,0,0,.161-.2l.016-.027.012-.02.009-.015.4-.25a7.6,7.6,0,0,0,2.865.876,1.47,1.47,0,0,0,1.553-1.083l.1-.4a4.046,4.046,0,0,0,1.8.552,1.569,1.569,0,0,0,1.4-.761,1.711,1.711,0,0,1,1.435-.693,7.21,7.21,0,0,0,2.326.461,2.5,2.5,0,0,0,2.6-1.664c.191-.574.444-.865.747-.865h.042a.547.547,0,0,1,.067.008h.01l.042.008h.018l.066.02a.662.662,0,0,1,.093.037h.007l.025.014h.007l.012.007a.757.757,0,0,0,.259.093,10.207,10.207,0,0,0,1.41.107c.7,0,1.665-.079,2.082-.758a1.278,1.278,0,0,0-.01-1.3,5.271,5.271,0,0,0-.308-.529l-.125-.392a2.875,2.875,0,0,0,1.705-1.2,1.854,1.854,0,0,0,0-1.754c-.408-.873-.668-1.454-.826-1.813a2.149,2.149,0,0,0,.693-1.27,1.225,1.225,0,0,0-.365-.977,4.884,4.884,0,0,1-.733-1.5,3.211,3.211,0,0,0,.945-1.947,1.364,1.364,0,0,0-.488-1.032,2.227,2.227,0,0,1-.54-.675,2.827,2.827,0,0,0,1.16-1.77,1.4,1.4,0,0,0-.5-1.167,2.491,2.491,0,0,1-.7-1.1,2.743,2.743,0,0,0,1.1-1.543,1.374,1.374,0,0,0-.325-1.131,3.786,3.786,0,0,1-.35-.485.234.234,0,0,0-.012-.023c-.037-.06-.07-.12-.106-.186v-.007a3.556,3.556,0,0,1-.156-.328.038.038,0,0,0-.008-.02l-.008-.02a2.735,2.735,0,0,0,.864-2.081,1.627,1.627,0,0,0-1.076-1.247l-.095-.042a1.911,1.911,0,0,0-1.113-2.079,3.988,3.988,0,0,0-1.058-.359,2.281,2.281,0,0,0-1.8-2.094,3.414,3.414,0,0,0-.648-.065,2.721,2.721,0,0,0-.3.016,1.81,1.81,0,0,0-.063-.228,2.1,2.1,0,0,0-1.182-1.191,2.893,2.893,0,0,0-1.214-.28,2.531,2.531,0,0,0-.682.095v-.05c-.012-.076-.026-.156-.047-.247a.242.242,0,0,0-.01-.048,2.3,2.3,0,0,0-.073-.241.624.624,0,0,0-.021-.065,2.064,2.064,0,0,0-.107-.232c-.011-.024-.023-.048-.039-.076a1.618,1.618,0,0,0-.146-.208,1.059,1.059,0,0,0-.069-.087,1.623,1.623,0,0,0-.2-.177,1.02,1.02,0,0,0-.1-.079,1.339,1.339,0,0,0-.242-.125.816.816,0,0,0-.13-.055,1.674,1.674,0,0,0-.282-.061.991.991,0,0,0-.136-.019h-.131a2.231,2.231,0,0,0-.3.022,8.353,8.353,0,0,0-1.433.337,1.542,1.542,0,0,0-1.39-.919,4.175,4.175,0,0,0-.565-.042,3.123,3.123,0,0,0-1.188.224,1.389,1.389,0,0,0-.357-.393,1.667,1.667,0,0,0-1.018-.293,3.509,3.509,0,0,0-1.252.257,1.3,1.3,0,0,0-1.076-.747h0a.972.972,0,0,0-.568.181,4.578,4.578,0,0,0-2.664-1.145Z" transform="translate(431.842 1028.215)"/><g transform="translate(3.104 10.457)"><path class="f" d="M-371.819-883.438a5.392,5.392,0,0,1-2.381-1.332,7.415,7.415,0,0,1-2.664.96c-.916-.012-1.257-1.556-1.365-2.267-.745-.033-2.767-.127-3.3-.213a.62.62,0,0,1-.509-.371A.869.869,0,0,1-382-887.3c-.528-.061-1.413-.17-2.3-.3a.831.831,0,0,1-.755-.536,1.823,1.823,0,0,1,.5-1.462,8.317,8.317,0,0,1-4.5-.526,1.884,1.884,0,0,1-1.036-1.32,1.874,1.874,0,0,1,.214-1.132,4.026,4.026,0,0,1-2.12-1.144.326.326,0,0,1,.021-.459.327.327,0,0,1,.46.019,3.227,3.227,0,0,0,2.21.975.337.337,0,0,1,.3.19.327.327,0,0,1-.054.354,1.556,1.556,0,0,0-.391,1.1,1.281,1.281,0,0,0,.717.854c1.608.924,4.894.335,4.929.33a.325.325,0,0,1,.346.168.326.326,0,0,1-.058.382c-.5.5-1,1.233-.919,1.466.013.041.1.079.23.1,1.382.2,2.753.35,2.766.352a.327.327,0,0,1,.263.192.33.33,0,0,1-.036.325,1.052,1.052,0,0,0-.216.475c.61.064,3.471.181,3.5.182a.326.326,0,0,1,.311.29c.1.924.45,1.961.763,1.965h.01a8.149,8.149,0,0,0,2.523-.983.328.328,0,0,1,.365.033,6.854,6.854,0,0,0,2.121,1.327,3.289,3.289,0,0,0,.5-.681c.362-.571.773-1.222,1.347-1.282a3.659,3.659,0,0,1,1.2.18,2.793,2.793,0,0,0,1.6.121c.244-.108.326-.3.449-.631a1.4,1.4,0,0,1,1.165-1.086,11.681,11.681,0,0,1,1.69-.052,5.84,5.84,0,0,0,2.528-.26c.1-.1-.012-.416-.113-.7a1.482,1.482,0,0,1-.084-1.245,1.114,1.114,0,0,1,.828-.485,2.243,2.243,0,0,1,1.8.39c.321.2.452.284.764.119a1.066,1.066,0,0,0,.588-.727.828.828,0,0,1,.668-.676,3.272,3.272,0,0,1,.9.057c.736.106,1.349.166,1.419-.172a.324.324,0,0,1,.382-.253h0a.324.324,0,0,1,.253.382v0c-.2.963-1.373.8-2.15.683a3.1,3.1,0,0,0-.7-.059c-.072.012-.082.014-.157.239a1.709,1.709,0,0,1-.9,1.1,1.245,1.245,0,0,1-1.417-.144,1.6,1.6,0,0,0-1.33-.3.582.582,0,0,0-.38.17c-.073.127.042.444.133.7.16.444.359,1-.051,1.388-.458.436-1.477.458-2.985.44a11.213,11.213,0,0,0-1.583.044c-.41.063-.5.262-.653.669a1.532,1.532,0,0,1-.8,1,3.191,3.191,0,0,1-2.017-.086,3.333,3.333,0,0,0-.97-.163c-.262.028-.612.58-.867.983a2.312,2.312,0,0,1-.818.939A.532.532,0,0,1-371.819-883.438Z" transform="translate(392.083 894.261)"/></g><g transform="translate(18.615 19.428)"><path class="f" d="M-192.524-758.44a.327.327,0,0,1-.294-.185,4.387,4.387,0,0,1-.571-1.769c.071-.36.436-.418.678-.457a.911.911,0,0,0,.629-.27c.11-.145.089-.241-.046-.559a1.625,1.625,0,0,1-.173-.849c.057-.457.465-.707.792-.907.178-.11.424-.26.428-.356a.6.6,0,0,0-.156-.416,1.176,1.176,0,0,1-.258-.675.874.874,0,0,1,.346-.714c.1-.089.1-.1.1-.119a1.7,1.7,0,0,0-.2-.209,1.737,1.737,0,0,1-.68-1.57,3.052,3.052,0,0,1,1.372-1.895c.066-.052.145-.111.191-.152a6.343,6.343,0,0,0-.227-.9,6.03,6.03,0,0,1-.281-1.217,1.421,1.421,0,0,1,.539-.983,1.739,1.739,0,0,0,.637-1.2c0-.268-.048-.291-.436-.345-.352-.05-1.007-.142-1.049-.992a1.83,1.83,0,0,1,.976-1.662,7.007,7.007,0,0,1-1.077-2.084.325.325,0,0,1,.208-.41h0a.325.325,0,0,1,.41.207h0a4.776,4.776,0,0,0,1.212,2.094.324.324,0,0,1,.157.318.327.327,0,0,1-.226.273c-.044.014-1.055.343-1.011,1.231.015.3.107.326.49.38.35.05,1,.141,1,1a2.344,2.344,0,0,1-.817,1.636c-.18.189-.365.386-.36.507a5.886,5.886,0,0,0,.254,1.059c.235.8.342,1.188.166,1.435a1.79,1.79,0,0,1-.359.318c-.39.3-1.044.8-1.12,1.454a1.119,1.119,0,0,0,.479,1.022,1.034,1.034,0,0,1,.4.62.752.752,0,0,1-.307.664c-.114.1-.135.13-.132.213a.562.562,0,0,0,.143.324,1.236,1.236,0,0,1,.271.813c-.018.444-.418.688-.739.885-.218.135-.468.286-.486.432a1.056,1.056,0,0,0,.129.517,1.1,1.1,0,0,1-.037,1.207,1.5,1.5,0,0,1-1.045.519c-.04.006-.089.014-.129.022a8.26,8.26,0,0,0,.509,1.279.326.326,0,0,1-.153.435A.33.33,0,0,1-192.524-758.44Z" transform="translate(193.39 779.344)"/></g><g transform="translate(26.689 23.718)"><g transform="translate(0 0)"><ellipse class="f" cx="0.658" cy="1.549" rx="0.658" ry="1.549" transform="translate(0 0.254) rotate(-11.13)"/></g></g><g transform="translate(34.644 22.44)"><g transform="translate(0 0)"><ellipse class="f" cx="0.658" cy="1.549" rx="0.658" ry="1.549" transform="translate(0 0.254) rotate(-11.13)"/></g></g><g transform="translate(29.919 28.371)"><g transform="translate(0)"><path class="f" d="M-47.611-663.3a1.044,1.044,0,0,1-.928-.456.325.325,0,0,1,.121-.444h0a.327.327,0,0,1,.439.114c.019.026.162.2.575.113a.714.714,0,0,0,.554-.552.325.325,0,0,1,.38-.258.323.323,0,0,1,.26.375,1.374,1.374,0,0,1-1.067,1.076A1.725,1.725,0,0,1-47.611-663.3Z" transform="translate(48.583 664.791)"/></g></g><g transform="translate(31.644 28.232)"><g transform="translate(0)"><path class="f" d="M-25.324-665.319a1.4,1.4,0,0,1-1.122-.618.326.326,0,0,1,.1-.45.327.327,0,0,1,.45.1.711.711,0,0,0,.718.3c.425-.084.485-.3.49-.323a.328.328,0,0,1,.375-.259.318.318,0,0,1,.269.354,1.138,1.138,0,0,1-1.008.869A1.489,1.489,0,0,1-25.324-665.319Z" transform="translate(26.497 666.575)"/></g></g><g transform="translate(13.84 28.903)"><path class="f" d="M-236.4-647.366a.979.979,0,0,1-.44-.1l-17.174-8.661a.977.977,0,0,1-.432-1.312.978.978,0,0,1,1.312-.433l17.174,8.661a.977.977,0,0,1,.432,1.312A.977.977,0,0,1-236.4-647.366Z" transform="translate(254.554 657.981)"/></g><g transform="translate(29.11 35.447)"><g transform="translate(0)"><path class="f" d="M-57.159-568.745a.977.977,0,0,1-.908-.618l-.812-2.055a.977.977,0,0,1,.348-1.159l1.979-1.389a.976.976,0,0,1,1.36.239h0a.977.977,0,0,1-.238,1.361l-1.349.946.53,1.339a.977.977,0,0,1-.551,1.267A.978.978,0,0,1-57.159-568.745Z" transform="translate(58.948 574.143)"/></g></g></g><g transform="translate(58.968 26.125)"><path class="f" d="M324.5-688.792a.977.977,0,0,1-.951-.758.976.976,0,0,1,.732-1.171h0l12.2-2.819a.977.977,0,0,1,1.172.733h0a.976.976,0,0,1-.732,1.171h0l-12.2,2.814A.993.993,0,0,1,324.5-688.792Z" transform="translate(-323.52 693.565)"/></g><g transform="translate(59.541 26.905)"><path class="f" d="M331.9-677.975a.973.973,0,0,1-.618-.221.977.977,0,0,1-.136-1.375l.913-1.114-1-1.313a.977.977,0,0,1,.188-1.369.976.976,0,0,1,1.368.187v0l1.46,1.928a.977.977,0,0,1-.023,1.21l-1.4,1.709A.976.976,0,0,1,331.9-677.975Z" transform="translate(-330.867 683.567)"/></g><g transform="translate(75.865 29.406)"><g transform="translate(0)"><path class="f" d="M540.941-631.585a.977.977,0,0,1-.971-.89.978.978,0,0,1,.885-1.062l1.8-.162.933-16.916a.967.967,0,0,1,1.01-.923h.02a.977.977,0,0,1,.921,1.029l-.979,17.759a.977.977,0,0,1-.887.919l-2.636.238C541-631.587,540.97-631.585,540.941-631.585Z" transform="translate(-539.966 651.538)"/></g></g><g transform="translate(89.774 31.574)"><g transform="translate(0)"><path class="f" d="M719.862-603.462a.978.978,0,0,1-.925-.662.977.977,0,0,1,.609-1.24l1.7-.582L718.159-622.6a.977.977,0,0,1,.782-1.139.973.973,0,0,1,1.138.775v.007l3.251,17.486a.977.977,0,0,1-.645,1.1l-2.5.856A.976.976,0,0,1,719.862-603.462Z" transform="translate(-718.142 623.755)"/></g></g><g transform="translate(66.041 3.32)"><g transform="translate(0.736 0.773)"><g transform="translate(0 0.002)"><path class="g" d="M443.421-974.277s2.332-2.449,3.849-1.049,1.517,1.984,1.517,1.984,1.982-2.215,3.382-.7a3.989,3.989,0,0,1,1.283,2.8s2.449-1.283,3.383-.466a6.145,6.145,0,0,1,1.4,2.566,2.146,2.146,0,0,1,1.867.583,8.855,8.855,0,0,1,1.4,3.031s1.049-.7,1.866.818-.932,2.449-.932,2.449,1.866,1.051,1.516,2.566a5.678,5.678,0,0,1-.932,2.217s1.632.7,1.166,2.217a8.06,8.06,0,0,1-1.516,2.682s2.332.7,2.094,2.217-.816,1.632-.816,1.632.233.234,0,1.4a2.86,2.86,0,0,1-1.166,1.749s2.1,1.633-.233,2.332a8.078,8.078,0,0,1-3.5.467s1.866,1.4-.233,1.633a21.653,21.653,0,0,1-4.2,0s.817,3.732-.932,2.566-2.333-.932-2.333-.932-.583,2.449-1.167,1.4-1.631.232-1.631.232-1.517,2.217-2.1,1.283-1.749,1.05-2.216-.117l-.932-.583s-3.383,1.866-3.733.467l-.351-1.4s-2.332,1.749-3.031.583a2.516,2.516,0,0,0-2.216-1.049s-3.383,1.4-4.083-.7-2.216-1.166-2.216-1.166-3.5.349-2.566-.932.233-.467.233-.467l.35-1.283s-2.8-.349-1.983-2.094,1.05-2.333,1.05-2.333-1.283-.932-.7-1.516a6.854,6.854,0,0,0,1.05-2.216s-1.632-1.517-.816-2.217a2.708,2.708,0,0,0,.931-1.516s-1.981-1.283-1.049-2.094a3.333,3.333,0,0,0,1.049-1.983s-1.749-1.05-1.049-1.866a4.8,4.8,0,0,0,.932-1.75s-1.983-1.749-.35-2.449a7.1,7.1,0,0,0,2.683-2.215s.466-2.1,1.167-1.984a13.252,13.252,0,0,0,1.749.118s.233-2.216,1.167-1.866a5.983,5.983,0,0,0,1.866.35s-.466-2.567,1.167-2.332a7.042,7.042,0,0,1,2.682.933s-1.281-1.283.35-1.516a2.094,2.094,0,0,1,2.216.816s-.233-.816.232-1.166a1.986,1.986,0,0,1,1.983.35C442.255-973.46,442.723-975.792,443.421-974.277Z" transform="translate(-423.552 975.759)"/></g><g transform="translate(12.303 16.37)"><path class="h" d="M589.625-743.253a.589.589,0,0,0,.084.1l.017.014a.381.381,0,0,0,.091.059l.016.006a.407.407,0,0,0,.1.026h.008a.588.588,0,0,0,.111,0h.009a.93.93,0,0,0,.117-.029l.017,0a1.165,1.165,0,0,0,.119-.046l.02-.009.12-.059h.005c.187-.653.8-1.895,1.02-2.609a1.6,1.6,0,0,0-.328-1.456s-.9-.825-.433-1.062,1.141-1.533,1.141-1.533-.551.354-.709.472-.707.865-.746.2a4.353,4.353,0,0,0-.236-1.179,15.863,15.863,0,0,1,1.14-1.259,4.345,4.345,0,0,0,.786-1.338s-1.14,1.181-1.376.354a2.84,2.84,0,0,0-1.1-1.376,3.237,3.237,0,0,1,1.061-1.415,1.268,1.268,0,0,0,.629-1.1,8.162,8.162,0,0,1-.943.629c-.55.314-.63-.433-.668-.983s-.2-1.377-.2-1.377a10.8,10.8,0,0,0,1.966-.669c.787-.392-.079-1.454-.079-1.454a5.474,5.474,0,0,1-.551.9c-.2.2-.747-.039-.747-.512s-.825-1.3-.825-1.3l.746-1.377s.707.2,1.849.394a.978.978,0,0,0,1.189-.707.985.985,0,0,0,.029-.2,17.408,17.408,0,0,0-1.809-2.753,8.117,8.117,0,0,0-1.612-.2c-.51.04-3.7.9-4.561,1.062s-4.089,4.915-3.933,6.175a132.141,132.141,0,0,0,2.728,14.336c.321-.187.558-.356.616-.4h.005l.009-.007.351,1.4c.35,1.4,3.733-.467,3.733-.467l.932.583a1.007,1.007,0,0,0,.078.154Z" transform="translate(-581.155 766.093)"/></g><g transform="translate(18.137 6.321)"><path class="h" d="M664.38-863.5c.582,1.05,1.167-1.4,1.167-1.4s.583-.233,2.333.932.932-2.566.932-2.566a21.652,21.652,0,0,0,4.2,0c2.1-.233.233-1.633.233-1.633a8.078,8.078,0,0,0,3.5-.467c2.333-.7.233-2.332.233-2.332a2.86,2.86,0,0,0,1.167-1.749c.234-1.166,0-1.4,0-1.4s.583-.117.816-1.632-2.094-2.217-2.094-2.217a8.06,8.06,0,0,0,1.516-2.682c.467-1.518-1.166-2.217-1.166-2.217a5.684,5.684,0,0,0,.932-2.217c.35-1.515-1.516-2.566-1.516-2.566s1.749-.932.933-2.449-1.866-.818-1.866-.818a8.854,8.854,0,0,0-1.4-3.031,2.146,2.146,0,0,0-1.867-.583s-.03-.114-.09-.3c-1.154.226-1.988.4-1.988.4l4.771,3.47s1.994.26,1.994,1.041-1.214,1.647-1.475,1.734a2.277,2.277,0,0,1-.607.088,1.763,1.763,0,0,1,1.3,2.081,3.933,3.933,0,0,1-1.127,2.256l-1.215.088,2.342.693s1.475,1.822.867,2.6-1.822,2.081-2.169,1.821a3.991,3.991,0,0,0-.78-.433s.868,1.562,1.387,1.3a2.162,2.162,0,0,1,.868-.259s1.387.952,1.127,1.82-1.735,1.128-1.735,1.128-.607.781.087.868,1.475.174,1.475.174,0,1.473-1.041,1.473H674.95s2.081,2.081,1.3,2.6a4.787,4.787,0,0,1-2.775.607,14.228,14.228,0,0,1-2.775-1.3s2.341,2.774.52,3.036a14.047,14.047,0,0,1-2.862.174L667.578-869s.954,3.642.087,3.9-1.821-.607-1.821-.607l-.942-1.881c.1.192.691,1.5-.272,2.055a1.486,1.486,0,0,1-1.735,0s.867,1.041-.52,1.474-1.907,0-1.994-.434-2.08-2.34-2.949-2.081c-.684.206-1.895,2.084-1.452,4.57a12.27,12.27,0,0,0,1.526-.685l.932.583c.467,1.167,1.632-.817,2.216.117s2.1-1.283,2.1-1.283S663.8-864.549,664.38-863.5Z" transform="translate(-655.883 894.819)"/><g transform="translate(9.003 27.209)"><path class="h" d="M771.215-546.25l-.012-.027Z" transform="translate(-771.203 546.277)"/></g></g><g transform="translate(0.004 6.678)"><path class="i" d="M439.614-858l-.351-1.4s-2.332,1.749-3.031.583a2.516,2.516,0,0,0-2.216-1.049s-3.383,1.4-4.083-.7-2.216-1.166-2.216-1.166-3.426.532-2.707-.881a4.428,4.428,0,0,1,.32-.535l.4-1.268s-2.8-.349-1.983-2.094,1.05-2.332,1.05-2.332-1.283-.932-.7-1.517a6.854,6.854,0,0,0,1.05-2.216s-1.632-1.517-.816-2.217a2.709,2.709,0,0,0,.931-1.516s-1.982-1.283-1.049-2.094a3.334,3.334,0,0,0,1.049-1.983s-1.749-1.05-1.049-1.866a4.8,4.8,0,0,0,.932-1.75s-1.982-1.749-.35-2.449a7.1,7.1,0,0,0,2.682-2.215,6.129,6.129,0,0,1,.592-1.586c4.4,3.418,8.453,7.051,8.453,7.051s6.687,3.139,7.6,4.5-.955,3.091-.955,3.091a3.066,3.066,0,0,1,.911.546c.227.272.545,1.5-.546,1.774s-.41,1.456-.41,1.456l.774.773c.318.319.226,1.1.045,1.775a11.648,11.648,0,0,1-.368,1.156,4.022,4.022,0,0,1,1.4,1.225c.7.919-.832,2.144-.832,2.144a2.527,2.527,0,0,1,.569,1.005c.176.612-.525,1.225-.525,1.225a6.293,6.293,0,0,0,1.049.744c.787.482.073,2.146.073,2.146s2.427-.031.816,1.621c-.615-.063-1.467,1.092-1.849.138l-.932-.583S439.964-856.6,439.614-858Z" transform="translate(-423.597 890.243)"/></g><g transform="translate(0.011 9.852)"><path class="j" d="M428.483-824.448a1.3,1.3,0,0,0-.939-.007c-.877.26-1.753-.555-1.507-.985a29.107,29.107,0,0,0,.866-3.217l-.927,1.218s-1.4-.754-1.333-1.739a10.3,10.3,0,0,1,1.565-3.131l-.928.464a1.486,1.486,0,0,1-.173-1.391,21.759,21.759,0,0,0,.928-2.493h-.348c-.347,0-.7-.754-.29-1.4a7.675,7.675,0,0,0,.7-1.795l.7-.7a5.88,5.88,0,0,1-1.333-.058c-.523-.116-.638-.7-.29-1.334a9.778,9.778,0,0,0,.638-1.855l.928-.579a5.119,5.119,0,0,1-1.508-.986c-.638-.637,1.971-2.55,1.971-2.55l-.007-2s-.566-.277-1.237-.6a5.581,5.581,0,0,1-1.054.6c-1.633.7.35,2.449.35,2.449a4.8,4.8,0,0,1-.932,1.75c-.7.816,1.049,1.865,1.049,1.865a3.335,3.335,0,0,1-1.049,1.983c-.932.816,1.049,2.094,1.049,2.094a2.709,2.709,0,0,1-.931,1.517c-.817.7.816,2.217.816,2.217a6.857,6.857,0,0,1-1.05,2.216c-.583.584.7,1.517.7,1.517s-.233.582-1.05,2.332,1.984,2.094,1.984,2.094l-.4,1.268a4.44,4.44,0,0,0-.32.535c-.719,1.413,2.707.881,2.707.881A1.617,1.617,0,0,1,428.483-824.448Z" transform="translate(-423.699 849.584)"/></g><g transform="translate(0.567)"><path class="j" d="M466.8-968.586a2.146,2.146,0,0,0-1.867-.583,6.143,6.143,0,0,0-1.4-2.566c-.932-.818-3.383.466-3.383.466a3.989,3.989,0,0,0-1.283-2.8c-1.4-1.516-3.382.7-3.382.7s0-.583-1.516-1.983-3.849,1.049-3.849,1.049c-.7-1.515-1.167.818-1.4.468a1.986,1.986,0,0,0-1.983-.35c-.466.35-.232,1.166-.232,1.166a2.094,2.094,0,0,0-2.216-.816c-1.632.232-.35,1.516-.35,1.516a7.039,7.039,0,0,0-2.682-.933c-1.605-.229-1.183,2.239-1.168,2.325a1.969,1.969,0,0,0-2.353-.447,1.23,1.23,0,0,0-.8,1.542,1.231,1.231,0,0,0,.142.3.474.474,0,0,1-.008.065,1.826,1.826,0,0,0-1.7-.384c-1.46.28-1.231,2.316-1.231,2.316a7.1,7.1,0,0,1-2.682,2.215c-1.632.7.35,2.449.35,2.449a4.7,4.7,0,0,1-.5,1.14,3.4,3.4,0,0,0,2.194-1.141,1.122,1.122,0,0,1,1.255.97,1.12,1.12,0,0,1,.007.206c0,1.3,2.273,0,2.273,0s2.018-.235,1.009,1.528,3.534.705,3.534.705,2.019-.117,1.641,1.411,3.029.47,3.029.47,1.137-.353,1.767,1.411,2.9-.822,2.9-.822a9.074,9.074,0,0,1,2.524.94c1.641.823,1.515-2.116,1.515-2.116s1.388-.118,2.9-.118.63-1.058.63-1.058,1.389-.118,2.778-.353-.506-2.115-.506-2.115.178-.022.487-.048a27.449,27.449,0,0,1,3.679-.069c2.147.117,1.389-2.7,1.389-2.7s1.64,0,1.766-1.058c.008-.063.008-.129.013-.193A7.65,7.65,0,0,0,466.8-968.586Z" transform="translate(-430.82 975.785)"/></g><g transform="translate(6.479 3.767)"><path class="k" d="M519.815-927.486s-8.964,3.646-10.9,5.014l-1.824.911s-1.139.911-.114,1.6,9.972,4.535,12.592,4.992c0,0,1.2.6,3.935-.66s9.348-5.129,9.348-5.129,1.253-.913-.57-2.053-9.16-4.214-9.16-4.214A6.557,6.557,0,0,0,519.815-927.486Z" transform="translate(-506.548 927.533)"/></g><g transform="translate(7.81 4.539)"><path class="l" d="M535.418-917.6s-7.988,3.1-9.715,4.267l-1.625.777s-1.015.776-.1,1.356,8.885,3.86,11.222,4.247c0,0,1.069.506,3.507-.56s8.331-4.365,8.331-4.365,1.117-.778-.508-1.747-8.163-3.59-8.163-3.59A6.114,6.114,0,0,0,535.418-917.6Z" transform="translate(-523.595 917.645)"/></g><g transform="translate(7.81 4.539)"><path class="m" d="M540.648-916.28c-1.3-.538-2.283-.932-2.283-.932a6.112,6.112,0,0,0-2.948-.39s-7.988,3.1-9.715,4.267l-1.625.777s-1.015.776-.1,1.356a56.822,56.822,0,0,0,5.385,2.315,16.877,16.877,0,0,0,8.833-2.384A5.769,5.769,0,0,0,540.648-916.28Z" transform="translate(-523.595 917.642)"/></g><g transform="translate(12.482 5.792)"><path class="n" d="M595.827-901.478l-.26-.108a11.621,11.621,0,0,1-.63,3c-.4.937-5.146,3.523-6.693,3.854a28.233,28.233,0,0,1-4.8.213c.357.144.722.287,1.09.43a16.875,16.875,0,0,0,8.832-2.383A5.771,5.771,0,0,0,595.827-901.478Z" transform="translate(-583.447 901.586)"/></g><g transform="translate(24.033 6.288)"><path class="o" d="M738.118-892.972c-.852-.508-3.05-1.468-4.952-2.266a12.862,12.862,0,0,0-1.75,4.159c-.119,1.347.9,2.157,2.741,2.285,2.268-1.2,4.47-2.432,4.47-2.432S739.741-892,738.118-892.972Z" transform="translate(-731.406 895.238)"/></g><g transform="translate(24.344 8.854)"><path class="p" d="M735.4-859.541a3.1,3.1,0,0,0,2.438,1.049c2.268-1.2,4.47-2.432,4.47-2.432s.888-.623-.087-1.447a2.1,2.1,0,0,1-.2,1.2,26.467,26.467,0,0,1-3.481,1.91c-.7.339-2.66-.386-2.66-.386Z" transform="translate(-735.396 862.371)"/></g><g transform="translate(24.372 6.288)"><path class="q" d="M742.123-892.972c-.852-.508-3.051-1.468-4.953-2.266a19.043,19.043,0,0,0-1.365,2.723c-.032.414-.053.7-.053.7s1.672-2.449,1.772-2.534a1.929,1.929,0,0,1,1.259.249,20.788,20.788,0,0,1,3.561,1.722,1.371,1.371,0,0,1,.523.9C743.075-891.782,743.192-892.334,742.123-892.972Z" transform="translate(-735.752 895.238)"/></g><g transform="translate(16.545 11.876)"><path class="r" d="M645.148-822.5a5.227,5.227,0,0,1-.861-.321,5.883,5.883,0,0,0-3.261-.836,20.656,20.656,0,0,0-4.933,1.629,1.386,1.386,0,0,0-.605.883,20.935,20.935,0,0,0,2.868.834s1.069.506,3.507-.56C642.686-821.23,643.9-821.844,645.148-822.5Z" transform="translate(-635.488 823.66)"/></g><g transform="translate(18.042 12.904)"><path class="s" d="M662.827-810.35c-.126-.035-.264-.078-.412-.133-.572.24-1.3.616-1.843.917a10.1,10.1,0,0,1-3.578,1.208,14.832,14.832,0,0,1-2.331-.151,12.137,12.137,0,0,0,1.372.347s1.069.506,3.507-.56C660.364-809.083,661.579-809.7,662.827-810.35Z" transform="translate(-654.664 810.483)"/></g><g transform="translate(7.809 4.54)"><path class="t" d="M524.944-912.195c.769-.384,10.756-5.1,11.413-5.1a29.15,29.15,0,0,1,4.264,1.514c.01-.17.016-.333.015-.482-1.3-.539-2.283-.932-2.283-.932a6.115,6.115,0,0,0-2.948-.39s-7.988,3.1-9.715,4.267l-1.625.777s-1.015.776-.1,1.356a56.8,56.8,0,0,0,5.385,2.314c.114,0,.226-.01.341-.012l-3.92-2.1C524.944-911.428,524.176-911.812,524.944-912.195Z" transform="translate(-523.583 917.629)"/></g><g transform="translate(14.177 7.278)"><path class="u" d="M605.641-882.1a11.748,11.748,0,0,1,.645,2.331,10.788,10.788,0,0,1-.05,2.48s-.4-2.729-.645-3.472-.545-1.886-.4-1.787A3.617,3.617,0,0,1,605.641-882.1Z" transform="translate(-605.153 882.554)"/></g><g transform="translate(17.129 6.086)"><path class="u" d="M643.46-897.379a11.75,11.75,0,0,1,.645,2.332,10.733,10.733,0,0,1-.05,2.48s-.4-2.728-.643-3.472-.547-1.884-.4-1.785A3.543,3.543,0,0,1,643.46-897.379Z" transform="translate(-642.974 897.831)"/></g><g transform="translate(20.492 4.873)"><path class="u" d="M686.537-912.912a11.717,11.717,0,0,1,.645,2.332,10.744,10.744,0,0,1-.05,2.481s-.4-2.73-.644-3.473-.545-1.885-.4-1.786A3.656,3.656,0,0,1,686.537-912.912Z" transform="translate(-686.05 913.365)"/></g><g transform="translate(9.75 9.625)"><path class="t" d="M549.436-852.487s-1.017.339-.984.688.7.547.744.448-.284-.328,0-.557S549.9-852.5,549.436-852.487Z" transform="translate(-548.451 852.487)"/></g><g transform="translate(12.954 8.183)"><path class="t" d="M590.179-870.967s-.721.185-.689.4.493.185.667.055S590.526-870.869,590.179-870.967Z" transform="translate(-589.489 870.967)"/></g><g transform="translate(14.962 7.056)"><path class="t" d="M616.161-885.4s-.961.493-.928.634-.165.426.207.24.765-.426.951-.514S616.514-885.382,616.161-885.4Z" transform="translate(-615.209 885.402)"/></g><g transform="translate(17.77 5.874)"><path class="t" d="M652.072-900.532s-.983.229-.885.438-.011.339.416.207,1.1-.459,1.038-.579S652.072-900.532,652.072-900.532Z" transform="translate(-651.18 900.545)"/></g><g transform="translate(21.287 5.329)"><path class="t" d="M696.23-907.527s.022.339.23.415,1.159.208.961.067A2.519,2.519,0,0,0,696.23-907.527Z" transform="translate(-696.23 907.527)"/></g><g transform="translate(24.032 6.288)"><path class="v" d="M731.807-890.985a19.254,19.254,0,0,1,1.779-4.071l-.434-.182a12.865,12.865,0,0,0-1.75,4.159c-.119,1.347.9,2.157,2.741,2.285l.466-.246C732.877-889.32,731.743-890.165,731.807-890.985Z" transform="translate(-731.392 895.238)"/></g><g transform="translate(16.547 11.876)"><path class="w" d="M642.2-823.29a17.151,17.151,0,0,1,2.094.469,5.832,5.832,0,0,0-3.24-.826,20.653,20.653,0,0,0-4.933,1.629,1.387,1.387,0,0,0-.605.883c.215.074.417.142.62.207.042-.066.084-.133.125-.2.352-.554.8-.8,1.913-1.259A9.672,9.672,0,0,1,642.2-823.29Z" transform="translate(-635.515 823.652)"/></g><g transform="translate(17.854 13.5)"><path class="w" d="M654.025-802.856a9.2,9.2,0,0,0-1.756.743c-.045.165-.045.3.492.388s.863.014.684-.15-.418-.3-.312-.416S654.575-802.664,654.025-802.856Z" transform="translate(-652.251 802.856)"/></g><g transform="translate(20.438 12.488)"><path class="w" d="M687.888-815.822a16.107,16.107,0,0,0-2.513.685c-.18.192.714-.121,1.1-.18s.982-.312,1.25-.312S688.365-815.822,687.888-815.822Z" transform="translate(-685.351 815.822)"/></g><g transform="translate(24.813 9.215)"><path class="q" d="M741.972-857.732s-.744,1.338-.535,1.651.358.358.358.165-.193-.18-.075-.67S742.316-857.866,741.972-857.732Z" transform="translate(-741.4 857.747)"/></g><g transform="translate(23.263 20.697)"><path class="x" d="M721.752-710.663a2.408,2.408,0,0,1-.172,1.033c-.228.689.632-.057.689-.573S721.752-710.663,721.752-710.663Z" transform="translate(-721.541 710.665)"/></g><g transform="translate(36.568 13.948)"><path class="x" d="M892.728-797.121s1.435.688.4,1.319-1.148.116-1.148-.056S892.9-796.6,892.728-797.121Z" transform="translate(-891.979 797.121)"/></g><g transform="translate(37.375 10.962)"><path class="x" d="M903.174-835.366s.746.69-.058.918-.8-.114-.8-.114Z" transform="translate(-902.312 835.366)"/></g><g transform="translate(37.923 18.882)"><path class="x" d="M909.594-733.9c.167-.041,1.092.459.69,1.148s-.69.517-.862-.172S909.365-733.845,909.594-733.9Z" transform="translate(-909.34 733.907)"/></g><g transform="translate(38.122 24.228)"><path class="x" d="M912.509-665.379s.632.632.23.919-.861.057-.861-.115S912.109-665.67,912.509-665.379Z" transform="translate(-911.879 665.435)"/></g><g transform="translate(35.963 29.773)"><path class="x" d="M885.064-594.327c.574.286,1.609.8.8.747a2.991,2.991,0,0,1-1.609-.747C884.031-594.5,885.064-594.327,885.064-594.327Z" transform="translate(-884.226 594.404)"/></g><g transform="translate(23.286 35.572)"><path class="x" d="M721.928-519.7c.236.275.4.975.747.517s.4-.689.057-.861S721.584-520.1,721.928-519.7Z" transform="translate(-721.844 520.122)"/></g><g transform="translate(21.931 23.851)"><path class="x" d="M704.482-669.555c.173.69-.057,1.551.518.919s.573-.46.573-1.321S704.482-669.555,704.482-669.555Z" transform="translate(-704.482 670.258)"/></g><g transform="translate(30.823 28.374)"><path class="h" d="M821.456-612.319s.053,2.062-1.111,2.593a4.481,4.481,0,0,1-1.957.476s1.8-.739,2.062-1.533A4.7,4.7,0,0,1,821.456-612.319Z" transform="translate(-818.388 612.319)"/></g><g transform="translate(34.841 24.567)"><path class="h" d="M871.865-661.091a1.38,1.38,0,0,1-.106,1.638c-.687.742-1.9.213-1.9.213s1.268-.159,1.534-.8S871.865-661.091,871.865-661.091Z" transform="translate(-869.855 661.091)"/></g><g transform="translate(24.742 32.393)"><path class="h" d="M740.492-560.84a1.132,1.132,0,0,0,1.137,1.127,1.135,1.135,0,0,0,.186-.016c1.271-.159,1.586-.8,1.586-.8s-1.427.529-1.957.211S740.492-560.84,740.492-560.84Z" transform="translate(-740.492 560.84)"/></g><g transform="translate(27.334 28.744)"><path class="h" d="M775.913-607.58a2.419,2.419,0,0,1-.635,1.639,2.363,2.363,0,0,1-1.586.423s1.163,1.058,1.956-.053A1.887,1.887,0,0,0,775.913-607.58Z" transform="translate(-773.692 607.58)"/></g><g transform="translate(14.454 28.677)"><path class="y" d="M609.484-607.464c.468.074.884-.082.926-.347s-.305-.542-.773-.617-.883.081-.926.346S609.015-607.538,609.484-607.464Z" transform="translate(-608.707 608.447)"/></g><g transform="translate(4.321 26.381)"><path class="y" d="M479.645-636.855c.465.1.889-.032.945-.3s-.274-.559-.738-.658-.888.032-.943.3S479.184-636.955,479.645-636.855Z" transform="translate(-478.903 637.846)"/></g><g transform="translate(1.732 8.002)"><path class="j" d="M448.349-873.083s-.56-.529-1.895.125-.4,2.144-.4,2.144l1.957-.9Z" transform="translate(-445.734 873.285)"/></g></g><g transform="translate(0)"><path class="f" d="M437.482-984.916a1.577,1.577,0,0,1,1.1.433c1.516,1.4,1.516,1.983,1.516,1.983a3.748,3.748,0,0,1,2.241-1.231,1.506,1.506,0,0,1,1.141.531,3.988,3.988,0,0,1,1.283,2.8,6.734,6.734,0,0,1,2.493-.739,1.314,1.314,0,0,1,.884.273,5.585,5.585,0,0,1,1.309,2.271h0c.015.044.027.083.038.119h0c.034.108.051.172.051.172a1.725,1.725,0,0,1,.356-.031,2.112,2.112,0,0,1,1.511.614c.046.047.093.1.139.155l.035.044c.035.045.069.092.1.14l.031.046a4.7,4.7,0,0,1,.252.427c0,.008.008.015.012.024.037.071.073.144.108.216,0,.009.009.016.012.026a12.368,12.368,0,0,1,.612,1.622h0c.061.2.1.331.1.331a1.146,1.146,0,0,1,.582-.161c.37,0,.858.189,1.282.978.817,1.516-.932,2.449-.932,2.449s1.866,1.05,1.516,2.566a5.685,5.685,0,0,1-.932,2.216s1.632.7,1.166,2.217a8.059,8.059,0,0,1-1.517,2.681s2.333.7,2.1,2.217-.817,1.632-.817,1.632.234.234,0,1.4a2.86,2.86,0,0,1-1.166,1.749s2.1,1.633-.233,2.333a10.371,10.371,0,0,1-2.937.5,3.183,3.183,0,0,1-.561-.038s1.866,1.4-.233,1.633a18.6,18.6,0,0,1-2.021.1,21.786,21.786,0,0,1-2.177-.1s.611,2.792-.356,2.792a1.1,1.1,0,0,1-.576-.225,4.4,4.4,0,0,0-2.176-.951.463.463,0,0,0-.157.02s-.4,1.66-.861,1.66c-.1,0-.2-.076-.305-.262a.67.67,0,0,0-.588-.414c-.516,0-1.043.646-1.043.646s-1.035,1.513-1.724,1.513a.431.431,0,0,1-.377-.229.48.48,0,0,0-.366-.255h-.05a2.369,2.369,0,0,0-.9.37h0c-.037.019-.072.037-.108.053l-.06.026-.046.018a.728.728,0,0,1-.094.029l-.026.006-.048.01h-.151l-.023,0a.421.421,0,0,1-.057-.018h-.009l-.023-.011-.01-.006a.4.4,0,0,1-.071-.052l-.009-.007-.014-.014a.592.592,0,0,1-.073-.091v-.006l-.016-.023a1.034,1.034,0,0,1-.069-.14l-.932-.583a8.235,8.235,0,0,1-2.9.987c-.417,0-.739-.14-.833-.521l-.351-1.4-.008.006h-.005a4.936,4.936,0,0,1-2.246.971.833.833,0,0,1-.769-.4,2.444,2.444,0,0,0-2.1-1.052h-.115a6.6,6.6,0,0,1-2.182.457,1.8,1.8,0,0,1-1.9-1.158c-.37-1.111-.969-1.372-1.451-1.372h-.094a.867.867,0,0,0-.135.015h-.008c-.041.008-.081.016-.118.025h-.013c-.037.01-.073.02-.106.031h-.008a1.713,1.713,0,0,0-.17.067h-.007l-.055.026h-.008l-.032.018h-.013a9.532,9.532,0,0,1-1.3.1c-.882,0-1.821-.174-1.411-.979a4.428,4.428,0,0,1,.32-.535l.4-1.268s-2.8-.349-1.983-2.094,1.05-2.332,1.05-2.332-1.283-.932-.7-1.516a6.852,6.852,0,0,0,1.05-2.216s-1.632-1.517-.816-2.217a2.708,2.708,0,0,0,.931-1.516s-1.982-1.283-1.049-2.1a3.334,3.334,0,0,0,1.049-1.984s-1.749-1.05-1.049-1.865a4.466,4.466,0,0,0,.436-.61h0c.045-.074.087-.149.125-.22v-.007c.074-.143.137-.275.187-.4l.006-.014c.048-.115.086-.215.113-.3a.018.018,0,0,1,.006-.016c.026-.076.042-.133.051-.164v-.027s-1.982-1.749-.35-2.449c.1-.042.2-.088.289-.136.056-.028.109-.059.162-.088.035-.021.073-.039.108-.059l.1-.065a1.288,1.288,0,0,1,.5-1.751l.072-.037a2.755,2.755,0,0,1,1.2-.326,1.525,1.525,0,0,1,.229.017c-.01-.54.084-1.863,1.242-2.085a2.785,2.785,0,0,1,.509-.051,1.659,1.659,0,0,1,1.185.435c0-.018,0-.039.008-.065a1.23,1.23,0,0,1,.361-1.7,1.233,1.233,0,0,1,.3-.142,2.157,2.157,0,0,1,.9-.212,2.051,2.051,0,0,1,1.45.659v-.023a.215.215,0,0,0-.01-.07v-.012c-.005-.032-.01-.07-.014-.113v-.012c0-.045-.01-.095-.015-.15v-.013c0-.055-.008-.114-.01-.176v-.232c0-.066,0-.135.006-.2v-.022a1.633,1.633,0,0,1,.021-.206v-.025c.009-.067.022-.132.037-.2a.059.059,0,0,1,.006-.031,1.771,1.771,0,0,1,.056-.182.128.128,0,0,1,.011-.035,1.563,1.563,0,0,1,.076-.162c.006-.011.011-.024.018-.036a1.029,1.029,0,0,1,.1-.134c.01-.012.018-.026.027-.038a.937.937,0,0,1,.117-.1c.015-.012.026-.024.041-.035a.778.778,0,0,1,.141-.069c.019-.008.035-.02.054-.026a.859.859,0,0,1,.175-.033.5.5,0,0,1,.062-.012h.08a1.465,1.465,0,0,1,.2.015,7.04,7.04,0,0,1,2.682.933s-1.281-1.283.35-1.516a3.254,3.254,0,0,1,.46-.034,1.973,1.973,0,0,1,1.756.85s-.233-.816.232-1.166a.974.974,0,0,1,.573-.146,2.08,2.08,0,0,1,1.41.5.066.066,0,0,0,.053.037c.181,0,.471-1.022.866-1.021.147,0,.306.139.482.518a4.849,4.849,0,0,1,2.751-1.482m0-.742h0a4.587,4.587,0,0,0-2.664,1.145.979.979,0,0,0-.568-.18h0a1.3,1.3,0,0,0-1.076.746,3.519,3.519,0,0,0-1.251-.256,1.663,1.663,0,0,0-1.018.293,1.4,1.4,0,0,0-.357.392,3.127,3.127,0,0,0-1.188-.224,4.158,4.158,0,0,0-.566.041,1.541,1.541,0,0,0-1.39.919,8.356,8.356,0,0,0-1.433-.336,2.114,2.114,0,0,0-.3-.022h-.131a.957.957,0,0,0-.136.02,1.662,1.662,0,0,0-.282.061.953.953,0,0,0-.13.055,1.355,1.355,0,0,0-.242.126,1.074,1.074,0,0,0-.1.079,1.54,1.54,0,0,0-.2.178,1.014,1.014,0,0,0-.069.087,1.66,1.66,0,0,0-.146.209.756.756,0,0,0-.039.076,2.122,2.122,0,0,0-.107.231.455.455,0,0,0-.021.066,2.273,2.273,0,0,0-.073.241.224.224,0,0,1-.01.048c-.021.092-.035.172-.047.247v.05a2.527,2.527,0,0,0-.683-.094,2.891,2.891,0,0,0-1.214.28,2.1,2.1,0,0,0-1.183,1.191,1.847,1.847,0,0,0-.063.228,2.707,2.707,0,0,0-.3-.015,3.486,3.486,0,0,0-.648.064,2.281,2.281,0,0,0-1.8,2.094,3.967,3.967,0,0,0-1.057.359,1.91,1.91,0,0,0-1.113,2.078c-.032.016-.064.029-.095.042a1.626,1.626,0,0,0-1.076,1.247,2.735,2.735,0,0,0,.865,2.081l-.009.02a.031.031,0,0,1-.008.02c-.048.114-.1.224-.156.327v.007c-.037.068-.07.127-.107.186,0,.008-.008.016-.012.023a3.736,3.736,0,0,1-.35.486,1.374,1.374,0,0,0-.325,1.131,2.741,2.741,0,0,0,1.1,1.542,2.5,2.5,0,0,1-.7,1.1,1.4,1.4,0,0,0-.5,1.167,2.824,2.824,0,0,0,1.16,1.769,2.234,2.234,0,0,1-.54.675,1.365,1.365,0,0,0-.488,1.032,3.208,3.208,0,0,0,.945,1.948,4.885,4.885,0,0,1-.733,1.5,1.224,1.224,0,0,0-.365.977,2.15,2.15,0,0,0,.693,1.269c-.158.359-.418.939-.826,1.813a1.855,1.855,0,0,0,0,1.754,2.871,2.871,0,0,0,1.705,1.2l-.125.392a5.262,5.262,0,0,0-.308.527,1.278,1.278,0,0,0-.01,1.3c.417.679,1.387.758,2.081.758a10.2,10.2,0,0,0,1.41-.107.739.739,0,0,0,.259-.092l.012-.007h.007l.026-.013h.007a.628.628,0,0,1,.093-.037l.066-.019h.018l.042-.009h.01a.446.446,0,0,1,.067-.007h.042c.3,0,.555.29.747.865a2.5,2.5,0,0,0,2.6,1.664,7.21,7.21,0,0,0,2.327-.461,1.712,1.712,0,0,1,1.435.7,1.57,1.57,0,0,0,1.4.761,4.039,4.039,0,0,0,1.795-.553l.1.4a1.47,1.47,0,0,0,1.553,1.083,7.6,7.6,0,0,0,2.865-.875l.4.249a.089.089,0,0,0,.009.016l.012.019.016.027a1.321,1.321,0,0,0,.162.2l.031.029.016.014.018.016a1.152,1.152,0,0,0,.175.128l.038.022.023.012a.751.751,0,0,0,.075.033h.006a1.107,1.107,0,0,0,.18.056h.016l.055.01a.429.429,0,0,0,.054.007.458.458,0,0,0,.055,0h.139a.309.309,0,0,0,.067-.006h.066l.1-.02.044-.01c.057-.016.11-.033.163-.052l.079-.031.064-.028.014-.007c.046-.02.092-.043.139-.067l.013-.007c.068-.035.135-.072.2-.11s.154-.086.228-.123a1.154,1.154,0,0,0,.9.435c.956,0,1.921-1.234,2.313-1.8a1.62,1.62,0,0,1,.391-.327h0a1.085,1.085,0,0,0,.954.643c.233,0,.889,0,1.4-1.59a6.3,6.3,0,0,1,1.378.737,1.786,1.786,0,0,0,.988.35,1.145,1.145,0,0,0,.905-.436,3.342,3.342,0,0,0,.337-2.286c.36.019.8.035,1.29.035a19.077,19.077,0,0,0,2.1-.109c.916-.1,1.461-.446,1.619-1.022a1.174,1.174,0,0,0-.005-.623,12.971,12.971,0,0,0,2.251-.481c.94-.281,1.48-.763,1.605-1.43a2,2,0,0,0-.511-1.588,3.5,3.5,0,0,0,.82-1.629,4.691,4.691,0,0,0,.111-1.258,3.484,3.484,0,0,0,.711-1.807,2.652,2.652,0,0,0-1.664-2.641,8.361,8.361,0,0,0,1.058-2.152,2.406,2.406,0,0,0-.863-2.672,7.866,7.866,0,0,0,.642-1.813,2.892,2.892,0,0,0-1.032-2.755,2.622,2.622,0,0,0,.591-1.005,2.294,2.294,0,0,0-.213-1.773,2.187,2.187,0,0,0-1.936-1.368h-.082a12.243,12.243,0,0,0-.539-1.371l-.014-.03c-.038-.081-.078-.159-.119-.238l-.015-.026a5.114,5.114,0,0,0-.291-.493l-.019-.029-.013-.017c-.048-.07-.09-.128-.134-.182l-.01-.015-.036-.045c-.066-.08-.127-.149-.186-.208a2.837,2.837,0,0,0-1.861-.827,5.924,5.924,0,0,0-1.442-2.356,2.021,2.021,0,0,0-1.373-.456,5.729,5.729,0,0,0-1.908.412,5.662,5.662,0,0,0-1.327-2.234,2.262,2.262,0,0,0-1.686-.769,3.521,3.521,0,0,0-2.02.782,9.37,9.37,0,0,0-1.234-1.337,2.319,2.319,0,0,0-1.6-.629Z" transform="translate(-414.125 985.692)"/></g></g><g transform="translate(67.511 13.836)"><path class="f" d="M450.81-840.158a.535.535,0,0,1-.212-.039,2.32,2.32,0,0,1-.818-.94c-.254-.4-.6-.954-.866-.983a3.446,3.446,0,0,0-.971.164,3.19,3.19,0,0,1-2.016.086,1.532,1.532,0,0,1-.8-1c-.152-.407-.243-.605-.653-.669a11.3,11.3,0,0,0-1.583-.044c-1.5.02-2.527,0-2.984-.439-.41-.391-.212-.944-.052-1.388.092-.254.205-.571.133-.7a.582.582,0,0,0-.38-.17,1.6,1.6,0,0,0-1.33.3,1.243,1.243,0,0,1-1.417.143,1.7,1.7,0,0,1-.9-1.1c-.076-.226-.085-.228-.157-.24a3.148,3.148,0,0,0-.7.059c-.776.112-1.947.28-2.149-.683a.325.325,0,0,1,.25-.386h0a.324.324,0,0,1,.385.248v0c.071.337.684.276,1.42.171a3.247,3.247,0,0,1,.9-.057.827.827,0,0,1,.668.676,1.07,1.07,0,0,0,.587.727c.314.166.445.083.763-.119a2.25,2.25,0,0,1,1.8-.389,1.108,1.108,0,0,1,.829.486,1.479,1.479,0,0,1-.084,1.243c-.1.28-.215.6-.112.7a5.844,5.844,0,0,0,2.527.259,11.778,11.778,0,0,1,1.7.052,1.4,1.4,0,0,1,1.164,1.085c.123.331.2.523.449.631a2.785,2.785,0,0,0,1.6-.121,3.655,3.655,0,0,1,1.2-.18c.574.062.985.711,1.347,1.283a2.8,2.8,0,0,0,.519.688,6.616,6.616,0,0,0,2.1-1.334.325.325,0,0,1,.365-.033,8.165,8.165,0,0,0,2.523.983h.01c.314,0,.662-1.041.764-1.966a.327.327,0,0,1,.311-.29c.029,0,2.892-.118,3.49-.217a1.034,1.034,0,0,0-.209-.44.326.326,0,0,1-.036-.324.325.325,0,0,1,.262-.193c.014,0,1.384-.151,2.766-.351.128-.019.218-.057.231-.1.078-.233-.422-.966-.92-1.466a.326.326,0,0,1-.058-.382.327.327,0,0,1,.347-.169c.034.006,3.321.6,4.929-.33a1.276,1.276,0,0,0,.716-.857,1.563,1.563,0,0,0-.39-1.1.326.326,0,0,1-.055-.354.33.33,0,0,1,.3-.19,3.245,3.245,0,0,0,2.211-.974.326.326,0,0,1,.46-.02.325.325,0,0,1,.02.459,4.023,4.023,0,0,1-2.12,1.145,1.865,1.865,0,0,1,.214,1.131,1.887,1.887,0,0,1-1.035,1.321,8.322,8.322,0,0,1-4.5.525,1.823,1.823,0,0,1,.5,1.462.833.833,0,0,1-.756.536c-.89.13-1.777.237-2.3.3a.869.869,0,0,1,.039.636.616.616,0,0,1-.508.371c-.533.088-2.555.182-3.3.213-.109.711-.45,2.255-1.366,2.267a7.419,7.419,0,0,1-2.664-.96A5.4,5.4,0,0,1,450.81-840.158Z" transform="translate(-432.956 850.983)"/></g><g transform="translate(85.784 22.802)"><path class="f" d="M670.5-715.218a.319.319,0,0,1-.142-.033.326.326,0,0,1-.154-.435,7.9,7.9,0,0,0,.505-1.279l-.126-.022a1.5,1.5,0,0,1-1.045-.519,1.1,1.1,0,0,1-.038-1.206,1.055,1.055,0,0,0,.129-.517c-.018-.146-.267-.3-.486-.432-.322-.2-.721-.442-.739-.885a1.232,1.232,0,0,1,.271-.814.563.563,0,0,0,.143-.324c0-.083-.02-.11-.133-.212a.756.756,0,0,1-.306-.664,1.041,1.041,0,0,1,.4-.62,1.118,1.118,0,0,0,.479-1.021c-.075-.654-.729-1.156-1.121-1.455a1.791,1.791,0,0,1-.357-.317c-.177-.248-.072-.641.166-1.437a5.933,5.933,0,0,0,.254-1.058c0-.122-.181-.317-.36-.507a2.346,2.346,0,0,1-.818-1.637c0-.854.647-.944,1-1,.384-.054.474-.078.49-.38.044-.888-.968-1.218-1.011-1.231a.327.327,0,0,1-.226-.273.326.326,0,0,1,.157-.318,4.775,4.775,0,0,0,1.212-2.094.325.325,0,0,1,.41-.209h0a.326.326,0,0,1,.208.41,7.006,7.006,0,0,1-1.077,2.084,1.833,1.833,0,0,1,.977,1.662c-.043.851-.7.942-1.05.992-.387.055-.437.072-.436.345a1.735,1.735,0,0,0,.638,1.2,1.419,1.419,0,0,1,.539.983,6.011,6.011,0,0,1-.282,1.216,6.363,6.363,0,0,0-.227.9c.045.038.124.1.192.15a3.054,3.054,0,0,1,1.371,1.895,1.732,1.732,0,0,1-.68,1.571,1.188,1.188,0,0,0-.205.221c0,.011,0,.018.1.107a.875.875,0,0,1,.346.714,1.175,1.175,0,0,1-.258.675.6.6,0,0,0-.156.416c0,.1.249.247.428.356.327.2.735.45.791.907a1.625,1.625,0,0,1-.173.849c-.134.318-.156.415-.046.559a.91.91,0,0,0,.629.269c.242.039.607.1.678.457a4.4,4.4,0,0,1-.571,1.77A.327.327,0,0,1,670.5-715.218Z" transform="translate(-667.028 736.13)"/></g><g transform="translate(80.156 27.098)"><g transform="translate(0 0)"><ellipse class="f" cx="1.549" cy="0.658" rx="1.549" ry="0.658" transform="matrix(0.193, -0.981, 0.981, 0.193, 0, 3.039)"/></g></g><g transform="translate(72.202 25.819)"><g transform="translate(0 0)"><ellipse class="f" cx="1.549" cy="0.658" rx="1.549" ry="0.658" transform="matrix(0.193, -0.981, 0.981, 0.193, 0, 3.039)"/></g></g><g transform="translate(76.439 31.745)"><path class="f" d="M548.728-620.076a1.743,1.743,0,0,1-.333-.034,1.372,1.372,0,0,1-1.067-1.075.325.325,0,0,1,.263-.377h0a.326.326,0,0,1,.377.263.712.712,0,0,0,.552.549c.424.085.562-.094.576-.115a.331.331,0,0,1,.446-.1.318.318,0,0,1,.114.43A1.047,1.047,0,0,1,548.728-620.076Z" transform="translate(-547.323 621.567)"/></g><g transform="translate(74.632 31.605)"><g transform="translate(0)"><path class="f" d="M525.456-622.1a1.427,1.427,0,0,1-.274-.027,1.14,1.14,0,0,1-1.008-.869.326.326,0,0,1,.282-.364.33.33,0,0,1,.363.271c.007.031.073.24.49.322a.714.714,0,0,0,.721-.3.328.328,0,0,1,.45-.1.325.325,0,0,1,.1.446A1.4,1.4,0,0,1,525.456-622.1Z" transform="translate(-524.171 623.358)"/></g></g><g transform="translate(33.077 24.116)"><g transform="translate(0)"><path class="z" d="M1.415-710.336c-7.776,6.854-7.327,29.507,15.211,29.316,23.086-.658,21.71-21.438,16.606-28.219a12.236,12.236,0,0,0-13.778-4.434c-1.43.506-4.928-.031-4.928-.031S7.188-715.4,1.415-710.336Z" transform="translate(3.528 714.675)"/><path class="aa" d="M11.738-685.247a22.287,22.287,0,0,1-12.316-3.2,16.193,16.193,0,0,1-6.328-7.867,19.664,19.664,0,0,1-.862-10.637,14.743,14.743,0,0,1,4.321-8.3h0A15.412,15.412,0,0,1,5.5-718.925a16.159,16.159,0,0,1,4.5.219c.958.146,3.634.433,4.725.047a13.167,13.167,0,0,1,5.689-.535,12.3,12.3,0,0,1,8.531,5.1,17.882,17.882,0,0,1,3.036,8.473,19.479,19.479,0,0,1-1.61,10.586c-2.062,4.284-6.916,9.46-18.332,9.785h-.295ZM-2.931-714.662h0A14.165,14.165,0,0,0-7-706.8a18.873,18.873,0,0,0,.825,10.209c1.515,3.958,5.853,10.563,17.912,10.563h.279c11.021-.315,15.68-5.255,17.647-9.343,2.985-6.2,1.625-14.3-1.346-18.251a11.547,11.547,0,0,0-8-4.8,12.543,12.543,0,0,0-5.333.5c-1.505.533-4.97.009-5.117-.013l-.028-.005a15.6,15.6,0,0,0-4.3-.2A14.634,14.634,0,0,0-2.931-714.662Z" transform="translate(8.133 719.293)"/></g><g transform="translate(5.674 0.9)"><path class="aa" d="M67.737-677.076a.39.39,0,0,1-.37-.265,63.967,63.967,0,0,1-2.8-15.646,21.749,21.749,0,0,1,2.323-10.541,20.3,20.3,0,0,1,2.624-4.1.39.39,0,0,1,.551-.034.39.39,0,0,1,.034.551h0a19.96,19.96,0,0,0-2.522,3.954,20.964,20.964,0,0,0-2.231,10.135,63.074,63.074,0,0,0,2.762,15.43.39.39,0,0,1-.244.495A.389.389,0,0,1,67.737-677.076Z" transform="translate(-64.545 707.76)"/></g><g transform="translate(13.902 0.683)"><path class="aa" d="M171.759-677.612a.39.39,0,0,1-.38-.3c-.036-.152-.874-3.852-1.38-15.1a42.6,42.6,0,0,1,1.238-12.932,19.76,19.76,0,0,1,1.646-4.4.39.39,0,0,1,.533-.142.39.39,0,0,1,.142.533h0a19.545,19.545,0,0,0-1.578,4.248,41.868,41.868,0,0,0-1.2,12.655c.5,11.154,1.352,14.925,1.36,14.962a.39.39,0,0,1-.292.469A.389.389,0,0,1,171.759-677.612Z" transform="translate(-169.947 710.542)"/></g><g transform="translate(23.724 0.264)"><path class="aa" d="M296.153-682.564a.4.4,0,0,1-.1-.012.39.39,0,0,1-.282-.475,162.6,162.6,0,0,0,2.791-16.375,33.358,33.358,0,0,0-.311-12.138,12.359,12.359,0,0,0-1.422-3.739.391.391,0,0,1,.1-.542.39.39,0,0,1,.542.1,12.694,12.694,0,0,1,1.524,3.94,34.032,34.032,0,0,1,.341,12.484,163.2,163.2,0,0,1-2.808,16.465A.391.391,0,0,1,296.153-682.564Z" transform="translate(-295.762 715.915)"/></g><g transform="translate(31.201 1.046)"><path class="aa" d="M392.489-675.957a.389.389,0,0,1-.141-.027.391.391,0,0,1-.223-.505c.034-.087,3.366-8.761,3.146-16.411a23.746,23.746,0,0,0-3.648-12.371.39.39,0,0,1,.084-.545.39.39,0,0,1,.545.084,17.864,17.864,0,0,1,1.823,3.443,26.562,26.562,0,0,1,1.976,9.367c.225,7.81-3.164,16.628-3.2,16.716A.39.39,0,0,1,392.489-675.957Z" transform="translate(-391.547 705.891)"/></g><g transform="translate(7.144 8.216)"><path class="aa" d="M84.88-605.722l8.884-.462-4.517-6.365Z" transform="translate(-84.763 612.666)"/><path class="aa" d="M83.5-606.987a.117.117,0,0,1-.1-.058.117.117,0,0,1,0-.122L87.766-614a.117.117,0,0,1,.1-.054.115.115,0,0,1,.1.049l4.517,6.365a.117.117,0,0,1,.01.119.117.117,0,0,1-.1.066l-8.884.462Zm4.372-6.735-4.151,6.489,8.444-.439Z" transform="translate(-83.38 614.049)"/></g><g transform="translate(25.102 7.182)"><path class="aa" d="M314.914-618.859l8.251-.5-4.457-6.431-3.679,6.67" transform="translate(-314.796 625.904)"/><path class="aa" d="M313.53-620.125a.117.117,0,0,1-.117-.11.117.117,0,0,1,.11-.124l8.043-.484-4.231-6.1-3.588,6.505a.117.117,0,0,1-.159.046.117.117,0,0,1-.046-.159l3.679-6.67a.117.117,0,0,1,.1-.06.116.116,0,0,1,.1.05l4.457,6.431a.117.117,0,0,1,.009.118.117.117,0,0,1-.1.066l-8.251.5Z" transform="translate(-313.413 627.288)"/></g><g transform="translate(6.851 19.793)"><path class="aa" d="M81.131-462.855a47.083,47.083,0,0,0,3.077,5.23l1.347-.945,1.841,1.622,1.84-1.219,2.417,1.786,1.992-2.047,3.053,1.884,2.45-1.689,1.575,1.319,2.68-2.2,1.495.943,2.948-6.069-2.5,1.944-.7-1.421-2.516,1.629-1.337-1.645-2.831,1.643-3.85-1.343L91.473-461.8l-2.518-1.213-1.576,1.46-1.844-1.686-1.895,1.411Z" transform="translate(-81.014 464.361)"/><path class="aa" d="M90.271-457.646a.117.117,0,0,1-.07-.023l-2.351-1.737-1.772,1.174a.117.117,0,0,1-.142-.01L84.164-459.8l-1.272.892a.117.117,0,0,1-.153-.016,45.983,45.983,0,0,1-3.1-5.256.117.117,0,0,1,.017-.133.117.117,0,0,1,.131-.029l2.448,1,1.841-1.372a.117.117,0,0,1,.149.007L86-463.1l1.5-1.387a.117.117,0,0,1,.13-.02l2.46,1.185,2.588-1.6a.118.118,0,0,1,.1-.011l3.8,1.325,2.785-1.616a.117.117,0,0,1,.15.027l1.271,1.564L103.2-465.2a.117.117,0,0,1,.1-.015.117.117,0,0,1,.074.061l.632,1.292,2.388-1.856a.117.117,0,0,1,.146,0,.117.117,0,0,1,.032.142l-2.948,6.069a.117.117,0,0,1-.073.061.116.116,0,0,1-.095-.014l-1.423-.9-2.615,2.151a.117.117,0,0,1-.15,0l-1.507-1.261-2.377,1.638a.117.117,0,0,1-.128,0l-2.973-1.835-1.927,1.98A.117.117,0,0,1,90.271-457.646Zm-2.417-2.02a.117.117,0,0,1,.07.023l2.335,1.725,1.921-1.974a.117.117,0,0,1,.145-.018l2.988,1.844,2.387-1.646a.117.117,0,0,1,.142.007l1.5,1.256,2.6-2.143a.117.117,0,0,1,.137-.009l1.384.873,2.672-5.5-2.105,1.636a.117.117,0,0,1-.1.022.117.117,0,0,1-.079-.063l-.637-1.3-2.405,1.557a.117.117,0,0,1-.155-.025l-1.274-1.567-2.745,1.593a.117.117,0,0,1-.1.009l-3.8-1.324-2.595,1.605a.117.117,0,0,1-.112.006l-2.446-1.179-1.518,1.406a.117.117,0,0,1-.159,0l-1.773-1.62-1.817,1.354a.117.117,0,0,1-.114.015l-2.212-.9a45.3,45.3,0,0,0,2.842,4.844l1.261-.885a.117.117,0,0,1,.145.008l1.774,1.563,1.765-1.17A.117.117,0,0,1,87.854-459.667Z" transform="translate(-79.631 465.745)"/></g><g transform="translate(19.061 14.83)"><path class="aa" d="M238.8-527.824l-1.273,2.583,3.017-.325Z" transform="translate(-237.413 527.942)"/><path class="aa" d="M236.147-526.506a.117.117,0,0,1-.1-.05.117.117,0,0,1-.009-.119l1.273-2.583a.117.117,0,0,1,.093-.065.117.117,0,0,1,.1.045l1.743,2.258a.117.117,0,0,1,.015.117.117.117,0,0,1-.1.07l-3.017.325Zm1.3-2.48-1.1,2.224,2.6-.28Z" transform="translate(-236.03 529.324)"/></g></g><g transform="translate(75.767 32.285)"><g transform="translate(0)"><path class="f" d="M539.682-604.043a.976.976,0,0,1-.873-.537.977.977,0,0,1,.432-1.311l17.174-8.661a.977.977,0,0,1,1.312.433.977.977,0,0,1-.432,1.312l-17.175,8.66A.966.966,0,0,1,539.682-604.043Z" transform="translate(-538.705 614.658)"/></g></g><g transform="translate(75.691 38.83)"><path class="f" d="M539.882-525.411a.963.963,0,0,1-.358-.069.977.977,0,0,1-.55-1.267l.53-1.339-1.349-.946a.976.976,0,0,1-.239-1.36v0a.978.978,0,0,1,1.36-.238l1.979,1.389a.977.977,0,0,1,.348,1.159l-.812,2.055A.978.978,0,0,1,539.882-525.411Z" transform="translate(-537.737 530.809)"/></g></g><g transform="translate(-431.064 -1195.884)"><g transform="translate(0 13.402)"><path class="ab" d="M-379.507-1020.01c.38,2.367-2.436,6-18.018,8.561-15.89,2.611-18.966-.193-19.346-2.56s6.63-7.292,16.9-9.238C-382.945-1026.475-379.887-1022.377-379.507-1020.01Z" transform="translate(417.276 1024.835)"/><path class="aa" d="M-412.8-1014.694c-3.564,0-6.091-.528-7.554-1.582a3.524,3.524,0,0,1-1.506-2.349c-.453-2.822,7.122-7.771,17.21-9.683,9.451-1.791,15.834-1.583,18.972.62a4.416,4.416,0,0,1,1.953,2.938h0c.183,1.137-.226,2.859-3.211,4.607-3.019,1.767-8.109,3.248-15.129,4.4A68.242,68.242,0,0,1-412.8-1014.694Zm18.952-14.028a58.259,58.259,0,0,0-10.657,1.181,39.1,39.1,0,0,0-12.315,4.413c-3.137,1.858-4.4,3.538-4.269,4.379a2.736,2.736,0,0,0,1.192,1.84,10.522,10.522,0,0,0,5.39,1.4,59.461,59.461,0,0,0,12.316-1c6.925-1.138,11.925-2.586,14.861-4.3,2.061-1.206,3.041-2.524,2.835-3.809h0a3.655,3.655,0,0,0-1.63-2.423C-387.369-1027.92-389.651-1028.722-393.849-1028.722Z" transform="translate(421.881 1029.512)"/></g><g transform="translate(10.09 0)"><path class="ab" d="M-270.454-1177.588s-9.672-18.134-12.168-18.576-5.01,3.63-5.01,3.63,1.188,1.339,3.549.3c0,0-1.3,15.43-3.521,16.955C-287.6-1175.283-278.387-1173.417-270.454-1177.588Z" transform="translate(288.022 1196.588)"/><path class="aa" d="M-287.16-1179.084a28.219,28.219,0,0,1-5.131-.424.39.39,0,0,1-.3-.3.39.39,0,0,1,.162-.4c.375-.258,1.364-1.629,2.429-8.782.454-3.047.752-6.017.869-7.267a3.188,3.188,0,0,1-3.4-.621.391.391,0,0,1-.04-.464c.108-.175,2.686-4.291,5.41-3.809.472.084,1.264.528,3.2,3.246,1.119,1.568,2.493,3.718,4.083,6.392,2.7,4.544,5.133,9.093,5.157,9.138a.39.39,0,0,1,.029.3.39.39,0,0,1-.191.231,26.572,26.572,0,0,1-11.725,2.761Q-286.889-1179.084-287.16-1179.084Zm-4.293-1.077a30.836,30.836,0,0,0,4.854.291,26.021,26.021,0,0,0,11-2.492c-.62-1.15-2.69-4.957-4.953-8.759-1.579-2.655-2.941-4.786-4.047-6.336-1.808-2.533-2.493-2.893-2.7-2.931-1.849-.327-3.822,2.294-4.425,3.171a2.859,2.859,0,0,0,2.874.013.39.39,0,0,1,.384.039.39.39,0,0,1,.162.35c0,.039-.333,3.916-.93,7.93a56.967,56.967,0,0,1-1.115,5.8A10.594,10.594,0,0,1-291.454-1180.161Z" transform="translate(292.632 1201.194)"/></g><g transform="translate(10.118 16.819)"><path class="ac" d="M-270.127-978.955s-1.283,2.111-8.346,2.8-8.8-.5-8.8-.5l.9-1.771a29.548,29.548,0,0,0,8.827-.364,33.658,33.658,0,0,0,6.387-1.959Z" transform="translate(287.667 981.135)"/><path class="aa" d="M-287.061-980.158c-3.85,0-4.988-.741-5.047-.781a.39.39,0,0,1-.128-.5l.9-1.771a.389.389,0,0,1,.4-.21,29.383,29.383,0,0,0,8.694-.358,33.772,33.772,0,0,0,6.306-1.931.391.391,0,0,1,.5.158l1.035,1.79a.39.39,0,0,1,0,.4c-.057.093-1.466,2.286-8.642,2.989C-284.632-980.219-285.958-980.158-287.061-980.158Zm-4.294-1.29c.753.27,3.007.809,8.233.3,5.548-.544,7.425-1.975,7.909-2.457l-.723-1.25a37.45,37.45,0,0,1-6.139,1.843,29.446,29.446,0,0,1-8.687.4Z" transform="translate(292.278 985.746)"/></g></g><g transform="translate(-360.833 -1197.466)"><g transform="translate(0 13.403)"><path class="ab" d="M482.79-972.248c-.38,2.367,2.436,6,18.018,8.561,15.89,2.611,18.966-.193,19.346-2.56s-6.63-7.291-16.9-9.238C486.227-978.713,483.17-974.615,482.79-972.248Z" transform="translate(-482.367 977.072)"/><path class="aa" d="M506.871-966.931a68.211,68.211,0,0,1-10.734-1.048c-7.02-1.153-12.11-2.634-15.129-4.4-2.985-1.747-3.394-3.47-3.211-4.607a4.417,4.417,0,0,1,1.953-2.938c3.138-2.2,9.521-2.412,18.972-.62,10.088,1.912,17.663,6.861,17.21,9.683a3.525,3.525,0,0,1-1.506,2.349C512.961-967.459,510.434-966.931,506.871-966.931Zm-18.952-14.028c-4.2,0-6.481.8-7.721,1.673a3.656,3.656,0,0,0-1.63,2.423c-.206,1.286.774,2.6,2.835,3.809,2.936,1.719,7.936,3.167,14.861,4.3a59.438,59.438,0,0,0,12.316,1,10.519,10.519,0,0,0,5.39-1.4,2.736,2.736,0,0,0,1.192-1.84c.135-.841-1.133-2.521-4.27-4.379a39.089,39.089,0,0,0-12.315-4.413A58.263,58.263,0,0,0,487.918-980.959Z" transform="translate(-477.76 981.75)"/></g><g transform="translate(10.143 0)"><path class="ab" d="M612.683-1129.826s9.672-18.134,12.168-18.576,5.01,3.63,5.01,3.63-1.188,1.339-3.549.3c0,0,1.3,15.43,3.521,16.955C629.833-1127.521,620.616-1125.655,612.683-1129.826Z" transform="translate(-612.293 1148.826)"/><path class="aa" d="M620.169-1131.322q-.271,0-.553,0a26.568,26.568,0,0,1-11.725-2.761.39.39,0,0,1-.191-.231.391.391,0,0,1,.029-.3c.024-.045,2.454-4.594,5.157-9.138,1.591-2.674,2.965-4.824,4.083-6.392,1.94-2.718,2.731-3.163,3.2-3.246,2.725-.482,5.3,3.634,5.41,3.809a.39.39,0,0,1-.04.464,3.188,3.188,0,0,1-3.4.622c.117,1.25.415,4.219.869,7.266,1.065,7.153,2.053,8.524,2.429,8.782a.39.39,0,0,1,.162.4.391.391,0,0,1-.305.3A28.223,28.223,0,0,1,620.169-1131.322Zm-11.564-3.277a26.021,26.021,0,0,0,11,2.491,30.852,30.852,0,0,0,4.853-.291,10.6,10.6,0,0,1-1.1-2.924,56.972,56.972,0,0,1-1.115-5.8c-.6-4.014-.927-7.892-.93-7.93a.391.391,0,0,1,.162-.351.39.39,0,0,1,.384-.039,2.859,2.859,0,0,0,2.874-.013c-.6-.877-2.574-3.5-4.425-3.171-.211.038-.9.4-2.7,2.931-1.107,1.55-2.468,3.682-4.048,6.337C611.295-1139.553,609.225-1135.748,608.605-1134.6Z" transform="translate(-607.683 1153.432)"/></g><g transform="translate(10.143 16.819)"><path class="ac" d="M612.683-931.193s1.283,2.111,8.346,2.8,8.8-.5,8.8-.5l-.9-1.771a29.546,29.546,0,0,1-8.827-.364,33.654,33.654,0,0,1-6.387-1.959Z" transform="translate(-612.293 933.373)"/><path class="aa" d="M620.4-932.4c-1.1,0-2.428-.061-4.015-.216-7.175-.7-8.585-2.9-8.642-2.989a.391.391,0,0,1,0-.4l1.036-1.79a.39.39,0,0,1,.5-.158,33.787,33.787,0,0,0,6.306,1.931,29.385,29.385,0,0,0,8.693.358.391.391,0,0,1,.4.21l.9,1.771a.39.39,0,0,1-.128.5C625.384-933.137,624.245-932.4,620.4-932.4Zm-11.847-3.451c.49.487,2.37,1.915,7.908,2.458,5.231.513,7.481-.025,8.233-.3l-.593-1.167a29.44,29.44,0,0,1-8.687-.4,37.479,37.479,0,0,1-6.139-1.843Zm-.476.043h0Z" transform="translate(-607.682 937.984)"/></g></g></g></g></svg>