<svg xmlns="http://www.w3.org/2000/svg" width="229.072" height="140" viewBox="0 0 229.072 140"><defs><style>.a{fill:#e85c17;}.b{fill:#030504;}.c{fill:#ffa400;}.d{fill:#0f1112;}.e{fill:#0b0c0d;}.f{fill:#260d20;}.g{fill:#e12741;}.h{fill:#191d21;}.i{fill:#0c0d0d;}.j{fill:#fff;}.k{fill:#ee5116;}.l{fill:#f46e14;}.m{fill:#a1b225;}.n{fill:#7c8828;}.o{fill:#596023;}.p{fill:#c9c9c9;}.q{fill:#68338a;}.r{fill:#3c092e;}.s{fill:#6247a9;fill-rule:evenodd;}.t,.u{fill:#aba0ec;}.u{opacity:0.5;}</style></defs><g transform="translate(16.495 2.024)"><g transform="translate(128.487 91.967)"><g transform="translate(0 6.895)"><path class="a" d="M5000.767-943.2c-7.723,6.807-7.276,29.3,15.106,29.113,22.925-.654,21.559-21.289,16.491-28.023a12.152,12.152,0,0,0-13.683-4.4c-1.42.5-4.894-.031-4.894-.031S5006.5-948.228,5000.767-943.2Z" transform="translate(-4995.905 947.444)"/><path class="b" d="M5014.433-914.849c-12.417,0-16.9-6.851-18.472-10.957a19.474,19.474,0,0,1-.853-10.536,14.583,14.583,0,0,1,4.274-8.214h0c5.672-4.972,12.929-3.5,13.305-3.423.206.03,3.432.5,4.719.045a12.61,12.61,0,0,1,14.066,4.519c3.079,4.09,4.493,12.47,1.411,18.876-2.042,4.242-6.851,9.367-18.163,9.69Zm-14.6-29.2c-4.174,3.68-5.625,11.754-3.235,18,1.509,3.943,5.829,10.52,17.833,10.521h.282c10.965-.313,15.6-5.233,17.564-9.306,2.973-6.176,1.618-14.243-1.341-18.174a11.92,11.92,0,0,0-13.3-4.287c-1.483.525-4.913.006-5.058-.016l-.025,0C5012.481-947.332,5005.36-948.891,4999.831-944.047Z" transform="translate(-4994.746 948.543)"/><g transform="translate(5.635 0.875)"><path class="b" d="M5022.8-914.3a.339.339,0,0,1-.321-.23,63.445,63.445,0,0,1-2.78-15.523,22.394,22.394,0,0,1,4.9-14.505.338.338,0,0,1,.478-.03.339.339,0,0,1,.03.479,21.69,21.69,0,0,0-4.731,14.026,62.691,62.691,0,0,0,2.746,15.336.34.34,0,0,1-.213.43A.337.337,0,0,1,5022.8-914.3Z" transform="translate(-5019.676 944.671)"/></g><g transform="translate(13.804 0.659)"><path class="b" d="M5057.572-913.021a.34.34,0,0,1-.33-.262c-.035-.151-.867-3.821-1.368-14.99-.505-11.237,2.719-16.945,2.856-17.183a.339.339,0,0,1,.463-.124.34.34,0,0,1,.124.463c-.033.057-3.261,5.795-2.766,16.813.5,11.107,1.343,14.831,1.352,14.867a.339.339,0,0,1-.253.407A.34.34,0,0,1,5057.572-913.021Z" transform="translate(-5055.82 945.626)"/></g><g transform="translate(23.559 0.243)"><path class="b" d="M5099.318-914.446a.345.345,0,0,1-.084-.011.339.339,0,0,1-.244-.412,161.522,161.522,0,0,0,2.772-16.267c1.46-11-1.7-15.755-1.73-15.8a.34.34,0,0,1,.087-.471.339.339,0,0,1,.471.086c.138.2,3.344,4.982,1.844,16.276a162.375,162.375,0,0,1-2.787,16.345A.34.34,0,0,1,5099.318-914.446Z" transform="translate(-5098.979 947.468)"/></g><g transform="translate(30.985 1.02)"><path class="b" d="M5132.719-914.4a.341.341,0,0,1-.123-.023.339.339,0,0,1-.194-.439c.034-.086,3.346-8.709,3.127-16.316a23.626,23.626,0,0,0-3.633-12.313.34.34,0,0,1,.074-.474.34.34,0,0,1,.474.073,23.846,23.846,0,0,1,3.762,12.694c.224,7.746-3.138,16.493-3.172,16.581A.339.339,0,0,1,5132.719-914.4Z" transform="translate(-5131.833 944.03)"/></g><g transform="translate(6.823 7.869)"><path class="b" d="M5026.434-905.45l8.823-.459-4.486-6.321Z" transform="translate(-5026.095 912.569)"/><path class="b" d="M5025.273-906.272a.34.34,0,0,1-.293-.169.339.339,0,0,1,.007-.353l4.337-6.78a.338.338,0,0,1,.278-.156.339.339,0,0,1,.285.143l4.485,6.321a.338.338,0,0,1,.029.344.338.338,0,0,1-.287.191l-8.823.459Zm4.351-6.513-3.71,5.8,7.548-.393Z" transform="translate(-5024.934 913.73)"/></g><g transform="translate(24.656 6.842)"><path class="b" d="M5105.333-909.89l8.195-.493-4.426-6.387-3.654,6.624" transform="translate(-5104.994 917.11)"/><path class="b" d="M5104.172-910.713a.338.338,0,0,1-.337-.319.338.338,0,0,1,.112-.274.34.34,0,0,1,.042-.166l3.654-6.624a.339.339,0,0,1,.28-.175.334.334,0,0,1,.295.146l4.426,6.387a.339.339,0,0,1,.027.342.339.339,0,0,1-.285.19l-8.193.493Zm3.8-6.577-3.234,5.864,7.006-.422Z" transform="translate(-5103.834 918.271)"/></g><g transform="translate(6.533 19.366)"><path class="b" d="M5025.148-859.983a46.754,46.754,0,0,0,3.056,5.194l1.337-.938,1.829,1.611,1.827-1.211,2.4,1.774,1.978-2.033,3.032,1.871,2.434-1.677,1.564,1.31,2.661-2.189,1.485.937,2.927-6.027-2.484,1.93-.691-1.411-2.5,1.617-1.328-1.634-2.812,1.631-3.823-1.334-2.624,1.623-2.5-1.2-1.565,1.45-1.832-1.674-1.882,1.4Z" transform="translate(-5024.809 861.702)"/><path class="b" d="M5034.436-854.376a.339.339,0,0,1-.2-.066l-2.209-1.633-1.629,1.08a.339.339,0,0,1-.411-.028l-1.628-1.435-1.119.785a.339.339,0,0,1-.442-.045,45.664,45.664,0,0,1-3.109-5.269.339.339,0,0,1,.05-.385.338.338,0,0,1,.378-.085l2.314.944,1.728-1.287a.34.34,0,0,1,.432.021l1.6,1.464,1.337-1.238a.339.339,0,0,1,.377-.057l2.333,1.124,2.466-1.525a.341.341,0,0,1,.29-.032l3.676,1.282,2.677-1.553a.339.339,0,0,1,.434.079l1.135,1.4,2.244-1.452a.338.338,0,0,1,.275-.042.339.339,0,0,1,.214.178l.507,1.037,2.155-1.675a.34.34,0,0,1,.422,0,.339.339,0,0,1,.091.411l-2.928,6.027a.338.338,0,0,1-.212.178.338.338,0,0,1-.274-.039l-1.277-.806-2.472,2.034a.339.339,0,0,1-.433,0l-1.366-1.144-2.221,1.531a.34.34,0,0,1-.371.009l-2.8-1.728-1.789,1.838A.339.339,0,0,1,5034.436-854.376Zm-2.4-2.452a.338.338,0,0,1,.2.066l2.162,1.6,1.773-1.821a.339.339,0,0,1,.421-.052l2.843,1.754,2.251-1.552a.339.339,0,0,1,.41.019l1.348,1.129,2.444-2.01a.34.34,0,0,1,.4-.025l1.163.735,2.127-4.378-1.336,1.038a.337.337,0,0,1-.284.063.339.339,0,0,1-.228-.181l-.523-1.068-2.177,1.41a.34.34,0,0,1-.448-.071l-1.145-1.409-2.561,1.486a.34.34,0,0,1-.282.027l-3.67-1.28-2.487,1.538a.339.339,0,0,1-.325.017l-2.292-1.1-1.4,1.293a.339.339,0,0,1-.459,0l-1.625-1.485-1.657,1.234a.338.338,0,0,1-.331.042l-1.627-.664a44.849,44.849,0,0,0,2.382,4.069l1.081-.758a.339.339,0,0,1,.419.023l1.633,1.44,1.61-1.067A.34.34,0,0,1,5032.036-856.828Z" transform="translate(-5023.648 862.863)"/></g><g transform="translate(18.657 14.437)"><path class="b" d="M5080.056-883.17l-1.265,2.565,3-.323Z" transform="translate(-5078.453 883.51)"/><path class="b" d="M5077.63-881.427a.338.338,0,0,1-.277-.145.339.339,0,0,1-.026-.344l1.264-2.565a.341.341,0,0,1,.27-.188.339.339,0,0,1,.3.13l1.731,2.243a.337.337,0,0,1,.043.34.34.34,0,0,1-.276.2l-3,.323Zm1.329-2.267-.751,1.525,1.781-.192Z" transform="translate(-5077.292 884.671)"/></g></g><g transform="translate(32.726)"><path class="a" d="M5146.884-972.471c-9.989,8.8-9.413,37.9,19.539,37.658,29.654-.845,27.888-27.538,21.332-36.249a15.718,15.718,0,0,0-17.7-5.7c-1.837.65-6.33-.04-6.33-.04S5154.3-978.97,5146.884-972.471Z" transform="translate(-5140.696 977.882)"/><path class="b" d="M5164.9-935.638c-16,0-21.775-8.821-23.8-14.108a25.1,25.1,0,0,1-1.1-13.575,18.779,18.779,0,0,1,5.5-10.569h0c7.326-6.42,16.7-4.5,17.128-4.4.24.036,4.461.654,6.155.054a16.738,16.738,0,0,1,7.234-.68,15.647,15.647,0,0,1,10.849,6.491c3.965,5.268,5.786,16.061,1.814,24.314-2.629,5.463-8.824,12.062-23.407,12.478Zm-18.953-37.743c-5.427,4.785-7.317,15.279-4.212,23.393,1.96,5.124,7.574,13.672,23.16,13.673l.365,0c14.235-.405,20.261-6.8,22.809-12.094,3.861-8.023,2.1-18.5-1.747-23.612-6.88-9.141-16.891-5.729-17.313-5.58-1.9.671-6.309,0-6.5-.025l-.024,0c-.094-.021-9.35-2.053-16.543,4.251Z" transform="translate(-5139.537 979.047)"/><g transform="translate(7.288 1.157)"><path class="b" d="M5175.72-934.839a.339.339,0,0,1-.321-.23,81.967,81.967,0,0,1-3.591-20.053,28.861,28.861,0,0,1,6.314-18.692.339.339,0,0,1,.479-.03.339.339,0,0,1,.03.479,28.145,28.145,0,0,0-6.145,18.213,81.284,81.284,0,0,0,3.556,19.866.339.339,0,0,1-.212.43A.349.349,0,0,1,5175.72-934.839Z" transform="translate(-5171.783 973.928)"/></g><g transform="translate(17.858 0.878)"><path class="b" d="M5220.71-933.188a.34.34,0,0,1-.33-.262c-.045-.195-1.12-4.933-1.768-19.372-.651-14.505,3.639-22.1,3.682-22.172a.339.339,0,0,1,.463-.124.339.339,0,0,1,.124.463c-.042.073-4.233,7.515-3.592,21.8.645,14.353,1.741,19.2,1.752,19.249a.339.339,0,0,1-.254.407A.333.333,0,0,1,5220.71-933.188Z" transform="translate(-5218.545 975.164)"/></g><g transform="translate(30.475 0.339)"><path class="b" d="M5274.7-935.031a.32.32,0,0,1-.084-.011.339.339,0,0,1-.245-.412,208.8,208.8,0,0,0,3.588-21.053c1.9-14.278-2.212-20.448-2.253-20.509a.339.339,0,0,1,.087-.471.338.338,0,0,1,.471.086c.177.255,4.3,6.412,2.369,20.984a209.4,209.4,0,0,1-3.6,21.132A.34.34,0,0,1,5274.7-935.031Z" transform="translate(-5274.365 977.548)"/></g><g transform="translate(40.08 1.344)"><path class="b" d="M5317.908-934.972a.332.332,0,0,1-.122-.023.339.339,0,0,1-.194-.439c.043-.112,4.335-11.283,4.051-21.144a30.662,30.662,0,0,0-4.717-15.982.34.34,0,0,1,.073-.474.339.339,0,0,1,.474.073,31.337,31.337,0,0,1,4.848,16.364c.288,10-4.053,21.3-4.1,21.409A.34.34,0,0,1,5317.908-934.972Z" transform="translate(-5316.861 973.1)"/></g><g transform="translate(8.826 10.203)"><path class="b" d="M5180.086-923.636l11.412-.594-5.8-8.177Z" transform="translate(-5179.747 932.745)"/><path class="b" d="M5178.923-924.458a.34.34,0,0,1-.292-.168.338.338,0,0,1,.008-.353l5.609-8.77a.337.337,0,0,1,.277-.156.333.333,0,0,1,.285.143l5.8,8.177a.34.34,0,0,1,.028.344.339.339,0,0,1-.288.191l-11.413.594Zm5.625-8.5-4.983,7.791,10.138-.527Z" transform="translate(-5178.585 933.906)"/></g><g transform="translate(31.894 8.876)"><path class="b" d="M5282.143-929.38l10.6-.638-5.726-8.261-4.726,8.568" transform="translate(-5281.804 938.618)"/><path class="b" d="M5280.982-930.2a.34.34,0,0,1-.338-.319.34.34,0,0,1,.15-.3.342.342,0,0,1,.039-.213l4.727-8.568a.339.339,0,0,1,.28-.175.337.337,0,0,1,.3.145l5.725,8.261a.341.341,0,0,1,.027.341.34.34,0,0,1-.285.19l-10.6.638Zm4.907-8.6-4.349,7.884,9.419-.567Z" transform="translate(-5280.643 939.779)"/></g><g transform="translate(8.45 25.075)"><path class="b" d="M5178.422-864.824s2.93,5.628,3.953,6.718l1.73-1.214,2.365,2.084,2.363-1.567,3.105,2.294,2.558-2.63,3.922,2.42,3.147-2.169,2.023,1.694,3.442-2.832,1.92,1.212,3.787-7.8-3.214,2.5-.893-1.826-3.232,2.092-1.717-2.113-3.638,2.11-4.945-1.725-3.4,2.1-3.233-1.558-2.025,1.876-2.369-2.165-2.433,1.813Z" transform="translate(-5178.083 866.948)"/><path class="b" d="M5190.777-857.329a.341.341,0,0,1-.2-.066l-2.914-2.153-2.166,1.435a.339.339,0,0,1-.412-.028l-2.165-1.908-1.512,1.06a.34.34,0,0,1-.442-.045c-1.042-1.111-3.885-6.562-4.005-6.794a.338.338,0,0,1,.05-.385.339.339,0,0,1,.378-.085l3.045,1.243,2.281-1.7a.339.339,0,0,1,.431.021l2.139,1.955,1.8-1.664a.339.339,0,0,1,.377-.057l3.066,1.478,3.237-2a.339.339,0,0,1,.29-.032l4.8,1.674,3.5-2.032a.339.339,0,0,1,.433.079l1.525,1.877,2.977-1.927a.338.338,0,0,1,.275-.042.339.339,0,0,1,.214.178l.709,1.451,2.885-2.241a.339.339,0,0,1,.421,0,.339.339,0,0,1,.092.411l-3.788,7.8a.338.338,0,0,1-.212.178.34.34,0,0,1-.274-.039l-1.713-1.081-3.253,2.676a.337.337,0,0,1-.432,0l-1.826-1.528-2.936,2.023a.34.34,0,0,1-.371.009l-3.69-2.277-2.369,2.435A.339.339,0,0,1,5190.777-857.329Zm-3.1-2.972a.337.337,0,0,1,.2.067l2.867,2.118,2.352-2.418a.339.339,0,0,1,.421-.052l3.733,2.3,2.965-2.044a.339.339,0,0,1,.41.019l1.808,1.513,3.225-2.653a.34.34,0,0,1,.4-.025l1.6,1.01,2.986-6.148L5208.573-865a.339.339,0,0,1-.285.062.338.338,0,0,1-.227-.181l-.726-1.482-2.911,1.884a.339.339,0,0,1-.448-.071l-1.535-1.889-3.387,1.965a.337.337,0,0,1-.282.027l-4.792-1.672-3.257,2.015a.339.339,0,0,1-.326.017l-3.026-1.458-1.855,1.719a.339.339,0,0,1-.459,0l-2.162-1.976-2.209,1.646a.34.34,0,0,1-.331.042l-2.359-.963a57.7,57.7,0,0,0,3.276,5.6l1.477-1.035a.339.339,0,0,1,.419.023l2.17,1.913,2.146-1.423A.34.34,0,0,1,5187.672-860.3Z" transform="translate(-5176.922 868.109)"/></g><g transform="translate(24.134 18.699)"><path class="b" d="M5249.447-894.817l-1.636,3.318,3.875-.417Z" transform="translate(-5247.472 895.156)"/><path class="b" d="M5246.65-892.32a.339.339,0,0,1-.278-.145.34.34,0,0,1-.026-.344l1.636-3.319a.339.339,0,0,1,.27-.188.341.341,0,0,1,.3.13l2.24,2.9a.34.34,0,0,1,.043.34.34.34,0,0,1-.276.2l-3.875.417Zm1.7-3.02-1.124,2.278,2.661-.287Z" transform="translate(-5246.311 896.317)"/></g></g></g><g transform="translate(0 62.706)"><g transform="translate(0 0)"><path class="b" d="M4428.952-1095.492s8.158,1.187,15.426-2.373,13.943-10.086,13.943-10.086,4.6-.89,10.68,7.12a9.652,9.652,0,0,0-8.9,8.306s-8.6-2.67-8.6,8.751c0,0-7.565-7.416-12.459-.3,0,0-7.862-3.263-11.718,1.483C4427.32-1082.588,4425.244-1088.372,4428.952-1095.492Z" transform="translate(-4426.638 1108.099)"/><path class="b" d="M4426.969-1082.879l-.019,0a.114.114,0,0,1-.088-.073c-.021-.058-2.05-5.913,1.638-12.995a.11.11,0,0,1,.117-.06c.081.012,8.208,1.14,15.36-2.363,7.168-3.51,13.846-10,13.913-10.066a.113.113,0,0,1,.058-.03c.191-.037,4.737-.812,10.792,7.162a.114.114,0,0,1,.012.117.113.113,0,0,1-.1.064,9.6,9.6,0,0,0-8.792,8.212.112.112,0,0,1-.052.078.114.114,0,0,1-.093.012,6.965,6.965,0,0,0-5.624.826c-1.88,1.386-2.833,4.016-2.833,7.817a.113.113,0,0,1-.069.1.113.113,0,0,1-.123-.024c-.038-.037-3.824-3.7-7.693-3.326a6.294,6.294,0,0,0-4.594,3.013.114.114,0,0,1-.136.041c-.079-.032-7.829-3.176-11.587,1.45A.113.113,0,0,1,4426.969-1082.879Zm1.7-12.9a17.473,17.473,0,0,0-1.649,12.552c3.688-4.267,10.772-1.721,11.629-1.391a6.476,6.476,0,0,1,4.708-3.036c3.474-.336,6.855,2.473,7.682,3.214.043-3.74,1.026-6.345,2.925-7.743a7.109,7.109,0,0,1,5.7-.893,9.774,9.774,0,0,1,8.775-8.26c-5.639-7.337-10-6.971-10.413-6.918-.468.452-6.974,6.667-13.946,10.081C4437.242-1094.822,4429.532-1095.665,4428.664-1095.774Z" transform="translate(-4426.286 1108.503)"/></g><g transform="translate(13.233 5.072)"><path class="b" d="M4484.916-1079s-.915-5.018,3.387-6.65a6.1,6.1,0,0,1,6.972,2.077S4489.958-1077.365,4484.916-1079Z" transform="translate(-4484.834 1086.062)"/></g><g transform="translate(10.952 5.077)"><path class="b" d="M4479.1-1084.2l-3.856-1.335,3.263,3.56Z" transform="translate(-4475.128 1085.652)"/><path class="b" d="M4478.118-1082.253a.113.113,0,0,1-.083-.037l-3.264-3.56a.113.113,0,0,1-.011-.138.113.113,0,0,1,.131-.045l3.856,1.335a.113.113,0,0,1,.073.136l-.593,2.225a.115.115,0,0,1-.083.081A.116.116,0,0,1,4478.118-1082.253Zm-2.878-3.42,2.822,3.078.513-1.924Z" transform="translate(-4474.741 1086.039)"/></g><g transform="translate(18.517 1.073)"><path class="b" d="M4508.711-1099.1l1.334-4.153.3,4.6Z" transform="translate(-4508.598 1103.371)"/><path class="b" d="M4509.955-1098.933a.117.117,0,0,1-.03,0l-1.632-.445a.111.111,0,0,1-.069-.055.112.112,0,0,1-.008-.088l1.335-4.153a.114.114,0,0,1,.122-.078.112.112,0,0,1,.1.1l.3,4.6a.113.113,0,0,1-.042.095A.111.111,0,0,1,4509.955-1098.933Zm-1.488-.636,1.365.372-.249-3.846Z" transform="translate(-4508.21 1103.757)"/></g><g transform="translate(18.669 6.524)"><ellipse class="c" cx="0.297" cy="0.519" rx="0.297" ry="0.519" transform="matrix(0.916, -0.402, 0.402, 0.916, 0, 0.238)"/></g><g transform="translate(16.197 7.661)"><ellipse class="c" cx="0.297" cy="0.519" rx="0.297" ry="0.519" transform="matrix(0.916, -0.402, 0.402, 0.916, 0, 0.238)"/></g></g><g transform="translate(160.436 26.104)"><path class="b" d="M5146.5-1269.942s5.234,6.369,13,8.629,17.1,1.927,17.1,1.927,4,2.437,3.1,12.454a9.651,9.651,0,0,0-12.172.151s-4.565-7.766-12.253.68c0,0-.6-10.577-9.014-8.607,0,0-3.617-7.705-9.664-6.791C5136.6-1261.5,5138.96-1267.173,5146.5-1269.942Z" transform="translate(-5136.489 1270.055)"/><path class="b" d="M5154.893-1246.374a.116.116,0,0,1-.038-.006.114.114,0,0,1-.075-.1c0-.053-.338-5.313-3.45-7.639a6.3,6.3,0,0,0-5.425-.864.113.113,0,0,1-.128-.062c-.035-.076-3.646-7.62-9.544-6.728a.114.114,0,0,1-.105-.042.112.112,0,0,1-.016-.113c.023-.057,2.465-5.753,9.958-8.507a.113.113,0,0,1,.127.034c.052.063,5.3,6.369,12.949,8.593,7.664,2.229,16.971,1.926,17.064,1.923a.107.107,0,0,1,.063.016c.166.1,4.049,2.589,3.159,12.561a.113.113,0,0,1-.069.094.113.113,0,0,1-.116-.018,9.6,9.6,0,0,0-12.03.154.113.113,0,0,1-.091.022.11.11,0,0,1-.076-.054,6.967,6.967,0,0,0-4.716-3.175c-2.326-.24-4.8,1.063-7.356,3.874A.113.113,0,0,1,5154.893-1246.374Zm-7.031-9.077a5.864,5.864,0,0,1,3.6,1.151c2.792,2.087,3.4,6.443,3.517,7.548,2.55-2.737,5.03-4,7.376-3.757a7.111,7.111,0,0,1,4.815,3.176,9.773,9.773,0,0,1,12.049-.2c.77-9.221-2.7-11.887-3.042-12.124-.651.019-9.646.235-17.1-1.933-7.307-2.125-12.44-7.939-13.009-8.6a17.49,17.49,0,0,0-9.669,8.171c5.6-.675,9.125,5.979,9.536,6.8A8.759,8.759,0,0,1,5147.861-1255.451Z" transform="translate(-5136.102 1270.442)"/><g transform="translate(18.458 4.142)"><path class="b" d="M5217.765-1249.086s2.7-4.327,6.981-2.638a6.1,6.1,0,0,1,3.757,6.229S5220.4-1244.484,5217.765-1249.086Z" transform="translate(-5217.765 1252.115)"/></g><g transform="translate(21.357 0.407)"><path class="b" d="M5233.046-1264.559l-1.953-3.583.017,4.829Z" transform="translate(-5230.98 1268.255)"/><path class="b" d="M5230.723-1263.587a.111.111,0,0,1-.054-.014.116.116,0,0,1-.06-.1l-.017-4.829a.114.114,0,0,1,.085-.11.112.112,0,0,1,.127.056l1.954,3.583a.112.112,0,0,1-.038.149l-1.936,1.246A.114.114,0,0,1,5230.723-1263.587Zm.1-4.5.015,4.176,1.674-1.078Z" transform="translate(-5230.593 1268.642)"/></g><g transform="translate(26.852 3.436)"><path class="b" d="M5255.4-1252.566l3.784-2.173-2.876,3.6Z" transform="translate(-5255.288 1254.852)"/><path class="b" d="M5255.92-1251.413h-.006a.114.114,0,0,1-.089-.052l-.907-1.427a.113.113,0,0,1-.014-.088.113.113,0,0,1,.053-.071l3.783-2.173a.113.113,0,0,1,.142.025.112.112,0,0,1,0,.144l-2.875,3.6A.113.113,0,0,1,5255.92-1251.413Zm-.748-1.5.759,1.194,2.405-3.011Z" transform="translate(-5254.9 1255.239)"/></g><g transform="translate(25.703 6.801)"><ellipse class="c" cx="0.519" cy="0.297" rx="0.519" ry="0.297" transform="translate(0 0.984) rotate(-71.37)"/></g><g transform="translate(23.11 5.978)"><ellipse class="c" cx="0.519" cy="0.297" rx="0.519" ry="0.297" transform="translate(0 0.984) rotate(-71.37)"/></g></g><g transform="translate(31.981)"><g transform="translate(0 125.878)"><path class="d" d="M4592.034-816.14s-16.918-3.78-21.027-3.78c0,0-3.625-2.984,5.317-3.78s14.743.8,17.4-1.592,11.36-.6,11.36-.6S4596.625-813.355,4592.034-816.14Z" transform="translate(-4569.715 827.094)"/><path class="b" d="M4591.583-817.086a3.361,3.361,0,0,1-1.692-.441c-1.311-.291-16.967-3.747-20.818-3.747a.566.566,0,0,1-.359-.129,2.258,2.258,0,0,1-.859-2.252c.417-1.349,2.538-2.176,6.485-2.527a83.017,83.017,0,0,1,8.941-.224c3.866.059,6.657.1,8.134-1.226,2.838-2.548,11.484-.805,11.851-.73a.565.565,0,0,1,.409.34.566.566,0,0,1-.055.529,49.976,49.976,0,0,1-4.866,5.995C4595.92-818.561,4593.518-817.086,4591.583-817.086ZM4569.3-822.4c4.466.124,20.239,3.638,20.92,3.79a.563.563,0,0,1,.17.069,2.279,2.279,0,0,0,1.2.324c3.31,0,8.274-5.938,10.592-9.193-2.792-.472-8.221-.993-10.019.621s-4.785,1.577-8.907,1.515a81.049,81.049,0,0,0-8.823.219c-4.735.421-5.411,1.433-5.506,1.733C4568.833-823,4569.1-822.615,4569.3-822.4Z" transform="translate(-4567.782 829.012)"/></g><g transform="translate(20.948 87.652)"><path class="e" d="M4669.405-985.82s.805,37.33-6.445,37.529c0,0,3.142,3.382,11.6.995s25.942-6.229,42.619-9.213,29.566,3.4,31.5-.777-1.935-38.348-1.935-38.348Z" transform="translate(-4662.395 996.199)"/><path class="b" d="M4667.042-947.811c-4.476,0-6.329-1.921-6.431-2.031a.566.566,0,0,1-.107-.6.566.566,0,0,1,.506-.346c4.873-.134,6.2-22.736,5.9-36.952a.564.564,0,0,1,.493-.572l77.341-9.815a.561.561,0,0,1,.419.116.565.565,0,0,1,.213.381c.159,1.4,3.863,34.377,1.885,38.649-1.106,2.389-4.732,1.93-10.22,1.234-5.546-.7-13.144-1.667-21.693-.138-15.778,2.823-33.679,6.693-42.564,9.2A21.19,21.19,0,0,1,4667.042-947.811Zm-4.747-2.2c1.388.768,4.557,1.823,10.178.237,8.917-2.516,26.863-6.4,42.672-9.225,8.72-1.56,16.417-.584,22.035.129,4.815.611,8.293,1.052,9.053-.587,1.5-3.245-.819-27.613-1.918-37.478l-76.27,9.679c.03,2.08.092,10.193-.513,18.236C4666.682-957.762,4664.963-951.5,4662.294-950.012Z" transform="translate(-4660.46 998.135)"/></g><g transform="translate(58.038 114.157)"><path class="b" d="M4825.9-858.631a1.131,1.131,0,0,1-.4-.072,1.491,1.491,0,0,1-.9-1.076c-.179-.789.006-2.1,3.054-5.276a1.126,1.126,0,0,1,.209-.171l.767-14.574a1.123,1.123,0,0,1,1.188-1.069,1.13,1.13,0,0,1,1.069,1.188l-.806,15.307a1.129,1.129,0,0,1-.183.56l-3.062,4.673A1.13,1.13,0,0,1,4825.9-858.631Z" transform="translate(-4824.56 880.872)"/></g><g transform="translate(82.739 110.128)"><path class="b" d="M4944.64-872.887a1.128,1.128,0,0,1-.842-.376l-3.727-4.162a1.125,1.125,0,0,1-.238-.423l-5.941-19.385a1.129,1.129,0,0,1,.749-1.411,1.13,1.13,0,0,1,1.412.749l5.744,18.739a1.137,1.137,0,0,1,.309.169c3.49,2.683,3.869,3.953,3.81,4.759a1.492,1.492,0,0,1-.724,1.2A1.127,1.127,0,0,1,4944.64-872.887Z" transform="translate(-4933.841 898.694)"/></g><g transform="translate(0.162 68.428)"><path class="f" d="M4600-1047.256s-24.652-8.7-29-12.326c0,0,13.293-2.417,20.06-5.8s17.885-7.251,21.269-10.876,37.7-.484,44.713-3.867,40.362,7.976,40.362,7.976l-22.236,19.335Z" transform="translate(-4570.435 1081.305)"/><path class="b" d="M4598.067-1048.574a.567.567,0,0,1-.188-.032c-1.01-.357-24.8-8.776-29.176-12.425a.564.564,0,0,1-.185-.578.565.565,0,0,1,.445-.412c.132-.024,13.292-2.442,19.909-5.75,2.117-1.059,4.6-2.141,7.238-3.287,5.712-2.486,11.618-5.056,13.87-7.469,1.763-1.89,9.486-2.1,21.995-2.209,9.618-.088,19.565-.178,22.885-1.781,7.135-3.445,39.419,7.483,40.79,7.95a.565.565,0,0,1,.373.426.566.566,0,0,1-.184.535l-22.235,19.335a.565.565,0,0,1-.33.137l-75.166,5.559Zm-27.589-12.588c5.972,3.711,25.981,10.852,27.666,11.45l74.859-5.536,21.348-18.562c-5.44-1.8-32.919-10.625-39-7.69-3.549,1.713-13.624,1.8-23.367,1.894-9.2.084-19.618.179-21.178,1.85-2.412,2.584-8.427,5.2-14.245,7.733-2.62,1.14-5.094,2.217-7.184,3.263C4583.794-1063.969,4574.021-1061.865,4570.479-1061.161Z" transform="translate(-4568.5 1083.188)"/></g><g transform="translate(103.268 94.67)"><line class="g" x2="20.58" y2="4.916" transform="translate(1.13 1.13)"/><path class="b" d="M5046.38-959.909a1.12,1.12,0,0,1-.263-.031l-20.581-4.916a1.131,1.131,0,0,1-.837-1.362,1.131,1.131,0,0,1,1.362-.837l20.581,4.916a1.13,1.13,0,0,1,.836,1.362A1.132,1.132,0,0,1,5046.38-959.909Z" transform="translate(-5024.668 967.086)"/><g transform="translate(14.066 0.386)"><path class="b" d="M5090.313-955.77a1.13,1.13,0,0,1-1-.6l-2.28-4.283a1.13,1.13,0,0,1,.442-1.516l5.441-3.065a1.131,1.131,0,0,1,1.54.43,1.131,1.131,0,0,1-.43,1.539l-4.481,2.524,1.762,3.309a1.131,1.131,0,0,1-.466,1.529A1.125,1.125,0,0,1,5090.313-955.77Z" transform="translate(-5086.901 965.38)"/></g></g><g transform="translate(12.06 108.306)"><line class="g" x1="16.695" y2="12.999" transform="translate(1.13 1.13)"/><path class="b" d="M4622.272-891.5a1.127,1.127,0,0,1-.893-.436,1.13,1.13,0,0,1,.2-1.586l16.7-13a1.13,1.13,0,0,1,1.585.2,1.13,1.13,0,0,1-.2,1.586l-16.7,13A1.118,1.118,0,0,1,4622.272-891.5Z" transform="translate(-4621.14 906.758)"/><g transform="translate(0.444 7.933)"><path class="b" d="M4628-862.342a1.147,1.147,0,0,1-.184-.015,1.13,1.13,0,0,1-.934-1.3l.828-5.075-3.684-.692a1.13,1.13,0,0,1-.9-1.319,1.131,1.131,0,0,1,1.319-.9l4.77.9a1.131,1.131,0,0,1,.907,1.293l-1.006,6.164A1.13,1.13,0,0,1,4628-862.342Z" transform="translate(-4623.104 871.662)"/></g></g><g transform="translate(22.626 34.371)"><g transform="translate(0 0)"><g transform="translate(1.1 3.142)"><path class="h" d="M4752.66-1201.2l3.613,36.127s.416,7.407-5.173,11.96-14.825,10.443-31.179,12.078-29.607-2.437-36.875-8.187c-2.212-2.694-3.452-3.217-4.072-7.257s-3.7-36.982-3.7-36.982-1.86-17.519,33.936-23.365a69.093,69.093,0,0,1,27.031,1.507C4752.214-1210.857,4752.66-1201.2,4752.66-1201.2Z" transform="translate(-4674.692 1218.072)"/><path class="b" d="M4710.726-1142a61.9,61.9,0,0,1-14.725-1.709,40.044,40.044,0,0,1-15.247-6.969.565.565,0,0,1-.086-.084c-.445-.542-.858-1-1.223-1.412a9.7,9.7,0,0,1-2.971-6.119c-.616-4.011-3.576-35.669-3.7-37.016-.02-.181-.441-4.661,3.663-9.891,5.411-6.9,15.755-11.636,30.745-14.084.13-.022,13.65-2.285,27.274,1.521,8.41,2.349,12.531,6.164,14.507,8.95a11.777,11.777,0,0,1,2.322,5.67l3.611,36.115c0,.008,0,.016,0,.024.018.314.367,7.749-5.38,12.43-5.44,4.431-14.622,10.516-31.479,12.2Q4714.32-1142,4710.726-1142Zm-29.223-9.527c8.236,6.487,21.846,9.49,36.42,8.031,16.555-1.655,25.552-7.615,30.879-11.953,5.2-4.234,4.979-11.169,4.966-11.481l-3.611-36.112c0-.01,0-.019,0-.028h0a10.861,10.861,0,0,0-2.166-5.157c-1.876-2.614-5.8-6.2-13.839-8.446a69.1,69.1,0,0,0-26.783-1.495c-18.235,2.978-26.366,9.03-29.977,13.583-3.872,4.882-3.5,9.124-3.493,9.166.032.335,3.085,32.977,3.695,36.955a8.6,8.6,0,0,0,2.7,5.536C4680.648-1152.52,4681.057-1152.063,4681.5-1151.524Z" transform="translate(-4672.751 1219.968)"/></g><g transform="translate(0)"><ellipse class="i" cx="38.59" cy="19.684" rx="38.59" ry="19.684" transform="translate(0 7.679) rotate(-5.71)"/><path class="b" d="M4707.3-1179.994a57.028,57.028,0,0,1-20.431-3.439c-7.829-3.055-12.442-7.742-12.987-13.2h0c-.546-5.454,3.048-10.961,10.118-15.506,6.956-4.472,16.484-7.5,26.827-8.539s20.284.052,27.988,3.058c7.83,3.055,12.443,7.742,12.988,13.2s-3.049,10.961-10.119,15.506c-6.956,4.472-16.483,7.5-26.827,8.539C4712.3-1180.12,4709.771-1179.994,4707.3-1179.994Zm11.09-39.931c-2.44,0-4.933.124-7.451.376-10.17,1.017-19.52,3.987-26.329,8.365-6.694,4.3-10.106,9.433-9.6,14.443h0c.5,5.01,4.86,9.362,12.274,12.255,7.541,2.943,17.294,4,27.463,2.986s19.52-3.988,26.329-8.365c6.695-4.3,10.106-9.433,9.605-14.443s-4.86-9.362-12.275-12.255A55.876,55.876,0,0,0,4718.387-1219.925Z" transform="translate(-4672.481 1223.95)"/></g><g transform="translate(3.154 5.893)"><path class="j" d="M4758.1-1189.477s-1.219-5.708-4.088-6.878-3.76-1.162-4.618-2.453-.961-2.333-3.03-2.774-3.784-.593-5.115-.946-7.912-2.2-12.225-2.421-9.3-.689-11.9.056-7.223,1.451-9.292,1.82-9.387,4.1-12.177,5.347-6.686,6.012-8.185,7.215-2.445,3.888-2.982,4.994-.729,10.517,16.169,15.143c10.325,2.854,24.2,2.7,36.082-1.1C4749.4-1175.514,4757.289-1182.19,4758.1-1189.477Z" transform="translate(-4683.767 1205.861)"/><path class="b" d="M4714.392-1169.768a60.043,60.043,0,0,1-15.808-1.994c-10.346-2.832-14.328-7.416-15.845-10.762-1.165-2.569-.962-4.594-.682-5.173.1-.2.211-.459.342-.759a11.977,11.977,0,0,1,2.8-4.429c.444-.356,1.149-1.083,1.966-1.926,1.828-1.883,4.331-4.463,6.341-5.364.742-.333,1.8-.838,3.024-1.424,3.428-1.64,7.7-3.68,9.285-3.964.415-.074.932-.161,1.514-.26,2.259-.382,5.673-.959,7.721-1.547,2.255-.647,6.129-.42,9.875-.2.745.044,1.484.087,2.2.123,4.05.2,10,1.809,11.959,2.337l.382.1c.678.18,1.468.307,2.383.454.806.129,1.72.276,2.7.486a3.81,3.81,0,0,1,2.938,2.271c.136.24.276.489.446.743.535.807,1.069,1,2.5,1.527.5.184,1.121.412,1.864.715,3.111,1.269,4.375,7.038,4.428,7.283a.558.558,0,0,1,.009.18c-.414,3.725-2.639,7.387-6.434,10.589a45.418,45.418,0,0,1-15.312,7.891A68.8,68.8,0,0,1,4714.392-1169.768Zm4.931-36.9a15.423,15.423,0,0,0-3.966.383c-2.109.605-5.56,1.189-7.843,1.574-.58.1-1.093.185-1.5.258-1.438.256-5.806,2.345-9,3.87-1.231.589-2.294,1.1-3.049,1.436-1.813.813-4.229,3.3-5.991,5.12a28.77,28.77,0,0,1-2.071,2.02,11.191,11.191,0,0,0-2.467,4c-.136.311-.254.58-.36.8a6.646,6.646,0,0,0,.694,4.212c1.417,3.126,5.191,7.422,15.115,10.139,10.7,2.956,24.4,2.538,35.761-1.091,12.293-3.926,20.117-10.439,20.956-17.437-.354-1.573-1.647-5.534-3.729-6.384-.725-.3-1.311-.511-1.828-.7-1.536-.565-2.307-.848-3.047-1.962-.192-.288-.349-.567-.487-.813a2.729,2.729,0,0,0-2.19-1.721c-.957-.2-1.855-.348-2.648-.475-.944-.151-1.76-.282-2.493-.477l-.387-.1c-1.928-.52-7.792-2.1-11.721-2.3-.724-.036-1.467-.08-2.214-.124C4722.959-1206.552,4721.03-1206.665,4719.323-1206.665Z" transform="translate(-4681.84 1207.794)"/></g><g transform="translate(34.797 14.744)"><path class="k" d="M4833-1149.349a30.363,30.363,0,0,0,15.569-6.521c7.724-6.091.342-8.987-2.721-10.365s-14.209-3.809-23-1.334c-2.4.772.219,4.854.219,4.854l8.092,11.778S4832.213-1149.27,4833-1149.349Z" transform="translate(-4821.835 1168.634)"/></g><g transform="translate(43.036 25.458)"><path class="l" d="M4875.39-1118.313a19.854,19.854,0,0,0-7.965.131,35.786,35.786,0,0,0-8.511,3.311l-.625-.935s2.837-4.206,9.919-5.18,9.031,1.224,9.031,1.224Z" transform="translate(-4858.289 1121.234)"/></g><g transform="translate(39.383 19.835)"><path class="l" d="M4867.567-1143.22a43.257,43.257,0,0,0-13.691.039c-8.393,1.172-10.966,4.022-10.966,4.022l-.783-1.185s2.257-4.68,11.809-5.568,13.514,1.508,13.514,1.508S4867.988-1143.661,4867.567-1143.22Z" transform="translate(-4842.127 1146.11)"/></g><g transform="translate(37.264 15.612)"><path class="l" d="M4855.979-1162.434c.146.134-8.767-.586-14.139.882a21.434,21.434,0,0,0-8.293,4.153l-.8-1.316s2.468-3.9,8.859-5.141,7.623-.9,7.623-.9S4854.808-1163.513,4855.979-1162.434Z" transform="translate(-4832.751 1164.794)"/></g><g transform="translate(34.713 14.721)"><path class="l" d="M4831.9-1168.737s-4.008,1.8-6.411,3.034a10.472,10.472,0,0,0-2.995,1.962s-1.139-1.415-1.014-2.159c0,0,2.5-2.245,4.6-2.521S4831.9-1168.737,4831.9-1168.737Z" transform="translate(-4821.467 1168.737)"/></g><g transform="translate(18.551 17.031)"><path class="m" d="M4769.842-1150.782l-19.885,1.257s.771-3.6,7.306-6.049,8.149-2.942,8.149-2.942S4771.428-1150.874,4769.842-1150.782Z" transform="translate(-4749.957 1158.516)"/></g><g transform="translate(18.787 24.765)"><path class="n" d="M4770.653-1124.3l-.408,1.238-19.22,1.257-.02-1.527Z" transform="translate(-4751.005 1124.298)"/></g><g transform="translate(17.51 16.051)"><path class="o" d="M4746.651-1151.645a8.586,8.586,0,0,1-1.3-.336l.059-1.4s.468-5.964,15.607-9.472l.83.981s-1.948.638-4.516,1.6c-4.28,1.609-10.158,4.232-10.7,7.1C4746.632-1153.172,4746.667-1151.714,4746.651-1151.645Z" transform="translate(-4745.355 1162.855)"/></g><g transform="translate(26.574 9.003)"><path class="p" d="M4788.62-1193.921a2.4,2.4,0,0,1,1.175-.063.825.825,0,0,1,.636.874l-2.67.863a1.784,1.784,0,0,0-.84.452,3.253,3.253,0,0,1-.382.493.72.72,0,0,1-1.055-.441,1.17,1.17,0,0,1,.5-1.173,3.44,3.44,0,0,1,1.248-.5" transform="translate(-4785.456 1194.036)"/></g><g transform="translate(18.807 26.003)"><path class="m" d="M4775.045-1112.715l-4.733-6.108-19.22,1.257s1.494,2.975,9.018,4.417A52.421,52.421,0,0,0,4775.045-1112.715Z" transform="translate(-4751.092 1118.823)"/></g><g transform="translate(18.531 27.26)"><path class="o" d="M4774.1-1108.41l.165,1.646a34.912,34.912,0,0,1-14,.27c-8.248-1.369-10.394-4.877-10.394-4.877l.276-1.889s1.572,3,10.367,4.614A55.015,55.015,0,0,0,4774.1-1108.41Z" transform="translate(-4749.869 1113.261)"/></g><g transform="translate(9.892 31.682)"><path class="p" d="M4713.166-1093.625a.958.958,0,0,1,1.279.635,3.374,3.374,0,0,0,.118.785c.153.313.562.456.671.788a.65.65,0,0,1-.218.665,1.252,1.252,0,0,1-.68.266,2.44,2.44,0,0,1-2.093-.795,2.441,2.441,0,0,1-.524-2.176" transform="translate(-4711.649 1093.699)"/></g><g transform="translate(33.644 8.498)"><path class="p" d="M4818.254-1196.194a.958.958,0,0,1,1.28.635,3.32,3.32,0,0,0,.118.785c.153.313.563.456.671.788a.651.651,0,0,1-.218.665,1.255,1.255,0,0,1-.681.266,2.437,2.437,0,0,1-2.091-.795,2.438,2.438,0,0,1-.524-2.176" transform="translate(-4816.737 1196.268)"/></g><g transform="translate(7.13 27.321)"><path class="p" d="M4701.822-1112.832c.314-.1.75-.147.891.151.124.261-.1.546-.314.745a6.4,6.4,0,0,1-1.585,1.218c-.427.2-1.036.263-1.29-.137a.925.925,0,0,1,.179-1.028,4.058,4.058,0,0,1,1.93-1.108" transform="translate(-4699.429 1112.991)"/></g><g transform="translate(73.294 22.438)"><path class="p" d="M4992.56-1131.884a.556.556,0,0,1-.308-.363c-.286-.764.048-3.05,1.214-2.138C4994.292-1133.738,4993.744-1131.509,4992.56-1131.884Z" transform="translate(-4992.156 1134.597)"/></g><g transform="translate(57.664 11.545)"><path class="p" d="M4926.555-1182.025a1.646,1.646,0,0,1,.817.853,2.026,2.026,0,0,1-1.23.029,11.863,11.863,0,0,1-3.008-1.05.23.23,0,0,1-.115-.1c-.049-.108.077-.21.185-.258A3.478,3.478,0,0,1,4926.555-1182.025Z" transform="translate(-4923.007 1182.79)"/></g><g transform="translate(50.421 9.097)"><path class="p" d="M4893.265-1193.326a2.754,2.754,0,0,1,1.748-.248c.226.043.5.191.457.417-.031.18-.238.26-.414.308l-.961.262a1.472,1.472,0,0,0-.55.234,3.243,3.243,0,0,0-.3.327,2.02,2.02,0,0,1-1.59.5c-.294-.016-.655-.13-.689-.422a.618.618,0,0,1,.214-.464,2.687,2.687,0,0,1,.881-.62" transform="translate(-4890.96 1193.621)"/></g><g transform="translate(52.489 37.066)"><path class="p" d="M4902.414-1069.582a2.754,2.754,0,0,1,1.748-.248c.226.043.5.191.459.417-.032.18-.239.26-.415.308l-.961.262a1.458,1.458,0,0,0-.55.234,3.174,3.174,0,0,0-.3.327,2.02,2.02,0,0,1-1.59.5c-.294-.016-.655-.13-.69-.422a.617.617,0,0,1,.215-.465,2.7,2.7,0,0,1,.88-.62" transform="translate(-4900.109 1069.878)"/></g><g transform="translate(14.302 16.027)"><path class="p" d="M4732.837-1162.731a1.378,1.378,0,0,1,.609-.228.553.553,0,0,1,.544.29.654.654,0,0,1-.163.65c-.4.478-1.125.708-1.3,1.308a.939.939,0,0,1-.1.3.441.441,0,0,1-.324.16.942.942,0,0,1-.939-.931,1.455,1.455,0,0,1,.742-1.208" transform="translate(-4731.163 1162.959)"/></g><g transform="translate(64.132 31.771)"><path class="p" d="M4953.3-1093.073a1.378,1.378,0,0,1,.609-.227.553.553,0,0,1,.544.29.655.655,0,0,1-.164.649c-.4.478-1.125.709-1.3,1.308a.941.941,0,0,1-.1.3.439.439,0,0,1-.323.159.941.941,0,0,1-.939-.931,1.457,1.457,0,0,1,.741-1.209" transform="translate(-4951.623 1093.301)"/></g><g transform="translate(29.129 39.058)"><path class="p" d="M4798.782-1061a3.45,3.45,0,0,0-1.278.294,1.29,1.29,0,0,0-.743,1.018.383.383,0,0,0,.039.212c.1.174.358.147.551.092a5.8,5.8,0,0,1,2.7-.423c.5.1,3.8,1.109,2.438-.489C4801.7-1061.218,4799.839-1061.1,4798.782-1061Z" transform="translate(-4796.759 1061.065)"/></g><g transform="translate(44.768 38.003)"><path class="p" d="M4866.817-1063.861a1.16,1.16,0,0,1-.841-.629.665.665,0,0,1,.82-.786,5.792,5.792,0,0,1,.6.408,1.2,1.2,0,0,0,.756.086c.625-.1,3.386-2.026,2.989-.088C4870.831-1063.349,4867.865-1063.545,4866.817-1063.861Z" transform="translate(-4865.951 1065.731)"/></g><g transform="translate(70.293 18.32)"><path class="p" d="M4979.58-1151.436c-.284-.071-.592-.194-.682-.44-.115-.318.32-.683.68-.57a4.541,4.541,0,0,1,.488.285,1.112,1.112,0,0,0,.619.053c.513-.079,2.793-1.483,2.447-.095C4982.862-1151.113,4980.436-1151.221,4979.58-1151.436Z" transform="translate(-4978.879 1152.813)"/></g><g transform="translate(23.902 37.139)"><path class="p" d="M4775.5-1069.548a.675.675,0,0,1,.625.185.6.6,0,0,1-.18.769c-.734.617-1.021.42-1.071,1.4-.024.489.146,1.291-.575.944C4772.718-1067.013,4774.317-1069.416,4775.5-1069.548Z" transform="translate(-4773.636 1069.556)"/></g><g transform="translate(15.001 37.354)"><path class="p" d="M4735.349-1068.532a3.005,3.005,0,0,0-.392.074.836.836,0,0,0-.679.55C4733.813-1065.869,4739.928-1069.111,4735.349-1068.532Z" transform="translate(-4734.253 1068.603)"/></g><g transform="translate(69.198 28.883)"><path class="p" d="M4975.132-1106.011a3.006,3.006,0,0,0-.392.074.835.835,0,0,0-.678.55C4973.6-1103.348,4979.712-1106.59,4975.132-1106.011Z" transform="translate(-4974.037 1106.082)"/></g></g><g transform="translate(54.287 50.011)"><ellipse class="b" cx="3.061" cy="1.289" rx="3.061" ry="1.289" transform="matrix(0.002, -1, 1, 0.002, 0, 6.123)"/></g><g transform="translate(40.803 51.38)"><ellipse class="b" cx="3.061" cy="1.289" rx="3.061" ry="1.289" transform="matrix(0.002, -1, 1, 0.002, 0, 6.123)"/></g><g transform="translate(48.73 62.357)"><path class="g" d="M4885.981-953.947s.46,3.939,3.088,3.978,1.98-4.818,1.98-4.818a3.013,3.013,0,0,1-2.682-.693A3.487,3.487,0,0,1,4885.981-953.947Z" transform="translate(-4885.416 956.045)"/><path class="b" d="M4887.164-951.339h-.039c-3.087-.045-3.62-4.3-3.641-4.477a.566.566,0,0,1,.121-.42.565.565,0,0,1,.384-.208,2.9,2.9,0,0,0,1.962-1.267.565.565,0,0,1,.423-.266.565.565,0,0,1,.469.174,2.473,2.473,0,0,0,2.139.532.565.565,0,0,1,.452.083.562.562,0,0,1,.241.391c.045.335.4,3.317-.853,4.728A2.152,2.152,0,0,1,4887.164-951.339Zm-2.464-4.1c.213.962.846,2.943,2.442,2.966a1.034,1.034,0,0,0,.834-.35c.63-.709.685-2.293.627-3.272a3.5,3.5,0,0,1-2.086-.518A4.011,4.011,0,0,1,4884.7-955.436Zm-.654-.447h0Z" transform="translate(-4883.48 957.981)"/></g><g transform="translate(47.618 62.01)"><path class="b" d="M4879.383-956.5c-.1,0-.193,0-.293-.009a.565.565,0,0,1-.53-.6.567.567,0,0,1,.6-.53,3.164,3.164,0,0,0,2.932-1.512.568.568,0,0,1,.411-.285.564.564,0,0,1,.475.15c.039.035,1.118.979,3.16-.163a.565.565,0,0,1,.769.217.566.566,0,0,1-.217.769,4.051,4.051,0,0,1-3.956.355A4.262,4.262,0,0,1,4879.383-956.5Z" transform="translate(-4878.559 959.519)"/></g><g transform="translate(27.919 62.244)"><ellipse class="g" cx="5.854" cy="2.471" rx="5.854" ry="2.471" transform="translate(0 0.669) rotate(-3.273)"/></g><g transform="translate(61.923 56.244)"><ellipse class="g" cx="5.854" cy="2.471" rx="5.854" ry="2.471" transform="translate(0 0.669) rotate(-3.273)"/></g></g><g transform="translate(14.905)"><g transform="translate(0 29.835)"><path class="e" d="M4671.6-1249.521s-25.77,6.013-33.787,21.475,15.461,23.765,33.214,20.616c12.513-2.22,32.067-19.136,44.668-18.611,6.872.286,17.516-18.3-13.171-24.052C4684.2-1253.53,4671.6-1249.521,4671.6-1249.521Z" transform="translate(-4635.637 1252.039)"/><path class="b" d="M4661.374-1208.106a47.859,47.859,0,0,1-11.349-1.341c-6.464-1.6-11.48-4.458-14.123-8.052-2.72-3.7-2.894-8.092-.5-12.7,4.215-8.129,13.292-13.617,20.166-16.788a82.524,82.524,0,0,1,13.976-4.972c.618-.189,13.286-3.937,31.176-.583,20.295,3.805,21.505,12.819,21.083,16.517-.574,5.039-4.784,8.783-8.04,8.655-6.862-.289-16,4.812-24.83,9.743-7.243,4.043-14.084,7.861-19.716,8.861A45.173,45.173,0,0,1,4661.374-1208.106Zm24.537-44.7a58.986,58.986,0,0,0-16.051,1.928l-.042.012c-.255.059-25.61,6.135-33.414,21.185-2.211,4.263-2.073,8.137.409,11.513,5.021,6.829,19.468,10.546,32.205,8.286,5.444-.966,12.2-4.74,19.361-8.735,8.97-5.007,18.243-10.186,25.429-9.885,2.7.12,6.37-3.276,6.87-7.653.386-3.385-.807-11.648-20.169-15.279A79.285,79.285,0,0,0,4685.911-1252.806Zm-16.222,1.389h0Z" transform="translate(-4633.726 1253.934)"/></g><g transform="translate(18.502)"><path class="e" d="M4764.749-1340.194s-19.757-43.809-29.778-43.236-22.334,18.325-14.317,17.18,11.74-5.44,11.74-5.44-13.172,23.766-13.744,38.655c0,0,.134,7.957,21.761,4.51C4768.256-1332.964,4764.749-1340.194,4764.749-1340.194Z" transform="translate(-4717.509 1384)"/><path class="b" d="M4728.9-1329.034c-6.083,0-9.237-1.347-10.871-2.717a4.655,4.655,0,0,1-1.866-3.208c0-.01,0-.021,0-.031.466-12.116,9-29.706,12.429-36.306a22.7,22.7,0,0,1-9.78,3.673,2.757,2.757,0,0,1-2.8-.8c-.671-.907-.541-2.422.376-4.38,2.448-5.224,9.959-12.745,16.629-13.126,4.393-.245,10.838,7.046,19.17,21.688,6.135,10.779,11.105,21.77,11.155,21.88h0a3.36,3.36,0,0,1-.294,2.873c-1.475,2.829-6.917,6.788-24.469,9.586A62.058,62.058,0,0,1,4728.9-1329.034Zm-11.605-5.936a3.664,3.664,0,0,0,1.515,2.4c2.182,1.786,7.352,3.506,19.591,1.555,17.859-2.846,22.457-6.813,23.609-8.924a2.316,2.316,0,0,0,.306-1.948l.513-.238-.516.232c-5.412-12-21.1-42.909-29.06-42.909-.058,0-.114,0-.171.005-6.161.352-13.4,7.625-15.671,12.477-.7,1.492-.882,2.7-.49,3.228.331.447,1.125.438,1.733.351,7.688-1.1,11.356-5.21,11.393-5.252a.565.565,0,0,1,.75-.091.564.564,0,0,1,.17.736C4730.831-1373.113,4717.861-1349.554,4717.29-1334.969Z" transform="translate(-4715.584 1385.933)"/></g><g transform="translate(32.82 7.163)"><line class="q" y1="4.581" x2="4.295" transform="translate(0.565 0.565)"/><path class="b" d="M4779.5-1348.53a.563.563,0,0,1-.387-.153.565.565,0,0,1-.026-.8l4.295-4.581a.565.565,0,0,1,.8-.026.565.565,0,0,1,.026.8l-4.294,4.581A.565.565,0,0,1,4779.5-1348.53Z" transform="translate(-4778.934 1354.241)"/></g><g transform="translate(19.056 40.569)"><path class="r" d="M4720.55-1194.115l.716-4.939s3.436,7.588,22.763,4.367,21.284-9.258,21.284-9.258l1.336,2.673s.573,9.735-22.405,12.1C4718.884-1186.569,4720.55-1194.115,4720.55-1194.115Z" transform="translate(-4719.964 1204.511)"/><path class="b" d="M4732.817-1190c-8.651,0-12.292-1.724-13.786-3.4a3.369,3.369,0,0,1-.967-2.739l.714-4.93a.567.567,0,0,1,.48-.479.564.564,0,0,1,.594.326c.007.014.87,1.786,3.979,3.167,2.916,1.3,8.437,2.5,18.176.875,18.771-3.128,20.821-8.818,20.839-8.875a.565.565,0,0,1,.495-.389.571.571,0,0,1,.548.311l1.336,2.672a.564.564,0,0,1,.059.219c.007.11.125,2.72-2.75,5.6-3.716,3.716-10.5,6.1-20.161,7.1A94.2,94.2,0,0,1,4732.817-1190Zm-13.642-5.935a2.281,2.281,0,0,0,.743,1.831c1.488,1.613,6.368,4.074,22.34,2.432,20.919-2.151,21.863-10.392,21.9-11.4l-.813-1.626c-1.432,1.926-6.181,6.14-21.149,8.635a54.271,54.271,0,0,1-8.879.807c-8.421,0-12.132-2.646-13.618-4.27l-.516,3.559Q4719.179-1195.953,4719.176-1195.936Zm-.553-.114h0Z" transform="translate(-4718.037 1206.446)"/></g></g><g transform="translate(0.646 89.828)"><path class="r" d="M4583.532-976.826l-10.393-9.184s13.051,8.056,22.558,7.251,22.45,16.516,45.008,17C4640.705-961.76,4598.355-959.263,4583.532-976.826Z" transform="translate(-4572.574 986.575)"/><path class="b" d="M4633.333-963.011a144.055,144.055,0,0,1-17.662-1.07,87.125,87.125,0,0,1-19.083-4.386c-6.771-2.5-11.951-5.83-15.4-9.9l-10.362-9.157a.565.565,0,0,1-.08-.76.565.565,0,0,1,.75-.144c.129.079,13,7.947,22.213,7.168,4.12-.348,8.626,2.412,14.336,5.909,7.866,4.815,17.655,10.808,30.732,11.089a.565.565,0,0,1,.553.554.566.566,0,0,1-.532.575C4638.757-963.128,4636.684-963.011,4633.333-963.011Zm-57.986-22.027,6.625,5.854a.515.515,0,0,1,.057.059c7.537,8.93,22.523,12.5,33.767,13.92a139.869,139.869,0,0,0,14.181,1.025c-9.107-2-16.387-6.454-22.515-10.206-5.534-3.388-9.905-6.064-13.652-5.746-.472.04-.954.059-1.44.059C4586.462-980.072,4579.683-982.881,4575.346-985.038Z" transform="translate(-4570.639 988.51)"/></g><g transform="translate(83.49 77.26)"><path class="r" d="M4939.749-1008.019c-1.526.876,18.341-1.692,42.994-33.6,0,0-8.942,7.251-11.6,6.284C4971.141-1035.33,4954.491-1016.478,4939.749-1008.019Z" transform="translate(-4939.101 1042.179)"/><path class="b" d="M4937.935-1009.258a1.2,1.2,0,0,1-.3-.031.61.61,0,0,1-.463-.51.636.636,0,0,1,.361-.646l.281.49-.281-.49c14.5-8.317,31.085-27.007,31.251-27.195a.565.565,0,0,1,.616-.157c1.717.624,7.691-3.466,11.052-6.192a.566.566,0,0,1,.751.035.566.566,0,0,1,.053.75c-12.109,15.67-22.942,24.035-29.9,28.294C4944.423-1010.663,4939.41-1009.258,4937.935-1009.258Zm-.122-.7.281.49h0Zm31.593-26.686c-1.916,2.131-15.734,17.276-28.782,25.638a48.054,48.054,0,0,0,10.454-5.062c6.276-3.888,15.781-11.205,26.531-24.366C4974.869-1038.51,4971.33-1036.387,4969.406-1036.64Z" transform="translate(-4937.166 1044.114)"/></g></g></g><path class="s" d="M14.957,11.334l-1.579.337a2.322,2.322,0,0,0-1.239,1.121l-.818,2.326a2.215,2.215,0,0,1-.64.784,3.929,3.929,0,0,1-4.67.011,2.186,2.186,0,0,1-.659-.818L4.63,12.9a2.322,2.322,0,0,0-1.2-1.134L1.68,11.334a2.3,2.3,0,0,1-1.053-.864A3.934,3.934,0,0,1,.762,6.013a2.192,2.192,0,0,1,.823-.661l2.174-.708A2.319,2.319,0,0,0,4.9,3.447l.447-1.771A2.3,2.3,0,0,1,6.2.629a3.932,3.932,0,0,1,4.445.122,2.143,2.143,0,0,1,.678.861l.612,2.035A2.321,2.321,0,0,0,13.108,4.8l1.94.548a2.172,2.172,0,0,1,.887.692,3.93,3.93,0,0,1,.128,4.408A2.272,2.272,0,0,1,14.957,11.334Z" transform="translate(0 115.105) rotate(-20)"/><path class="s" d="M14.957,11.334l-1.579.337a2.322,2.322,0,0,0-1.239,1.121l-.818,2.326a2.215,2.215,0,0,1-.64.784,3.929,3.929,0,0,1-4.67.011,2.186,2.186,0,0,1-.659-.818L4.63,12.9a2.322,2.322,0,0,0-1.2-1.134L1.68,11.334a2.3,2.3,0,0,1-1.053-.864A3.934,3.934,0,0,1,.762,6.013a2.192,2.192,0,0,1,.823-.661l2.174-.708A2.319,2.319,0,0,0,4.9,3.447l.447-1.771A2.3,2.3,0,0,1,6.2.629a3.932,3.932,0,0,1,4.445.122,2.143,2.143,0,0,1,.678.861l.612,2.035A2.321,2.321,0,0,0,13.108,4.8l1.94.548a2.172,2.172,0,0,1,.887.692,3.93,3.93,0,0,1,.128,4.408A2.272,2.272,0,0,1,14.957,11.334Z" transform="translate(147.75 0) rotate(25)"/><ellipse class="t" cx="4.686" cy="4.686" rx="4.686" ry="4.686" transform="translate(32.308 44.228)"/><ellipse class="u" cx="1.562" cy="1.562" rx="1.562" ry="1.562" transform="translate(33.87 127.574)"/><ellipse class="u" cx="1.562" cy="1.562" rx="1.562" ry="1.562" transform="translate(197.796 65.711)"/></svg>