<svg xmlns="http://www.w3.org/2000/svg" width="234.478" height="145.842" viewBox="0 0 234.478 145.842"><defs><style>.a{fill:#e85c17;}.b{fill:#030504;}.c{fill:#ffa400;}.d{fill:#0c2434;}.e{fill:#090a09;}.f{fill:#e9e0ca;}.g{fill:#dacfb1;}.h{fill:#c4bb9c;}.i{fill:#e6dab9;}.j{fill:#cac0a0;}.k{fill:#f0f9f9;}.l{fill:#e02a41;}.l,.n,.o,.r,.t,.u,.w{fill-rule:evenodd;}.m{fill:#e2d7b7;}.n{fill:#bab381;}.o{fill:#e64d16;}.p{fill:#f88326;}.q{opacity:0.6;}.q,.s{isolation:isolate;}.r{fill:#f57830;}.s,.z{opacity:0.5;}.t{fill:#c5371b;}.u{fill:#ad281b;}.v{fill:#0b0e10;}.w,.y{fill:#6247a9;}.x,.z{fill:#aba0ec;}</style></defs><g transform="translate(0 86.888)"><g transform="translate(0 0)"><path class="a" d="M5794.833-981.2c12.779,11.265,12.042,48.495-25,48.181-37.94-1.081-35.681-35.233-27.291-46.378a20.109,20.109,0,0,1,22.644-7.286c2.35.832,8.1-.052,8.1-.052S5785.346-989.512,5794.833-981.2Z" transform="translate(-5737.034 988.12)"/><path class="b" d="M5769.292-933.65l-.477,0c-18.667-.532-26.592-8.975-29.956-15.965-5.082-10.558-2.751-24.368,2.322-31.108a20.016,20.016,0,0,1,13.88-8.3,21.429,21.429,0,0,1,9.255.87c2.167.767,7.57-.024,7.875-.069.547-.119,12.542-2.578,21.913,5.636h0c3.43,3.024,5.929,7.827,7.034,13.523a32.1,32.1,0,0,1-1.408,17.368C5797.143-944.937,5789.751-933.65,5769.292-933.65Zm-11.58-54.645a19.187,19.187,0,0,0-15.838,8.093c-4.92,6.536-7.173,19.945-2.234,30.21,3.259,6.772,10.969,14.954,29.191,15.473,20.28.175,27.562-10.885,30.09-17.492,3.972-10.381,1.555-23.807-5.389-29.93h0c-9.2-8.065-21.046-5.465-21.166-5.438l-.031.006c-.239.037-5.885.89-8.31.032A20.369,20.369,0,0,0,5757.712-988.295Z" transform="translate(-5736.018 989.189)"/></g><g transform="translate(47.523 1.48)"><path class="b" d="M5904.184-934.059a.434.434,0,0,1-.14-.023.434.434,0,0,1-.271-.55,103.98,103.98,0,0,0,4.55-25.417c.608-13.535-7.777-23.206-7.862-23.3a.433.433,0,0,1,.038-.612.434.434,0,0,1,.612.038c.087.1,8.7,10.02,8.078,23.915a104.851,104.851,0,0,1-4.595,25.656A.434.434,0,0,1,5904.184-934.059Z" transform="translate(-5900.352 984.072)"/></g><g transform="translate(37.263 1.123)"><path class="b" d="M5867.708-931.6a.432.432,0,0,1-.1-.011.434.434,0,0,1-.324-.521c.014-.06,1.416-6.263,2.241-24.627.82-18.28-4.541-27.8-4.6-27.894a.434.434,0,0,1,.159-.593.433.433,0,0,1,.592.158c.055.1,5.544,9.809,4.711,28.367-.83,18.473-2.2,24.536-2.263,24.785A.434.434,0,0,1,5867.708-931.6Z" transform="translate(-5864.872 985.307)"/></g><g transform="translate(20.603 0.433)"><path class="b" d="M5812.953-933.295a.434.434,0,0,1-.42-.327c-.021-.083-2.153-8.534-4.61-27.036-2.476-18.643,2.8-26.521,3.03-26.847a.433.433,0,0,1,.6-.11.433.433,0,0,1,.11.6h0c-.053.078-5.309,7.972-2.883,26.24,2.45,18.452,4.569,26.853,4.591,26.936a.434.434,0,0,1-.312.528A.452.452,0,0,1,5812.953-933.295Z" transform="translate(-5807.264 987.692)"/></g><g transform="translate(7.434 1.719)"><path class="b" d="M5767.388-934.463a.435.435,0,0,1-.4-.277c-.057-.145-5.61-14.6-5.242-27.391.37-12.841,6.145-20.857,6.2-20.936a.434.434,0,0,1,.607-.093.434.434,0,0,1,.093.606c-.057.078-5.675,7.892-6.036,20.448-.363,12.616,5.128,26.909,5.184,27.052a.434.434,0,0,1-.248.561A.431.431,0,0,1,5767.388-934.463Z" transform="translate(-5761.724 983.244)"/></g><g transform="translate(38.956 13.053)"><path class="b" d="M5886.829-931.328l-14.6-.76,7.425-10.462Z" transform="translate(-5871.793 942.984)"/><path class="b" d="M5885.763-931.963h-.023l-14.6-.759a.436.436,0,0,1-.368-.244.436.436,0,0,1,.037-.44l7.424-10.461a.418.418,0,0,1,.365-.183.433.433,0,0,1,.355.2l7.177,11.221a.436.436,0,0,1,.01.452A.436.436,0,0,1,5885.763-931.963Zm-13.792-1.586,12.971.675-6.375-9.969Z" transform="translate(-5870.727 944.052)"/></g><g transform="translate(10.483 11.355)"><path class="b" d="M5787.329-937.036l-13.561-.817,7.326-10.57,6.046,10.963" transform="translate(-5773.334 948.856)"/><path class="b" d="M5786.263-937.668h-.026l-13.561-.817a.435.435,0,0,1-.365-.243.436.436,0,0,1,.034-.437l7.326-10.57a.432.432,0,0,1,.379-.186.435.435,0,0,1,.358.224l6.046,10.963a.437.437,0,0,1,.05.272.433.433,0,0,1,.192.387A.434.434,0,0,1,5786.263-937.668Zm-12.765-1.637,12.051.726-5.564-10.087Z" transform="translate(-5772.268 949.922)"/></g><g transform="translate(10.13 32.081)"><path class="b" d="M5816.457-874.469s-3.749,7.2-5.057,8.6l-2.214-1.553-3.026,2.667-3.023-2-3.972,2.936-3.274-3.365-5.018,3.1-4.027-2.776-2.588,2.167-4.4-3.623-2.457,1.55-4.846-9.975,4.112,3.195,1.143-2.336,4.136,2.677,2.2-2.7,4.653,2.7,6.327-2.207,4.342,2.686,4.138-1.994,2.591,2.4,3.03-2.77,3.114,2.319Z" transform="translate(-5772.115 877.186)"/><path class="b" d="M5798.1-864.46a.435.435,0,0,1-.312-.131l-3.031-3.115-4.721,2.913a.433.433,0,0,1-.474-.012l-3.756-2.589-2.335,1.956a.433.433,0,0,1-.554,0l-4.162-3.424-2.192,1.383a.433.433,0,0,1-.35.05.438.438,0,0,1-.272-.228l-4.845-9.975a.434.434,0,0,1,.117-.526.434.434,0,0,1,.54-.006l3.691,2.868.909-1.857a.434.434,0,0,1,.273-.228.434.434,0,0,1,.352.054l3.809,2.466,1.952-2.4a.434.434,0,0,1,.555-.1l4.481,2.6,6.138-2.141a.436.436,0,0,1,.372.041l4.14,2.561,3.923-1.89a.435.435,0,0,1,.483.072l2.3,2.129,2.736-2.5a.434.434,0,0,1,.552-.028l2.917,2.173,3.9-1.59a.434.434,0,0,1,.484.109.434.434,0,0,1,.064.493c-.154.3-3.792,7.27-5.125,8.692a.434.434,0,0,1-.565.058l-1.934-1.357-2.77,2.441a.436.436,0,0,1-.527.036l-2.771-1.836-3.728,2.755A.433.433,0,0,1,5798.1-864.46Zm-3.275-4.232a.435.435,0,0,1,.312.131l3.01,3.093,3.668-2.711a.434.434,0,0,1,.5-.013l2.747,1.82,2.776-2.447a.434.434,0,0,1,.536-.03l1.889,1.325a73.956,73.956,0,0,0,4.191-7.16l-3.019,1.232a.432.432,0,0,1-.423-.054l-2.826-2.105-2.767,2.528a.434.434,0,0,1-.587,0l-2.374-2.2-3.871,1.866a.434.434,0,0,1-.417-.022L5794-876.015l-6.132,2.139a.433.433,0,0,1-.36-.035l-4.333-2.514-1.963,2.416a.434.434,0,0,1-.573.091l-3.725-2.411-.928,1.9a.433.433,0,0,1-.292.232.432.432,0,0,1-.363-.08l-2.643-2.053,3.821,7.865,2.047-1.292a.434.434,0,0,1,.507.032l4.127,3.394,2.313-1.936a.434.434,0,0,1,.525-.025l3.793,2.615,4.777-2.947A.436.436,0,0,1,5794.823-868.692Z" transform="translate(-5771.049 878.252)"/></g><g transform="translate(29.014 23.924)"><path class="b" d="M5840.713-904.96l2.093,4.246-4.958-.534Z" transform="translate(-5837.414 905.394)"/><path class="b" d="M5841.74-901.347l-.046,0-4.958-.534a.436.436,0,0,1-.353-.261.432.432,0,0,1,.056-.435l2.865-3.712a.436.436,0,0,1,.387-.167.436.436,0,0,1,.346.24l2.093,4.246a.435.435,0,0,1-.033.44A.436.436,0,0,1,5841.74-901.347Zm-4.142-1.316,3.4.366-1.436-2.914Z" transform="translate(-5836.348 906.46)"/></g></g><g transform="translate(55.98)"><g transform="translate(0 0)"><path class="b" d="M5765.655-1260.081a20.991,20.991,0,0,0,10.938-1.683,44.962,44.962,0,0,0,9.887-7.152s3.261-.631,7.573,5.049a6.844,6.844,0,0,0-6.311,5.89s-6.1-1.893-6.1,6.206c0,0-5.364-5.259-8.835-.21,0,0-5.575-2.314-8.31,1.052A12.188,12.188,0,0,1,5765.655-1260.081Z" transform="translate(-5763.95 1269.084)"/><path class="b" d="M5764.161-1251.148l-.024,0a.147.147,0,0,1-.112-.094,12.454,12.454,0,0,1,1.165-9.266.14.14,0,0,1,.149-.076,21.016,21.016,0,0,0,10.855-1.67,45.178,45.178,0,0,0,9.85-7.126.139.139,0,0,1,.074-.039c.135-.027,3.4-.583,7.715,5.1a.145.145,0,0,1,.016.149.143.143,0,0,1-.125.083,6.639,6.639,0,0,0-6.173,5.77.143.143,0,0,1-.067.1.145.145,0,0,1-.119.015,4.874,4.874,0,0,0-3.932.577c-1.314.97-1.981,2.817-1.981,5.49a.144.144,0,0,1-.089.133.143.143,0,0,1-.157-.03c-.027-.026-2.693-2.6-5.4-2.34a4.4,4.4,0,0,0-3.21,2.109.146.146,0,0,1-.175.052c-.055-.023-5.507-2.233-8.141,1.009A.146.146,0,0,1,5764.161-1251.148Zm1.239-9.139a12.406,12.406,0,0,0-1.176,8.7c2.6-2.868,7.409-1.227,8.193-.933a4.633,4.633,0,0,1,3.355-2.139c2.388-.234,4.659,1.555,5.393,2.2.053-2.6.758-4.413,2.1-5.4a5,5,0,0,1,4.028-.662,6.976,6.976,0,0,1,6.153-5.828c-3.867-4.983-6.86-4.835-7.233-4.793a45.293,45.293,0,0,1-9.89,7.146A21.273,21.273,0,0,1,5765.4-1260.287Z" transform="translate(-5763.613 1269.447)"/></g><g transform="translate(9.448 3.661)"><path class="b" d="M5796.342-1251.778s-.648-3.559,2.4-4.716a4.325,4.325,0,0,1,4.943,1.473S5799.919-1250.621,5796.342-1251.778Z" transform="translate(-5796.285 1256.788)"/></g><g transform="translate(7.766 3.6)"><path class="b" d="M5793.7-1255.552l-2.735-.947,2.314,2.524Z" transform="translate(-5790.824 1256.643)"/><path class="b" d="M5792.926-1254.185a.145.145,0,0,1-.106-.047l-2.314-2.525a.144.144,0,0,1-.014-.177.143.143,0,0,1,.167-.057l2.734.946a.144.144,0,0,1,.093.174l-.421,1.578a.145.145,0,0,1-.105.1A.131.131,0,0,1,5792.926-1254.185Zm-1.821-2.345,1.75,1.909.318-1.193Z" transform="translate(-5790.467 1256.999)"/></g><g transform="translate(13.13 0.76)"><path class="b" d="M5809.518-1263.374l.947-2.945.21,3.261Z" transform="translate(-5809.373 1266.463)"/><path class="b" d="M5810.319-1263.268a.149.149,0,0,1-.038-.005l-1.157-.316a.144.144,0,0,1-.089-.07.144.144,0,0,1-.011-.113l.946-2.945a.147.147,0,0,1,.156-.1.144.144,0,0,1,.126.134l.211,3.261a.145.145,0,0,1-.053.121A.146.146,0,0,1,5810.319-1263.268Zm-.973-.56.816.222-.148-2.3Z" transform="translate(-5809.018 1266.818)"/></g><g transform="translate(13.302 4.69)"><ellipse class="c" cx="0.21" cy="0.368" rx="0.21" ry="0.368" transform="matrix(0.916, -0.402, 0.402, 0.916, 0, 0.169)"/></g><g transform="translate(11.549 5.497)"><ellipse class="c" cx="0.21" cy="0.368" rx="0.21" ry="0.368" transform="matrix(0.916, -0.402, 0.402, 0.916, 0, 0.169)"/></g></g><g transform="translate(177.428 6.995)"><g transform="translate(0 0)"><path class="b" d="M6362.724-1264.96s6.7,8.149,16.64,11.041,21.879,2.465,21.879,2.465,5.116,3.118,3.972,15.934a12.349,12.349,0,0,0-15.574.194s-5.84-9.936-15.677.87c0,0-.77-13.532-11.533-11.012,0,0-4.627-9.858-12.363-8.689C6350.066-1254.156,6353.083-1261.418,6362.724-1264.96Z" transform="translate(-6349.922 1265.105)"/><path class="b" d="M6373.607-1234.667a.148.148,0,0,1-.048-.008.146.146,0,0,1-.1-.128c0-.068-.433-6.8-4.414-9.773a8.054,8.054,0,0,0-6.941-1.106.146.146,0,0,1-.164-.079c-.046-.1-4.673-9.746-12.211-8.607a.141.141,0,0,1-.136-.054.146.146,0,0,1-.02-.145c.03-.073,3.152-7.361,12.742-10.884a.144.144,0,0,1,.162.044c.066.081,6.785,8.148,16.568,10.994,9.806,2.852,21.712,2.464,21.833,2.46a.134.134,0,0,1,.081.021c.212.129,5.181,3.312,4.042,16.071a.145.145,0,0,1-.09.12.144.144,0,0,1-.147-.023c-.074-.062-7.42-6.082-15.392.2a.143.143,0,0,1-.117.028.146.146,0,0,1-.1-.069c-.022-.037-2.2-3.665-6.033-4.062-2.971-.308-6.139,1.36-9.413,4.956A.144.144,0,0,1,6373.607-1234.667Zm-9-11.613a7.5,7.5,0,0,1,4.611,1.473c3.572,2.671,4.357,8.244,4.5,9.657,3.262-3.5,6.436-5.119,9.437-4.807,3.54.368,5.71,3.378,6.161,4.064a12.5,12.5,0,0,1,15.417-.258c.984-11.8-3.458-15.209-3.893-15.513-.833.024-12.34.3-21.877-2.473-9.348-2.719-15.917-10.158-16.644-11.009a22.374,22.374,0,0,0-12.371,10.454c7.172-.864,11.674,7.65,12.2,8.7A11.2,11.2,0,0,1,6364.611-1246.28Z" transform="translate(-6349.565 1265.461)"/></g><g transform="translate(23.616 5.3)"><path class="b" d="M6431.228-1243.259s3.458-5.536,8.932-3.375,4.807,7.969,4.807,7.969S6434.595-1237.371,6431.228-1243.259Z" transform="translate(-6431.228 1247.134)"/></g><g transform="translate(27.326 0.521)"><path class="b" d="M6447.056-1258.576l-2.5-4.585.021,6.178Z" transform="translate(-6444.413 1263.305)"/><path class="b" d="M6444.224-1257.193a.143.143,0,0,1-.068-.018.143.143,0,0,1-.076-.126l-.021-6.179a.144.144,0,0,1,.108-.141.146.146,0,0,1,.163.071l2.5,4.584a.145.145,0,0,1-.049.191l-2.478,1.594A.145.145,0,0,1,6444.224-1257.193Zm.126-5.752.018,5.344,2.143-1.379Z" transform="translate(-6444.059 1263.66)"/></g><g transform="translate(34.355 4.397)"><path class="b" d="M6468.865-1246.977l4.841-2.78-3.681,4.606Z" transform="translate(-6468.721 1249.902)"/><path class="b" d="M6469.67-1245.362h-.008a.144.144,0,0,1-.114-.067l-1.161-1.826a.146.146,0,0,1-.019-.112.144.144,0,0,1,.068-.091l4.84-2.779a.144.144,0,0,1,.181.031.143.143,0,0,1,0,.185l-3.68,4.606A.143.143,0,0,1,6469.67-1245.362Zm-.957-1.921.971,1.528,3.078-3.853Z" transform="translate(-6468.366 1250.257)"/></g><g transform="translate(32.886 8.701)"><ellipse class="c" cx="0.664" cy="0.38" rx="0.664" ry="0.38" transform="translate(0 1.259) rotate(-71.37)"/></g><g transform="translate(29.567 7.648)"><ellipse class="c" cx="0.664" cy="0.38" rx="0.664" ry="0.38" transform="translate(0 1.259) rotate(-71.37)"/></g></g><g transform="translate(0.928 18.299)"><g transform="translate(0 24.247)"><path class="d" d="M5833.65-1094.439s-43.5-45.685-63.895-45.587-28.026,20.235-28.026,20.235,22.35.042,21,16.023c0,0,12.973-.438,14.221,9.456,0,0,11.386-2.9,13.673,4.809,0,0,9.13-4.244,13.82,4.133,0,0,9.2-5.219,17.473-.31C5821.918-1085.678,5827.271-1095.386,5833.65-1094.439Z" transform="translate(-5741.006 1140.748)"/><path class="e" d="M5802.668-1086.422a.724.724,0,0,1-.194-.026.721.721,0,0,1-.437-.343c-4.313-7.7-12.537-3.993-12.885-3.831a.722.722,0,0,1-.6,0,.726.726,0,0,1-.4-.454c-2.062-6.953-12.693-4.341-12.8-4.313a.725.725,0,0,1-.585-.1.723.723,0,0,1-.311-.507c-1.149-9.117-12.98-8.841-13.479-8.824a.716.716,0,0,1-.549-.225.727.727,0,0,1-.2-.558,11.435,11.435,0,0,0-2.851-9.066c-5.568-6.073-17.314-6.174-17.433-6.174a.724.724,0,0,1-.594-.313.723.723,0,0,1-.081-.666,37.082,37.082,0,0,1,6.5-10.3,29.387,29.387,0,0,1,22.2-10.4h.069c8.641,0,22.1,7.713,40,22.928,13.3,11.3,24.243,22.768,24.353,22.883a.724.724,0,0,1,.119.832.727.727,0,0,1-.749.382c-5.806-.862-10.94,8.3-10.993,8.395a.72.72,0,0,1-.443.348.72.72,0,0,1-.558-.076c-7.823-4.642-16.659.266-16.748.317A.722.722,0,0,1,5802.668-1086.422Zm-8.6-6.633a9.989,9.989,0,0,1,8.874,4.955c2.21-1.076,9.749-4.167,16.936-.332,1.213-1.984,5.232-7.912,10.272-8.521-7.123-7.276-44.092-44.126-62.1-44.126h-.063c-8.229.04-15.325,3.362-21.093,9.873a37.652,37.652,0,0,0-5.855,8.952c3.162.167,12.385,1.126,17.411,6.6a12.642,12.642,0,0,1,3.277,9.395c2.844.1,12.438,1.069,14.043,9.292,4.183-.858,11.31-.772,13.52,4.742A14.925,14.925,0,0,1,5794.067-1093.055Z" transform="translate(-5739.229 1142.525)"/><g transform="translate(22.631 0.951)"><path class="e" d="M5882.381-1092.252a.72.72,0,0,1-.524-.226c-.43-.454-43.2-45.314-63.506-45.314h-.132a.732.732,0,0,1-.729-.716.723.723,0,0,1,.716-.73h.145c8.809,0,22.336,7.692,40.214,22.867,13.319,11.3,24.233,22.784,24.342,22.9a.723.723,0,0,1-.027,1.022A.719.719,0,0,1,5882.381-1092.252Z" transform="translate(-5817.489 1139.238)"/></g><g transform="translate(21.002 12.132)"><path class="e" d="M5812.577-1075a.718.718,0,0,1-.223-.036.722.722,0,0,1-.464-.91c.179-.552,4.631-13.635,26.547-24.551a.724.724,0,0,1,.97.325.723.723,0,0,1-.325.97c-21.319,10.618-25.775,23.574-25.818,23.7A.724.724,0,0,1,5812.577-1075Z" transform="translate(-5811.854 1100.571)"/></g><g transform="translate(35.223 22.521)"><path class="e" d="M5861.752-1040.006a.708.708,0,0,1-.213-.033.722.722,0,0,1-.478-.9,32.416,32.416,0,0,1,4.94-8.951,44.872,44.872,0,0,1,19.743-14.7.723.723,0,0,1,.937.409.723.723,0,0,1-.408.937c-18.891,7.416-23.784,22.581-23.831,22.733A.723.723,0,0,1,5861.752-1040.006Z" transform="translate(-5861.029 1064.646)"/></g><g transform="translate(48.896 30.521)"><path class="e" d="M5909.034-1015.535a.719.719,0,0,1-.281-.057.722.722,0,0,1-.384-.947c.287-.68,7.2-16.706,21.765-20.422a.724.724,0,0,1,.879.522.723.723,0,0,1-.522.879c-13.858,3.536-20.723,19.424-20.791,19.584A.723.723,0,0,1,5909.034-1015.535Z" transform="translate(-5908.312 1036.984)"/></g><g transform="translate(62.716 39.823)"><path class="e" d="M5956.824-988.537a.721.721,0,0,1-.488-.19.723.723,0,0,1-.045-1.021c.446-.486,10.99-11.943,17.5-15a.724.724,0,0,1,.962.348.724.724,0,0,1-.348.962c-6.256,2.936-16.945,14.55-17.052,14.667A.721.721,0,0,1,5956.824-988.537Z" transform="translate(-5956.102 1004.817)"/></g></g><g transform="translate(37.737 71.369)"><g transform="translate(0 3.344)"><path class="e" d="M5891.557-958.149a1.449,1.449,0,0,1-.468-.078L5870.7-965.2a1.447,1.447,0,0,1-.9-1.836,1.446,1.446,0,0,1,1.837-.9l20.385,6.971a1.445,1.445,0,0,1,.9,1.836A1.448,1.448,0,0,1,5891.557-958.149Z" transform="translate(-5869.725 968.014)"/></g><g transform="translate(0)"><path class="e" d="M5871.174-968.152a1.445,1.445,0,0,1-1.155-.574,1.446,1.446,0,0,1,.281-2.026l3.815-2.886-1.707-3.915a1.446,1.446,0,0,1,.748-1.9,1.446,1.446,0,0,1,1.9.748l2.163,4.959a1.447,1.447,0,0,1-.454,1.731l-4.724,3.573A1.439,1.439,0,0,1,5871.174-968.152Z" transform="translate(-5869.727 979.576)"/></g></g><g transform="translate(48.574)"><g transform="translate(62.061 79.672)"><path class="e" d="M6149.813-903.872a1.446,1.446,0,0,1-1.24-.7l-26.562-44.1a1.446,1.446,0,0,1,.493-1.985,1.445,1.445,0,0,1,1.984.493l25.876,42.961,3.688-1.819a1.447,1.447,0,0,1,1.937.657,1.446,1.446,0,0,1-.658,1.936l-4.88,2.407A1.438,1.438,0,0,1,6149.813-903.872Z" transform="translate(-6121.804 950.864)"/></g><g transform="translate(28.721 95.777)"><path class="e" d="M6013.354-863.408a1.435,1.435,0,0,1-.2-.013l-5.393-.73a1.446,1.446,0,0,1-1.239-1.627,1.443,1.443,0,0,1,1.627-1.239l4.153.562,7.917-27.671a1.448,1.448,0,0,1,1.788-.993,1.445,1.445,0,0,1,.992,1.788l-8.261,28.874A1.446,1.446,0,0,1,6013.354-863.408Z" transform="translate(-6006.514 895.174)"/></g><g transform="translate(5.046 20.776)"><path class="f" d="M6003.155-1152.08c2-5.337,6.676.67,6.676.67,5.116-4.728,9.584,4.424,9.584,4.424,5.337-3.706,6.875,7.361,6.875,7.361,4.227-1.334,4.671,4.45,4.671,4.45a33.1,33.1,0,0,1,5.115,3.113c3.115,2.226-2.892,5.117-2.892,5.117s1.782-.445,5.117,2.894-.445,4-.445,4l.891,3.114c.888,3.114-3.777,3.114-3.777,3.114a8.1,8.1,0,0,1,2.45,3.558c1.111,2.669-4,3.335-4,3.335s2.224,1.56,1.558,5.116-6.45,2-6.45,2,.666,1.556.22,5.116-6.671-.224-6.671-.224-1.113-.221-.446,4.449-5.337,2.45-5.337,2.45,1.11.888.889,4.227-5.562,2.222-5.562,2.222c2.669,3.339-6.9,5.783-6.9,5.783a4.019,4.019,0,0,0-3.336,3.777c-.221,3.337-7.338,1.558-7.338,1.558s-4.227,1.336-5.117,4.45-5.783-.667-5.783-.667a13.186,13.186,0,0,1-5.337,1.556,3.843,3.843,0,0,1-4.005-2.45,18.492,18.492,0,0,1-4,1.781c-2.225.667-4.67-2.67-4.67-2.67s-.445,3.115-4.228,2.45-2.45-5.783-2.45-5.783a11.659,11.659,0,0,1-4.894,4.225c-3.558,1.779-5.337-5.338-5.337-5.338s-.889,1.556-5.117,4.227-5.56-7.119-5.56-7.119-2.67,2.45-8.007.667,0-8.453,0-8.453-1.115,3.116-4,.225,2.224-8.454,2.224-8.454c-4.227-2.669.89-8.007.89-8.007-4.226-6.008,2.893-12.677,2.893-12.677s-2.893-6.674,0-6.9a23.305,23.305,0,0,1,5.337.222s-.892-7.119,3.335-5.783,5.118-.223,5.118-.223-.89-3.113,1.556-4a6.43,6.43,0,0,1,4.669.221s-.445-6,1.112-6.227,3.34,1.558,3.34,1.558,1.333-3.337,3.335-3.114a13.8,13.8,0,0,1,3.558.89s.892-2.671,2-2.671a21.926,21.926,0,0,0,4.449-1.333s.669-3.777,2.226-3.777,3.558.221,3.558.221.892-3.335,3.56-3.11,4.894.221,4.894.221.221-4.227,3.114-3.116a19.9,19.9,0,0,0,6.227,1.113s-2.224-4.45,1.113-3.561a40.122,40.122,0,0,0,5.336,1.113s-.887-2.45.667-3.559S6003.155-1152.08,6003.155-1152.08Z" transform="translate(-5924.647 1154.527)"/></g><g transform="translate(43.629 39.314)"><path class="g" d="M6128.022-1081.369s6.007-2.891,2.892-5.116a33.1,33.1,0,0,0-5.114-3.114s-.016-.176-.059-.448c-1.439.486-1.708,1.282-1.708,1.282a2.094,2.094,0,0,1-1.969-1.314c-.816-1.476-1.476,2.3-1.476,2.3a3.768,3.768,0,0,1-2.134,0c-1.311-.329-1.146,3.115-1.146,3.115s-.658,1.807-3.283.658-2.789,4.429-2.789,4.429a3.815,3.815,0,0,1-3.61-1.475c-1.8-1.971-3.116,3.607-3.116,3.607a2.246,2.246,0,0,1-2.79-.163c-1.641-1.15-4.431,4.1-4.431,4.1a2.462,2.462,0,0,1-3.116,0c-1.477-1.31-1.036,3.444-1.036,3.444s-.863,4.248-3.491,2.935-2.972,3.251-2.972,3.251-1.689-.605-2.348,2.513-7.548.817-7.548.817l-12.47.657s-6.4,17.392-6.234,23.956c.1,3.862,1.957,9.6,3.8,14.971a3.238,3.238,0,0,0,2.755.76,18.472,18.472,0,0,0,4-1.781,3.842,3.842,0,0,0,4,2.45,13.184,13.184,0,0,0,5.337-1.556s4.9,3.777,5.783.667,5.116-4.45,5.116-4.45,7.118,1.779,7.339-1.558a4.019,4.019,0,0,1,3.336-3.777s9.565-2.444,6.9-5.783c0,0,5.34,1.112,5.562-2.222s-.888-4.227-.888-4.227,6,2.225,5.337-2.45.445-4.449.445-4.449,6.227,3.777,6.671.224-.22-5.117-.22-5.117,5.783,1.556,6.45-2-1.558-5.116-1.558-5.116,5.114-.667,4-3.335a8.111,8.111,0,0,0-2.45-3.558s4.67,0,3.777-3.114l-.891-3.114s3.777-.667.445-4S6128.022-1081.369,6128.022-1081.369Z" transform="translate(-6058.069 1090.421)"/></g><g transform="translate(81.041 88.057)"><path class="h" d="M6187.5-919.37s.678,3.077,2.546,2.375a12.442,12.442,0,0,0,4.51-2.889,8.545,8.545,0,0,0,1.235-1.983s.255,2.665-3.062,4.477S6187.031-914.927,6187.5-919.37Z" transform="translate(-6187.439 921.867)"/></g><g transform="translate(80.275 78.745)"><path class="h" d="M6191.725-954.071a6.475,6.475,0,0,1-3.28,3.172c-2.412,1.033-3.655.063-3.655.063a2.083,2.083,0,0,0,2.463,1.475C6189.256-949.685,6193.027-952.162,6191.725-954.071Z" transform="translate(-6184.79 954.071)"/></g><g transform="translate(84.853 71.355)"><path class="h" d="M6206.763-979.625s-1.45,2.134-3.071,2.543a5.63,5.63,0,0,1-3.071-.14,2.4,2.4,0,0,0,3.255.936,2.417,2.417,0,0,0,.4-.278C6206.721-978.15,6206.825-978.477,6206.763-979.625Z" transform="translate(-6200.621 979.625)"/></g><g transform="translate(109.332 44.426)"><path class="h" d="M6291.531-1072.744s-.794,1.918-2.215,2.21a10.977,10.977,0,0,1-4.048-.542s.084,2.006,1.794,2.086,2.633.085,3.675-.751S6293.83-1072.454,6291.531-1072.744Z" transform="translate(-6285.269 1072.744)"/></g><g transform="translate(110.037 39.683)"><g transform="translate(3.438 17.267)"><path class="i" d="M6305.266-1028.013c-.166-.573-.3-1.038-.409-1.421.205,1.055.205,2.265-.715,2.568a3.785,3.785,0,0,1-3.239-.226,11.4,11.4,0,0,1-1.308-1.646s.306,2.905,1.887,3.839C6301.484-1024.9,6306.153-1024.9,6305.266-1028.013Z" transform="translate(-6299.595 1029.434)"/></g><g transform="translate(0.938 21.802)"><path class="i" d="M6296.918-1009.577a4.312,4.312,0,0,1-3.636,1.137,15.937,15.937,0,0,1-2.333-.968s2.1,2.1,3.924,1.708a21.424,21.424,0,0,0,2.734-.828,1.577,1.577,0,0,0,.178-1.668,8.116,8.116,0,0,0-2.45-3.559S6297.488-1010.2,6296.918-1009.577Z" transform="translate(-6290.949 1013.754)"/></g><g transform="translate(4.198 8.696)"><path class="i" d="M6303.97-1053.22l2.276,1.021s3.777-.667.445-4c-2.17-2.171-3.675-2.741-4.467-2.872,1.258.831,5.465,3.728,4.932,4.94C6306.527-1052.707,6303.97-1053.22,6303.97-1053.22Z" transform="translate(-6302.224 1059.073)"/></g><path class="i" d="M6289.27-1087.5s4.436,1.762,4.1,3.3a12.12,12.12,0,0,1-1.821,3.527l.054.035c1.225-.66,5.206-3.042,2.546-4.94a33.118,33.118,0,0,0-5.114-3.113s-.017-.177-.059-.448a3.56,3.56,0,0,0-1.263.7Z" transform="translate(-6287.708 1089.145)"/></g><g transform="translate(63.961 56.04)"><path class="h" d="M6173.549-1008.008c.447-3.561-.22-5.116-.22-5.116s5.782,1.556,6.449-2-1.558-5.116-1.558-5.116,5.114-.667,4-3.335a8.1,8.1,0,0,0-2.45-3.559s2.492,0,3.485-1.225a22.365,22.365,0,0,0-1.068-4.22s-.063,2.54-1.461,2.792-4.251-2.538-4.251-2.538a5.083,5.083,0,0,0,.511,1.966,23.186,23.186,0,0,0,2.222,3.176,12.794,12.794,0,0,1,2.144,4.227c.5,2.133-6.588,1.225-6.588,1.225a12.334,12.334,0,0,1,2.666,2.476c.888,1.269.38,1.4-.763,3.618s-7.615.7-7.615.7l3.237,1.652s.318.19.318,2.094-1.589,3.3-4.127,2.094a4.821,4.821,0,0,1-2.79-3.552,5.257,5.257,0,0,0-.065,1.333c.065.7.447,3.109.447,3.675a15.534,15.534,0,0,1-1.461,4.572c-.951,2.031-5.521-1.078-5.521-1.078a28.8,28.8,0,0,1,1.9,3.935,3.675,3.675,0,0,1-2.094,4.379c-1.9.95-6.982-1.461-6.982-1.461s2.412,2.03,2.666,3.045-2.475,3.363-5.711,4.064a8.741,8.741,0,0,1-5.522-.51,6.352,6.352,0,0,1,1.458,1.837c.254.761.191,1.587-1.586,3.11s-7.105-1.016-7.105-1.016l-7.744-1.078s.951,5.075,1.269,5.711c.173.34,1.2,2.234,2.167,4.015a1.575,1.575,0,0,0,1.908-1.15c0-.016.008-.032.012-.049.89-3.114,5.116-4.45,5.116-4.45s7.117,1.779,7.338-1.558a4.02,4.02,0,0,1,3.337-3.777s9.565-2.444,6.9-5.783c0,0,5.34,1.113,5.563-2.222s-.889-4.227-.889-4.227,6,2.224,5.337-2.45.444-4.449.444-4.449S6173.105-1004.45,6173.549-1008.008Z" transform="translate(-6128.376 1032.583)"/></g><g transform="translate(57.289 69.185)"><path class="j" d="M6121.737-951.179a8.965,8.965,0,0,0-3.337-6.436,5.53,5.53,0,0,0,1.681-1.612c1.049-1.327.91-4.41.42-6.16a35.617,35.617,0,0,0-3.012-5.743,22.711,22.711,0,0,0,.2-4.34c-.139-2.1-3.287-3.71-3.287-3.71s1.887-3.079,1.887-5.182a3.227,3.227,0,0,0-.573-2,15.335,15.335,0,0,1-5.372-.763l-1.79.093a71.785,71.785,0,0,0-2.275,7.154,16.671,16.671,0,0,0-.7,5.321c-.071,1.123-.279,7.771-.279,14.983,0,4.744,1.481,9.447,2.837,13.169a12.732,12.732,0,0,0,3.408-1.268s4.9,3.777,5.783.667C6117.991-949.321,6120.492-950.648,6121.737-951.179Z" transform="translate(-6105.303 987.127)"/></g><g transform="translate(5.045 54.105)"><path class="k" d="M5990.757-1001.488a24.5,24.5,0,0,0-3.944-7.248s3.584-6.206-2.144-7.24c0,0,5.375-8.624.715-8.278s-4.661-3.1-4.661-3.1-3.582-3.45-5.731-1.379c0,0-2.508-7.589-5.734-3.45l-5.734,2.071s0-5.865-3.943-3.793a22.7,22.7,0,0,1-7.523,2.414s2.506-6.209-2.152-3.448a42.077,42.077,0,0,0-7.168,5.174s1.078-5.865-1.791-4.14-3.226-.69-3.226-.69a5.369,5.369,0,0,0-.909-4.677,13.841,13.841,0,0,0,.063,2.042,23.267,23.267,0,0,0-5.338-.222c-2.892.222,0,6.9,0,6.9s-7.117,6.669-2.892,12.677c0,0-5.116,5.338-.89,8.008,0,0-5.114,5.562-2.224,8.453,1.585,1.583,2.631,1.362,3.258.84-1.25,1.956-3.261,6.052.748,7.387,5.336,1.779,8.008-.667,8.008-.667s1.333,9.788,5.56,7.119,5.116-4.227,5.116-4.227,1.78,7.117,5.338,5.338a11.655,11.655,0,0,0,4.893-4.225s-1.334,5.116,2.45,5.783,4.229-2.45,4.229-2.45,2.45,3.337,4.67,2.67a18.506,18.506,0,0,0,4-1.781,3.843,3.843,0,0,0,4,2.45,13.186,13.186,0,0,0,5.338-1.556,13.845,13.845,0,0,0,1.953,1.22c4.449,2.492,5.19-1.98,4.687-4.713-1.075-5.865-2.959-7.044-2.959-7.044S5992.551-996.658,5990.757-1001.488Z" transform="translate(-5924.646 1039.276)"/></g><g transform="translate(54.534 91.645)"><path class="l" d="M6098.009-906.955c1.216-.026,2.2-.609,2.181-1.3s-1.018-1.232-2.234-1.207-2.2.611-2.181,1.3S6096.793-906.929,6098.009-906.955Z" transform="translate(-6095.775 909.462)"/></g><g transform="translate(19.863 89.789)"><path class="l" d="M5978.118-913.37c1.218-.026,2.2-.609,2.182-1.3s-1.017-1.233-2.233-1.208-2.2.609-2.182,1.3S5976.905-913.344,5978.118-913.37Z" transform="translate(-5975.885 915.878)"/></g><g transform="translate(74.967 94.23)"><path class="h" d="M6166.462-900.524s.33,3.359,2.372,3.689,3.3-.2,4.021-.987a7.516,7.516,0,0,0,1.186-1.912s-1.055,3.755-3.03,3.954S6166.133-895.121,6166.462-900.524Z" transform="translate(-6166.436 900.524)"/></g><g transform="translate(104.927 63.88)"><path class="h" d="M6276.436-1003.995s.612,1.6-1.967,2.707a5.077,5.077,0,0,1-4.432,0s3.691-.37,4.614-1.106,1.291-1.6,1.107-1.969a10.754,10.754,0,0,1-.432-1.108S6276.5-1005.04,6276.436-1003.995Z" transform="translate(-6270.037 1005.472)"/></g><g transform="translate(88.51 79.332)"><path class="h" d="M6213.266-947.6a2.469,2.469,0,0,0,2.482,1.244c1.688-.267,4.257.086,5.323-2.4s.714-3.284.714-3.284,1.327,3.019-.533,4.791S6214.6-943.787,6213.266-947.6Z" transform="translate(-6213.266 952.038)"/></g><g transform="translate(100.831 65.002)"><path class="h" d="M6258.187-1001.593s3.124,1.512,2.52,4.233-4.836,3.728-4.836,3.728,3.525-1.308,3.326-3.627A17.176,17.176,0,0,0,6258.187-1001.593Z" transform="translate(-6255.871 1001.593)"/></g><g transform="translate(111.971 49.818)"><path class="h" d="M6294.394-1054.1a3.908,3.908,0,0,0,1.187,2.326c1.033.879,2.946,1.913,3.879,1.859l.931-.051s-.517,1.446-3.307,0A4.467,4.467,0,0,1,6294.394-1054.1Z" transform="translate(-6294.394 1054.099)"/></g><g transform="translate(95.467 70.693)"><path class="h" d="M6242.448-981.318a2.42,2.42,0,0,1,.9,2.64c-.53,1.64-3.539,4.965-5.387,4.227s.792-.424,2.058-1.584,2.381-4.067,1.956-5.018S6241.605-982.268,6242.448-981.318Z" transform="translate(-6237.325 981.912)"/></g><g transform="translate(95.127 61.511)"><path class="h" d="M6238.273-1013.666s.7,1.578-.037,2.531a5.156,5.156,0,0,1-2.089,1.429s2.494.33,2.859-1.5S6239.192-1013.224,6238.273-1013.666Z" transform="translate(-6236.147 1013.666)"/></g><g transform="translate(107.527 55.528)"><path class="h" d="M6281.152-1034.355s.7,1.58-.037,2.531a5.191,5.191,0,0,1-2.088,1.429s2.491.33,2.858-1.5S6282.069-1033.913,6281.152-1034.355Z" transform="translate(-6279.027 1034.355)"/></g><g transform="translate(98.042 71.466)"><path class="i" d="M6247.309-979.09a1.366,1.366,0,0,1,.071,1.311c-.307.868-1.113,2.05-1.15,1.538s.636-1.523.53-2.017S6246.8-979.584,6247.309-979.09Z" transform="translate(-6246.229 979.242)"/></g><g transform="translate(107.739 64.083)"><path class="i" d="M6281.308-1004.713s1.028,1.05.358,1.621-2.077.863-1.887.456.979-.263,1.052-.885S6281.141-1005,6281.308-1004.713Z" transform="translate(-6279.762 1004.77)"/></g><g transform="translate(108.285 56.424)"><path class="i" d="M6282.769-1031.256a.868.868,0,0,1-.27,1.2l-.037.022c-.766.547-.957.408-.715,0A10,10,0,0,1,6282.769-1031.256Z" transform="translate(-6281.648 1031.256)"/></g><g transform="translate(111.628 43.961)"><path class="m" d="M6296.193-1074.242a.885.885,0,0,1-.08,1.249.868.868,0,0,1-.207.136c-.931.668-2.725.885-2.7.6s1.242-.216,1.791-.715l.551-.5S6296.1-1074.72,6296.193-1074.242Z" transform="translate(-6293.208 1074.351)"/></g><g transform="translate(115.065 52.138)"><path class="i" d="M6307.965-1045.8a.874.874,0,0,1-.882.865.887.887,0,0,1-.218-.03c-1.1-.119-2.129-.479-1.648-.693s1.242.191,1.6,0S6307.918-1046.4,6307.965-1045.8Z" transform="translate(-6305.095 1046.075)"/></g><g transform="translate(76.362 93.694)"><path class="i" d="M6171.263-901.274s.491,1.348,1.409,1.1,1.959-.735.857-1.164a7.3,7.3,0,0,1-1.837-1.039S6171.2-902.375,6171.263-901.274Z" transform="translate(-6171.258 902.374)"/></g><g transform="translate(69.954 76.912)"><path class="i" d="M6149.108-959.758a5.636,5.636,0,0,1,1.2,2.552c0,1.052,1.2-.55.7-1.853S6148.959-960.961,6149.108-959.758Z" transform="translate(-6149.098 960.409)"/></g><g transform="translate(94.845 61.427)"><path class="m" d="M6236.862-1013.584s0,2.1-1.152,2.3-.1-.6-.05-1.252S6236.812-1014.637,6236.862-1013.584Z" transform="translate(-6235.173 1013.956)"/></g><g transform="translate(7.709 23.058)"><path class="n" d="M6032.835-1134.012a20.04,20.04,0,0,0-1.736-5.676c-4.044-.668-8.262-1.668-9.837-3.321-1.735-1.822-8.511-3.039-15.588-3.626a5.062,5.062,0,0,0,.25,1.5,40.14,40.14,0,0,1-5.337-1.113c-3.337-.89-1.113,3.561-1.113,3.561a19.907,19.907,0,0,1-6.227-1.113c-2.892-1.112-3.114,3.116-3.114,3.116s-2.227,0-4.894-.222-3.56,3.11-3.56,3.11-2-.222-3.558-.222-2.225,3.777-2.225,3.777a21.944,21.944,0,0,1-4.449,1.333c-1.112,0-2,2.671-2,2.671a13.8,13.8,0,0,0-3.559-.891c-2-.224-3.334,3.114-3.334,3.114s-1.78-1.777-3.339-1.558-1.112,6.227-1.112,6.227a6.43,6.43,0,0,0-4.669-.222c-2.45.891-1.556,4-1.556,4s-.89,1.558-5.119.223-3.335,5.783-3.335,5.783a23.274,23.274,0,0,0-5.338-.222c-2.892.222,0,6.9,0,6.9s-4.657,4.367-4.2,9.216c3.941,1.237,12.489,3.275,25.142,2.818,17.943-.647,28.127.646,37.664-3.879s25.214-16.49,33.622-21.984l10.584-6.924a28.288,28.288,0,0,0-3.388-1.94S6037.061-1135.347,6032.835-1134.012Z" transform="translate(-5933.855 1146.635)"/></g><g transform="translate(1.907 1.917)"><path class="o" d="M6022.772-1179.759s8.737-5.939,9.787-16.118-7.86-18.792-28.292-23.227c0,0-38.954-4.651-63.951,11.141s-26.523,36.75-26.523,46.464,8.842,12.753,26.523,12.148,31.258,2.077,43.755-5.819S6022.772-1179.759,6022.772-1179.759Z" transform="translate(-5913.792 1219.743)"/></g><g transform="translate(1.918 1.9)"><g transform="translate(6.878 20.876)"><path class="p" d="M6021.486-1122.013c-1.494-8.976-13.762-21.54-29.021-24.833-11.341-2.45-37.881,1.555-50.767,3.768a51,51,0,0,0-4.083,5.911c19.173-6.365,41.63-8.613,53.956-5.789,14.359,3.292,23.336,15.558,24.533,26.331.1.956.159,1.978.176,3.042l5.6-3.556A29.1,29.1,0,0,0,6021.486-1122.013Z" transform="translate(-5937.616 1147.613)"/></g><g transform="translate(70.181)"><path class="p" d="M6181.8-1217.911c-1.584-.44-3.245-.853-5-1.234a135.847,135.847,0,0,0-20.276-.479,67.574,67.574,0,0,1,17.491,2.756c13.985,4.646,21.75,17.713,21.914,28.55a45.73,45.73,0,0,1-.9,8.7l.279-.177a26.084,26.084,0,0,0,6.156-6.44,30.542,30.542,0,0,0,.34-6.929C6201.264-1200.86,6193.273-1211.854,6181.8-1217.911Z" transform="translate(-6156.517 1219.802)"/></g><g transform="translate(1.557 36.734)"><path class="p" d="M5964.425-1092.008c-9.6-2.069-30.088.477-43.967,2.654-.5,1.443-.905,2.853-1.244,4.228,16.626-4.171,34.01-5.352,44.314-2.989a32.258,32.258,0,0,1,24.025,23.422c.125-.077.247-.145.37-.224,1.574-.993,3.36-2.125,5.286-3.346C5990.958-1077.139,5979.077-1088.847,5964.425-1092.008Z" transform="translate(-5919.214 1092.774)"/></g><g transform="translate(0 50.198)"><path class="p" d="M5955.211-1045.45c-8.983-1.94-27.5.169-41.213,2.227-.1,1.359-.148,2.613-.167,3.746,15.415-3.423,30.97-4.267,40.483-2.086a32.424,32.424,0,0,1,19.907,13.951,34.72,34.72,0,0,0,5.746-2A43.529,43.529,0,0,0,5955.211-1045.45Z" transform="translate(-5913.831 1046.217)"/></g><g transform="translate(18.112 7.414)"><path class="p" d="M6060.545-1157.265a32.865,32.865,0,0,0,.222-11.3c-1.5-8.976-13.761-21.54-29.021-24.833-10.026-2.162-31.934.714-45.78,2.937-.373.224-.74.449-1.1.679a69.155,69.155,0,0,0-8.4,6.207c19.265-6.478,41.972-8.779,54.388-5.934,14.361,3.292,23.336,15.558,24.533,26.328a46.9,46.9,0,0,1-.114,9.273C6057.184-1155.126,6058.967-1156.259,6060.545-1157.265Z" transform="translate(-5976.461 1194.164)"/></g></g><g class="q" transform="translate(1.89 1.916)"><path class="r" d="M6032.485-1199.22c-1.061-8.7-10.112-15.942-28.262-19.884,0,0-38.954-4.651-63.951,11.14s-26.523,36.75-26.523,46.464a9.8,9.8,0,0,0,3.563,8.133c-4.274-13.317-.738-33.294,13.9-45.585,16.723-14.05,49.729-23.638,74.929-18.069C6023.158-1213.25,6029.9-1204.507,6032.485-1199.22Z" transform="translate(-5913.732 1219.743)"/></g><g class="s" transform="translate(3.139 13.563)"><path class="t" d="M6034.267-1161.919c.621-5.435-.17-12.5-6.546-17.549,0,0,4.906,9.367-5.131,18.288s-26.09,15.162-38.133,22.3-18.508,9.813-34.119,10.258-26.542.668-28.992-2.233a10.7,10.7,0,0,1-2.676-5.352s-3.045,4.316,4.391,13.1c4.415,2.042,11.171,2.7,20.287,2.387,17.678-.613,31.257,2.077,43.755-5.819s38.7-24.588,38.7-24.588A25.815,25.815,0,0,0,6034.267-1161.919Z" transform="translate(-5918.053 1179.468)"/></g><g class="s" transform="translate(5.579 21.05)"><path class="u" d="M6035.413-1142.625c-2.395,5.308-13.861,12.148-26.7,21.051s-36.11,15.4-52.879,16.087a118.358,118.358,0,0,1-29.347-2.691,30.728,30.728,0,0,0,2.567,3.471c4.415,2.042,11.172,2.7,20.288,2.386,17.678-.613,31.257,2.078,43.754-5.819s38.7-24.59,38.7-24.59a26.194,26.194,0,0,0,7.506-8.714,60.28,60.28,0,0,0-1.152-12.137A35.236,35.236,0,0,1,6035.413-1142.625Z" transform="translate(-5926.489 1153.579)"/></g><g transform="translate(50.955 110.562)"><path class="n" d="M6083.4-844.047" transform="translate(-6083.4 844.047)"/></g><path class="e" d="M5986.712-1224.452h1.4l.485.009h.423l.487.011.4.009c.162,0,.321.009.481.012.123,0,.247,0,.369.009.169,0,.332.011.5.017l.321.009c.182.006.36.014.534.022l.25.009c.183,0,.361.014.539.02l.225.013q.729.034,1.392.071l.238.014c.139.008.276.016.409.026.081,0,.158.009.233.013.125.009.25.016.367.025l.239.016c.113.008.225.014.333.023a1.981,1.981,0,0,1,.2.016c.111.006.221.016.325.022l.188.014c.1.009.193.016.286.022l.187.016c.089.009.175.016.26.02l.151.015.242.022.14.011c.067.009.133.013.195.019s.1.008.146.014.1.009.15.013l.122.014.133.012.1.011.083.008.094.009.072.009a.3.3,0,0,1,.055.006l.1.011q.9.2,1.782.408l.579.142a.252.252,0,0,1,.055.013c.085.022.172.045.256.064.278.07.562.139.837.21.22.056.439.116.657.176q.51.132,1.008.273l.679.2c.313.091.622.184.928.275.227.068.453.139.675.2.295.093.587.188.877.282.22.072.439.144.653.219.287.1.567.2.846.3.2.074.417.148.624.225.281.1.557.21.832.315.19.074.386.147.576.223.324.13.639.264.957.4.272.117.544.233.812.354s.539.236.8.357c.2.1.408.2.612.293s.409.2.6.293.417.214.624.322c.177.094.355.187.529.281q.306.17.612.343c.161.091.321.182.475.274.2.122.408.242.613.365.14.086.281.174.417.264q.306.194.606.391c.12.079.237.161.354.242q.306.209.612.428c.086.06.166.122.247.183a24.645,24.645,0,0,1,2.826,2.425c.031.032.063.061.091.091.19.193.37.389.547.584.043.046.086.093.126.142.174.19.338.386.5.581l.115.144q.242.3.464.6l.089.122c.152.215.306.429.442.644.014.019.027.042.04.06a14.589,14.589,0,0,1,2.159,5.352l.006.034c.046.261.088.523.119.786v.009h0a14.939,14.939,0,0,1,.032,3.345,20.225,20.225,0,0,1-1.838,6.521l-.048.1c-.18.38-.367.747-.565,1.108l-.055.1a23.622,23.622,0,0,1-1.253,2.034c-.023.034-.048.071-.073.1-.1.147-.2.293-.307.437-.017.02-.031.042-.048.063-.1.137-.2.269-.3.4l-.022.032-.173.219c-.01.012-.02.027-.028.038-.156.2-.306.391-.466.577-.013.016-.022.031-.035.043-.221.266-.437.516-.655.757l-.075.085c-.12.133-.238.261-.356.386h0c-.171.184-.336.355-.5.523l-.009.009c-.126.127-.251.25-.372.372a.652.652,0,0,0-.068.065q-.289.274-.554.519l-.053.048-.383.341c.255.139.559.306.9.51l.01.006c.409.242.874.526,1.389.86l.026.015c.526.343,1.1.732,1.726,1.177a3.135,3.135,0,0,1,.384.327l.056.057a1.9,1.9,0,0,1,.244.321.556.556,0,0,1,.035.064,1.461,1.461,0,0,1,.134.326.377.377,0,0,1,.006.04,1.342,1.342,0,0,1,.032.312v.049a1.443,1.443,0,0,1-.055.322l-.02.071a1.965,1.965,0,0,1-.127.312.51.51,0,0,1-.033.062,2.648,2.648,0,0,1-.179.293l-.023.035c-.073.1-.156.2-.241.306l-.063.068c-.083.1-.174.187-.268.281a.7.7,0,0,0-.074.068c-.1.089-.2.181-.306.266l-.043.035c-.1.082-.2.159-.3.236l-.071.054c-.1.077-.21.153-.315.227l-.081.056c-.1.072-.21.14-.313.2a.389.389,0,0,0-.047.032l-.293.181a.2.2,0,0,1-.029.016c-.1.063-.2.115-.286.165-.011.008-.022.011-.034.019-.353.2-.59.312-.59.312a1.31,1.31,0,0,1,.229-.016,2.322,2.322,0,0,1,.42.038h0a4.12,4.12,0,0,1,.7.191.819.819,0,0,1,.083.033c.1.038.213.085.329.137l.147.071c.109.054.223.115.344.182a1.67,1.67,0,0,1,.147.082c.169.1.343.2.528.333.042.028.088.063.128.091.149.1.306.215.462.338.07.054.14.11.212.17.148.117.306.247.457.383.071.062.14.12.214.188.228.2.464.426.714.673,3.335,3.335-.445,4-.445,4l.485,1.7h0l.067.236c.1.333.2.721.339,1.184a1.964,1.964,0,0,1-.3,1.89h0c-.868,1.059-2.858,1.2-3.356,1.218h-.125a8.124,8.124,0,0,1,2.45,3.559,2.025,2.025,0,0,1,.139.483v.074a1.74,1.74,0,0,1,0,.364c0,.012-.008.029-.009.043a1.639,1.639,0,0,1-.1.352h0c-.69,1.581-4.034,2.017-4.034,2.017s2.225,1.56,1.558,5.117c-.357,1.9-2.167,2.342-3.776,2.342a11.545,11.545,0,0,1-2.669-.34s.666,1.556.22,5.117a1.609,1.609,0,0,1-1.679,1.537c-.043,0-.085-.005-.128-.011-1.984,0-4.864-1.749-4.864-1.749h-.023c-.157,0-1.031.184-.421,4.45.343,2.393-1.067,2.974-2.522,2.974a9.441,9.441,0,0,1-2.815-.526s1.11.888.889,4.227c-.133,2-2.108,2.4-3.666,2.4a10.26,10.26,0,0,1-1.9-.181c2.669,3.339-6.9,5.783-6.9,5.783a4.019,4.019,0,0,0-3.336,3.777c-.1,1.617-1.829,2.032-3.573,2.032a17.78,17.78,0,0,1-3.762-.475s-.284.091-.714.276c-.144.06-.306.137-.479.218l-.067.033c-.181.088-.372.185-.57.3l-.022.011c-.179.1-.363.215-.55.337-.044.029-.088.056-.13.086-.2.133-.4.275-.592.429l-.045.037c-.174.14-.346.3-.51.454-.045.046-.093.091-.139.137-.126.131-.245.271-.36.414-.187,1.585-.9,2.989-2.477,2.989a4.62,4.62,0,0,1-2.1-.627l-.161-.08-.028-.011a.885.885,0,0,0-.082-.043,14.025,14.025,0,0,1-1.293-.769l-.009-.008a2.541,2.541,0,0,1-.227-.155.147.147,0,0,1-.022-.014c-.064-.045-.119-.081-.163-.117l-.021-.016-.138-.1-.057.032h-.007a12.933,12.933,0,0,1-3.34,1.231h0a13.291,13.291,0,0,1-1.93.289c-.127.008-.247.013-.366.013a3.824,3.824,0,0,1-3.64-2.46,18.486,18.486,0,0,1-4,1.781,2.073,2.073,0,0,1-.392.073h-.393a1.158,1.158,0,0,1-.156-.017,2.292,2.292,0,0,1-.232-.045,1.667,1.667,0,0,1-.17-.042,2.129,2.129,0,0,1-.2-.072c-.06-.023-.119-.042-.178-.065s-.122-.057-.182-.088-.133-.062-.2-.1l-.015-.009a9.326,9.326,0,0,1-2.545-2.313,3.086,3.086,0,0,1-3.219,2.542,5.739,5.739,0,0,1-1.01-.094c-3.777-.666-2.45-5.783-2.45-5.783a11.655,11.655,0,0,1-4.893,4.225,2.509,2.509,0,0,1-1.123.286c-2.812,0-4.218-5.624-4.218-5.624s-.889,1.556-5.116,4.227a2.631,2.631,0,0,1-1.4.46c-3.13,0-4.162-7.579-4.162-7.579a6.612,6.612,0,0,1-4.308,1.317,11.627,11.627,0,0,1-3.7-.651,4.54,4.54,0,0,1-.612-.249c-.048-.026-.094-.045-.14-.071a4.051,4.051,0,0,1-.485-.3l-.008-.008a3.136,3.136,0,0,1-.376-.341c-.031-.031-.058-.062-.086-.1a2.778,2.778,0,0,1-.279-.378l-.006-.013a2.737,2.737,0,0,1-.19-.408l-.039-.11a2.922,2.922,0,0,1-.11-.437v-.019a3.193,3.193,0,0,1-.04-.442v-.126a4.064,4.064,0,0,1,.023-.462v-.029c.02-.151.043-.306.075-.454l.026-.13c.035-.154.075-.306.121-.468l.012-.036c.046-.148.1-.295.15-.439.017-.046.031-.088.048-.131.057-.15.117-.3.183-.443.006-.016.014-.032.021-.048.06-.137.125-.27.188-.4l.064-.125c.067-.134.137-.264.2-.392l.032-.053c.065-.12.13-.231.2-.341.022-.037.041-.071.062-.108l.2-.332h0a1.6,1.6,0,0,1-.238.169l-.044.024a2.172,2.172,0,0,1-.23.1l-.084.025a1.562,1.562,0,0,1-.23.046c-.038.006-.077.009-.116.013h-.068a1.207,1.207,0,0,1-.17-.008c-.058-.008-.1-.011-.145-.017a2.462,2.462,0,0,1-.254-.068c-.056-.017-.108-.03-.166-.054-.093-.037-.188-.088-.286-.137-.059-.031-.115-.056-.173-.093-.11-.067-.227-.15-.343-.238-.054-.038-.1-.071-.16-.115a6.655,6.655,0,0,1-.55-.493c-2.892-2.892,2.223-8.453,2.223-8.453-4.227-2.669.89-8.008.89-8.008a7.063,7.063,0,0,1-1.333-4.325v-.059a8.188,8.188,0,0,1,.075-.839l.009-.068c.021-.139.043-.276.071-.408a12.39,12.39,0,0,1-2.393-1.5h0a9.611,9.611,0,0,1-.832-.748h0a9.054,9.054,0,0,1-.723-.824h0a8.893,8.893,0,0,1-.579-.848l-.048-.08a8.666,8.666,0,0,1-.48-.934l-.014-.031c-.129-.3-.243-.612-.344-.928-.017-.06-.038-.121-.056-.184a9.713,9.713,0,0,1-.255-1.035c0-.02-.007-.04-.01-.06-.062-.326-.107-.669-.143-1.021-.009-.093-.017-.187-.023-.281-.031-.377-.051-.758-.051-1.153a57.193,57.193,0,0,1,1.569-13.883v-.009a48.452,48.452,0,0,1,5.316-13.048h0q.409-.694.857-1.4c.024-.037.046-.077.074-.114.292-.461.6-.919.918-1.379.026-.035.049-.071.074-.1q.486-.7,1.007-1.4c.014-.02.031-.04.046-.062.357-.479.725-.96,1.11-1.441h0a56.674,56.674,0,0,1,7.146-7.407h0l.007-.006q.918-.791,1.9-1.578h0c.627-.51,1.276-1,1.94-1.5l.093-.071c.612-.453,1.246-.9,1.893-1.347.094-.068.18-.133.275-.2q1.113-.76,2.295-1.508c.366-.229.732-.454,1.1-.679h0c13.335-7.98,30.3-10.426,43.248-10.97l.447-.02c.2-.006.408-.012.6-.02.164,0,.333-.013.5-.017.2-.006.391-.011.584-.014.166-.006.33-.011.494-.012.19-.006.376-.009.565-.016l.5-.009c.181,0,.36,0,.539-.006s.333,0,.5-.006.34,0,.51,0h1.491m41.129,20.519h0m-41.129-22.424h-2.517l-.543.009h-.248l-.25.006c-.2,0-.392.008-.582.011l-.494.011-.6.021c-.117,0-.25.008-.379.011l-.121.006-.613.02c-.145,0-.306.011-.457.019-12.439.52-30.2,2.9-44.141,11.239-.384.228-.763.461-1.144.7-.791.5-1.583,1.021-2.348,1.547-.071.048-.127.093-.187.133l-.1.074c-.747.517-1.365.959-1.939,1.376l-.083.065c-.715.533-1.388,1.052-2.009,1.549l-.026.021c-.65.523-1.293,1.058-1.908,1.592l-.028.02h0a59.15,59.15,0,0,0-7.384,7.656h0l-.021.025c-.4.5-.778.99-1.137,1.476h0l-.046.059c-.365.494-.714.985-1.044,1.461l-.073.108c-.352.51-.665.977-.954,1.429l-.043.07-.028.046c-.34.533-.63,1.007-.895,1.454l-.014.023a50.6,50.6,0,0,0-5.5,13.508l-.008.039a58.985,58.985,0,0,0-1.623,14.337c0,.408.017.823.054,1.3.009.1.02.2.029.306.045.446.1.829.162,1.181l.011.07a12.188,12.188,0,0,0,.306,1.225c.024.082.048.154.072.227.123.386.255.744.4,1.081l.018.043a10.919,10.919,0,0,0,.589,1.15.756.756,0,0,0,.042.067,11.133,11.133,0,0,0,.692,1.021l.032.043h0a11.553,11.553,0,0,0,.871.993,11.808,11.808,0,0,0,.963.875l.029.022h0a13.432,13.432,0,0,0,1.544,1.076l-.009.2v.094a8.88,8.88,0,0,0,.918,4.171c-1.009,1.341-2.394,3.666-2.106,6.023a4.9,4.9,0,0,0,.939,2.348c-2.015,2.767-3.728,6.865-.973,9.623a9.335,9.335,0,0,0,.7.63,2.538,2.538,0,0,0,.21.155,5.909,5.909,0,0,0,.51.349l.182.1c-.059.164-.114.327-.165.491-.009.029-.02.057-.027.086-.058.194-.1.392-.153.59-.011.035-.023.1-.035.159-.042.2-.074.408-.1.6a.124.124,0,0,1-.009.056h0c-.02.212-.034.431-.034.672v.159a5.748,5.748,0,0,0,.053.661c0,.028.011.053.013.08h0a4.742,4.742,0,0,0,.177.715c.022.067.041.116.059.169a4.581,4.581,0,0,0,.307.661c.016.028.03.057.046.083a4.577,4.577,0,0,0,.473.649c.061.068.1.119.152.167a5.1,5.1,0,0,0,.561.51l.064.048a5.608,5.608,0,0,0,.73.453c.056.028.127.067.2.1a7.4,7.4,0,0,0,.837.344,13.648,13.648,0,0,0,4.3.745,10.1,10.1,0,0,0,2.915-.415c.722,2.88,2.295,6.677,5.554,6.677a4.507,4.507,0,0,0,2.415-.754,33.448,33.448,0,0,0,3.339-2.376c.941,1.949,2.527,4.066,4.979,4.066a4.375,4.375,0,0,0,1.972-.486,16.359,16.359,0,0,0,2.335-1.419,5.16,5.16,0,0,0,.5,1,4.813,4.813,0,0,0,3.325,2.144,7.75,7.75,0,0,0,1.339.121,5.055,5.055,0,0,0,3.59-1.327,8.474,8.474,0,0,0,1.218.839l.03.017a.221.221,0,0,0,.045.026c.075.04.151.077.227.114l.04.017.261.123c.083.038.179.07.27.1s.213.077.329.11a2.9,2.9,0,0,0,.29.073,3.732,3.732,0,0,0,.394.072c.08.011.164.023.251.032.1.006.2.009.291.009h.212a1.654,1.654,0,0,0,.241-.013,4.161,4.161,0,0,0,.741-.145,19.637,19.637,0,0,0,2.8-1.1,5.638,5.638,0,0,0,4.3,1.854c.161,0,.329-.006.5-.02a14.616,14.616,0,0,0,2.213-.329h.012a15.7,15.7,0,0,0,2.818-.919c.386.244.773.469,1.159.667l.046.023.03.017h.009a.237.237,0,0,0,.037.019h.008l.161.079a6.475,6.475,0,0,0,2.954.824c2.18,0,3.777-1.531,4.269-4.045h0l.038-.037c.126-.122.25-.233.368-.329a.246.246,0,0,0,.037-.031l.029-.022c.123-.1.263-.2.442-.319l.1-.067c.156-.1.307-.193.458-.278.181-.1.339-.183.488-.255a.225.225,0,0,0,.039-.021c.164-.077.3-.139.421-.193.038-.014.071-.031.1-.045a19.028,19.028,0,0,0,3.621.4c4.716,0,5.4-2.662,5.478-3.808a2.071,2.071,0,0,1,1.706-2.024c.068-.009.136-.022.2-.037,1.75-.449,7.554-2.157,8.613-5.337.025-.072.046-.144.065-.216,4.575-.156,5.143-3.218,5.206-4.174a12.845,12.845,0,0,0,0-1.919h.031a4.417,4.417,0,0,0,3.522-1.4,4.508,4.508,0,0,0,.886-3.754c-.079-.556-.129-1.021-.16-1.4a9.8,9.8,0,0,0,3.584.879,3.49,3.49,0,0,0,3.7-3.192,19.166,19.166,0,0,0,.158-3.117c.133,0,.265.006.4.006,4.441,0,5.432-2.722,5.65-3.893a7.8,7.8,0,0,0-.34-4.34,4.972,4.972,0,0,0,2.666-2.323l.028-.062a3.2,3.2,0,0,0,.215-.7,1.712,1.712,0,0,0,.035-.185,3.292,3.292,0,0,0,.015-.727,2.045,2.045,0,0,0-.02-.25,4.047,4.047,0,0,0-.267-.947,14.464,14.464,0,0,0-.811-1.651,4.506,4.506,0,0,0,1.532-1.144l.044-.051h0a3.883,3.883,0,0,0,.646-3.615l-.122-.432-.219-.759-.062-.215c-.012-.043-.026-.086-.035-.13a3.384,3.384,0,0,0,1.294-1.725c.46-1.461-.142-3.036-1.787-4.682-.243-.241-.489-.477-.782-.738-.046-.045-.1-.094-.162-.147l-.063-.054c-.19-.162-.358-.306-.525-.44-.1-.082-.174-.142-.247-.2-.179-.139-.355-.267-.526-.386l-.032-.022-.053-.04.009-.009c.142-.137.263-.258.377-.386l.091-.1c.128-.147.24-.287.344-.426l.023-.038.035-.051c.1-.147.195-.306.278-.453.022-.045.042-.082.059-.114a3.773,3.773,0,0,0,.239-.6,1.226,1.226,0,0,0,.046-.162,3.341,3.341,0,0,0,.113-.7v-.151a3.37,3.37,0,0,0-.066-.661.478.478,0,0,0-.02-.094.559.559,0,0,0-.017-.068,3.274,3.274,0,0,0-.306-.755c-.017-.032-.04-.073-.065-.119a3.932,3.932,0,0,0-.491-.65,1.188,1.188,0,0,0-.1-.1,4.727,4.727,0,0,0-.624-.531c-.6-.429-1.2-.84-1.8-1.225l-.046-.028-.187-.122q.1-.1.2-.215l.029-.034c.116-.125.238-.255.357-.386l.081-.091c.23-.256.466-.526.7-.811a.1.1,0,0,0,.022-.026l.017-.02c.162-.2.325-.4.486-.606l.054-.071.046-.057.123-.154.03-.043c.1-.14.213-.286.321-.431l.049-.068.333-.47.059-.088a26.033,26.033,0,0,0,1.372-2.218l.026-.043.035-.067c.21-.384.415-.789.612-1.2l.04-.088a22.2,22.2,0,0,0,2.021-7.16,16.99,16.99,0,0,0-.031-3.721c0-.027,0-.053-.009-.08-.039-.292-.082-.584-.133-.871a.509.509,0,0,0-.015-.07,16.476,16.476,0,0,0-2.426-6.014l-.053-.082c-.148-.228-.313-.464-.483-.7l-.024-.032-.077-.108c-.159-.216-.33-.437-.511-.659l-.067-.085-.056-.072c-.185-.22-.367-.437-.557-.649-.023-.029-.061-.071-.1-.113l-.035-.038c-.193-.214-.391-.426-.6-.638l-.062-.062-.037-.035a26.738,26.738,0,0,0-3.042-2.614l-.059-.045-.21-.155c-.2-.15-.424-.307-.646-.452l-.032-.025c-.117-.08-.231-.159-.349-.236-.2-.134-.417-.271-.633-.408l-.057-.038c-.126-.081-.256-.159-.386-.241-.216-.131-.431-.26-.648-.388-.162-.1-.329-.191-.5-.289-.2-.117-.423-.239-.646-.36l-.428-.225-.121-.063-.089-.046c-.187-.1-.375-.2-.567-.293-.153-.077-.307-.153-.468-.228l-.158-.077-.2-.1c-.144-.07-.287-.139-.436-.2-.245-.114-.5-.226-.748-.337l-.083-.037c-.281-.125-.562-.249-.85-.368-.323-.137-.652-.276-.988-.408-.148-.06-.307-.121-.458-.177l-.139-.054c-.279-.1-.564-.221-.857-.326-.17-.062-.348-.128-.528-.19l-.11-.042c-.29-.1-.579-.2-.874-.306l-.673-.224c-.295-.1-.6-.2-.9-.29l-.692-.213c-.315-.1-.631-.188-.954-.282-.228-.065-.459-.134-.69-.2-.344-.1-.689-.188-1.031-.281l-.241-.063c-.145-.038-.289-.079-.437-.114-.2-.054-.417-.1-.628-.159l-.219-.054-.14-.034-.127-.032-.062-.016-.25-.062-.333-.079c-.6-.142-1.206-.281-1.822-.414-.056-.013-.115-.023-.171-.031l-.1-.011c-.032,0-.065-.008-.1-.009l-.053-.008-.131-.013-.069-.006-.1-.012-.144-.014-.1-.008-.165-.017h-.051l-.088-.008-.22-.023-.085-.006h-.051l-.154-.014-.091-.008-.161-.014-.18-.016-.083-.006-.19-.016-.3-.023-.1-.008-.074-.006-.148-.011-.2-.014h-.044l-.145-.013-.137-.009-.212-.016-.242-.016-.372-.024-.245-.014-.21-.014-.179-.013-.244-.011c-.459-.027-.93-.053-1.422-.075l-.119-.006h-.1l-.408-.019-.14-.008h-.266l-.532-.021-.2-.006h-.128l-.225-.008-.278-.009h-.369l-.262-.006-.225-.006-.408-.008-.252-.006h-2.58Z" transform="translate(-5907.199 1226.37)"/><g transform="translate(6.016 38.857)"><path class="e" d="M5964.049-1056.744a292.235,292.235,0,0,1-35.05-2.575,1.157,1.157,0,0,1-.986-1.305,1.157,1.157,0,0,1,1.3-.986c.406.056,40.687,5.572,55.39.157,15.356-6.5,51.027-30.119,51.386-30.357a1.156,1.156,0,0,1,1.6.325,1.156,1.156,0,0,1-.324,1.6c-1.473.977-36.25,24-51.789,30.57l-.049.02C5980.371-1057.383,5972.4-1056.744,5964.049-1056.744Z" transform="translate(-5928.002 1092.003)"/></g><g transform="translate(64.344 68.545)"><path class="e" d="M6136.323-948.955a.723.723,0,0,1-.718-.642c-.719-6.421-3.552-9.675-3.58-9.707a.723.723,0,0,1-.148-.7.723.723,0,0,1,.528-.484c.15-.035,3.719-.9,3.719-3.934,0-3.356-4.073-8.3-4.114-8.353a.723.723,0,0,1-.1-.765c1.049-2.272,1.261-4.024.616-5.067a2.86,2.86,0,0,0-2.125-1.148.723.723,0,0,1-.625-.4.724.724,0,0,1,.053-.739c2.587-3.705,2.7-5.6,2.543-6.392a1.2,1.2,0,0,0-.43-.79l.358-.627.335-.641a2.477,2.477,0,0,1,1.124,1.634c.4,1.652-.314,3.915-2.133,6.735a3.856,3.856,0,0,1,2.129,1.6c.88,1.421.762,3.446-.349,6.023.988,1.261,4.164,5.577,4.164,8.923,0,2.749-2.13,4.326-3.821,5.015a21.534,21.534,0,0,1,3.292,9.65.723.723,0,0,1-.638.8A.711.711,0,0,1,6136.323-948.955Z" transform="translate(-6129.699 989.342)"/></g><g transform="translate(29.524 79.122)"><ellipse class="e" cx="3.792" cy="1.611" rx="3.792" ry="1.611" transform="translate(0 7.58) rotate(-88.111)"/></g><g transform="translate(44.149 79.437)"><ellipse class="e" cx="3.792" cy="1.611" rx="3.792" ry="1.611" transform="translate(0 7.58) rotate(-88.111)"/></g><g transform="translate(31.302 91.31)"><path class="e" d="M6018.219-907.681h-.057a2.724,2.724,0,0,1-2.72-1.649l1.386-.411-.007-.024c.023.061.262.6,1.379.639a1.853,1.853,0,0,0,1.7-1.073.724.724,0,0,1,.96-.352.723.723,0,0,1,.352.96A3.3,3.3,0,0,1,6018.219-907.681Z" transform="translate(-6015.442 910.619)"/></g><g transform="translate(35.692 91.309)"><path class="e" d="M6033.753-907.529l-.157,0a3.3,3.3,0,0,1-2.927-2.109.724.724,0,0,1,.416-.934.723.723,0,0,1,.935.416,1.847,1.847,0,0,0,1.635,1.183c1.108.035,1.379-.484,1.405-.544l.67.273.679.25A2.664,2.664,0,0,1,6033.753-907.529Z" transform="translate(-6030.621 910.623)"/></g><g transform="translate(85.304 74.251)"><ellipse class="h" cx="3.225" cy="4.508" rx="3.225" ry="4.508" transform="translate(0 1.344) rotate(-12.029)"/></g></g><g transform="translate(140.183 30.74)"><path class="d" d="M6226.481-1071.983s43.494-45.685,63.894-45.587,28.027,20.235,28.027,20.235-22.35.042-21,16.023c0,0-12.974-.437-14.221,9.456,0,0-11.387-2.905-13.673,4.809,0,0-9.13-4.244-13.82,4.133,0,0-9.2-5.219-17.473-.309C6238.214-1063.222,6232.861-1072.931,6226.481-1071.983Z" transform="translate(-6225.759 1118.293)"/><path class="e" d="M6253.91-1063.967a.717.717,0,0,1-.356-.094c-.088-.049-8.943-4.948-16.749-.316a.722.722,0,0,1-.558.076.722.722,0,0,1-.443-.348c-.052-.093-5.188-9.255-10.993-8.4a.722.722,0,0,1-.749-.382.723.723,0,0,1,.118-.831c.109-.115,11.054-11.58,24.353-22.883,17.9-15.214,31.358-22.929,40-22.929h.07a29.384,29.384,0,0,1,22.2,10.4,37.052,37.052,0,0,1,6.5,10.3.723.723,0,0,1-.081.666.722.722,0,0,1-.593.313c-.119,0-11.865.1-17.433,6.174a11.438,11.438,0,0,0-2.851,9.066.726.726,0,0,1-.2.558.705.705,0,0,1-.548.225c-.5-.017-12.33-.294-13.48,8.824a.724.724,0,0,1-.31.507.727.727,0,0,1-.585.1c-.108-.028-10.739-2.64-12.8,4.314a.723.723,0,0,1-.4.453.722.722,0,0,1-.6,0c-.347-.16-8.583-3.851-12.884,3.831a.722.722,0,0,1-.437.343A.717.717,0,0,1,6253.91-1063.967Zm-9.556-3.877a22.083,22.083,0,0,1,9.282,2.2c4.216-6.718,11.352-4.926,13.657-4.122,2.21-5.514,9.339-5.6,13.519-4.742,1.6-8.222,11.2-9.187,14.044-9.292a12.641,12.641,0,0,1,3.277-9.395c5.026-5.478,14.249-6.436,17.411-6.6a37.6,37.6,0,0,0-5.856-8.951c-5.767-6.511-12.863-9.833-21.092-9.873h-.064c-18.01,0-54.98,36.849-62.1,44.126,5.041.608,9.06,6.537,10.273,8.52A16.082,16.082,0,0,1,6244.354-1067.844Z" transform="translate(-6223.982 1120.07)"/><g transform="translate(5.12 0.951)"><path class="e" d="M6242.411-1069.8a.721.721,0,0,1-.5-.2.723.723,0,0,1-.027-1.022c.108-.115,11.023-11.594,24.342-22.9,17.977-15.258,31.566-22.95,40.359-22.866a.723.723,0,0,1,.716.73.723.723,0,0,1-.723.716h-.139c-20.3,0-63.075,44.86-63.506,45.315A.721.721,0,0,1,6242.411-1069.8Z" transform="translate(-6241.688 1116.782)"/></g><g transform="translate(44.735 12.132)"><path class="e" d="M6405.583-1052.544a.722.722,0,0,1-.687-.5h0c-.042-.13-4.5-13.085-25.819-23.7a.723.723,0,0,1-.325-.969.723.723,0,0,1,.97-.325c21.917,10.916,26.369,24,26.549,24.551a.723.723,0,0,1-.465.911A.722.722,0,0,1,6405.583-1052.544Z" transform="translate(-6378.677 1078.116)"/></g><g transform="translate(32.441 22.522)"><path class="e" d="M6361.142-1017.551a.724.724,0,0,1-.691-.51h0c-.047-.152-4.94-15.318-23.831-22.733a.724.724,0,0,1-.408-.937.723.723,0,0,1,.937-.409,44.876,44.876,0,0,1,19.744,14.7,32.408,32.408,0,0,1,4.94,8.952.722.722,0,0,1-.478.9A.715.715,0,0,1,6361.142-1017.551Z" transform="translate(-6336.163 1042.19)"/></g><g transform="translate(21.747 30.521)"><path class="e" d="M6321.183-993.079a.724.724,0,0,1-.666-.442c-.067-.16-6.933-16.048-20.791-19.584a.725.725,0,0,1-.522-.879.724.724,0,0,1,.88-.522c14.562,3.715,21.478,19.741,21.765,20.422a.722.722,0,0,1-.384.947A.72.72,0,0,1,6321.183-993.079Z" transform="translate(-6299.182 1014.528)"/></g><g transform="translate(11.927 39.823)"><path class="e" d="M6283.227-966.081a.721.721,0,0,1-.533-.234c-.107-.117-10.8-11.732-17.052-14.668a.723.723,0,0,1-.348-.961.723.723,0,0,1,.962-.347c6.514,3.057,17.059,14.513,17.5,15a.724.724,0,0,1-.044,1.021A.722.722,0,0,1,6283.227-966.081Z" transform="translate(-6265.225 982.361)"/></g></g><g transform="translate(137.321 61.333)"><path class="e" d="M6215.53-995.485a1.441,1.441,0,0,1-.975-.379,1.446,1.446,0,0,1-.092-2.043l14.532-15.9a1.447,1.447,0,0,1,2.043-.092,1.446,1.446,0,0,1,.092,2.042l-14.533,15.9A1.441,1.441,0,0,1,6215.53-995.485Z" transform="translate(-6214.084 1014.281)"/></g><g transform="translate(147.959 59.311)"><path class="e" d="M6258.161-1012.728a1.437,1.437,0,0,1-.214-.016l-5.065-.752a1.445,1.445,0,0,1-1.215-1.2l-.778-4.9a1.446,1.446,0,0,1,1.2-1.654,1.444,1.444,0,0,1,1.655,1.2l.611,3.852,4.015.6a1.446,1.446,0,0,1,1.218,1.643A1.446,1.446,0,0,1,6258.161-1012.728Z" transform="translate(-6250.871 1021.272)"/></g><g transform="translate(51.582 28.755)"><path class="d" d="M5920.1-1111.1s3.4-5.566,27.521-6.494,44.219,12.06,48.549,25.047l6.185-3.4s-3.711-29.686-53.806-28.449C5948.548-1124.4,5922.264-1122.544,5920.1-1111.1Z" transform="translate(-5919.376 1125.16)"/><path class="e" d="M5994.392-1093.6a.728.728,0,0,1-.264-.05.725.725,0,0,1-.422-.445c-2.127-6.381-8.146-12.7-16.517-17.338a60.626,60.626,0,0,0-31.317-7.215c-23.134.89-26.905,6.109-26.94,6.162a.715.715,0,0,1-.872.291.728.728,0,0,1-.447-.816c2.242-11.852,28.012-13.806,29.108-13.883h.033c11.516-.285,21.541,1.049,29.8,3.964a42.815,42.815,0,0,1,16.421,10.011c7.279,7.357,8.282,14.794,8.321,15.107a.723.723,0,0,1-.369.723l-6.185,3.4A.724.724,0,0,1,5994.392-1093.6Zm-46.079-26.541c23.18,0,41.753,12.447,46.474,24.776l4.989-2.744a28.509,28.509,0,0,0-7.9-13.868c-6.463-6.494-19.539-14.1-45.067-13.475-.7.053-22.048,1.757-26.919,10.4,3.065-1.817,10.152-4.431,25.928-5.038C5946.653-1120.128,5947.487-1120.143,5948.313-1120.143Z" transform="translate(-5917.6 1126.936)"/></g><g transform="translate(110.335 15.353)"><path class="d" d="M6123.269-1148.983s10.514-23.81,16.389-21.646,12.987,22.573,2.783,35.252A78.433,78.433,0,0,0,6123.269-1148.983Z" transform="translate(-6122.545 1171.494)"/><path class="e" d="M6140.663-1136.439a.723.723,0,0,1-.513-.214,78.35,78.35,0,0,0-18.972-13.464.723.723,0,0,1-.348-.943,128.146,128.146,0,0,1,6.03-11.711c4.732-8,8.417-11.373,11.271-10.322,2.773,1.022,5.589,5.378,7.172,11.1,2.608,9.422,1.084,18.874-4.077,25.286a.724.724,0,0,1-.526.269Zm-18.228-14.672a80.447,80.447,0,0,1,18.15,12.868c6.615-8.874,4.232-20.082,3.323-23.366-1.417-5.123-4-9.287-6.279-10.127C6133.9-1173.109,6126.468-1160.072,6122.435-1151.111Z" transform="translate(-6120.768 1173.279)"/></g><g transform="translate(110.61 24.621)"><path class="v" d="M6124.218-1126.063s11.957,6.871,14.981,9.9c0,0,3.573-18.279-2.337-22.539C6136.862-1138.707,6132.053-1139.532,6124.218-1126.063Z" transform="translate(-6123.495 1139.443)"/><path class="e" d="M6137.422-1117.231a.722.722,0,0,1-.511-.212c-2.922-2.922-14.711-9.712-14.83-9.78a.724.724,0,0,1-.337-.44.722.722,0,0,1,.073-.55c7.859-13.513,12.848-13.085,13.391-12.993a.718.718,0,0,1,.3.126c6.215,4.479,2.774,22.5,2.624,23.264a.722.722,0,0,1-.5.552A.713.713,0,0,1,6137.422-1117.231Zm-13.989-10.879c2.285,1.331,10.019,5.9,13.5,8.758.924-5.61,1.893-17.209-2.107-20.426C6134.049-1139.728,6129.867-1138.934,6123.433-1128.11Z" transform="translate(-6121.719 1141.229)"/></g><g transform="translate(48.782 7.451)"><path class="d" d="M5936.913-1175.155s-5.894-21.982-22.387-22.944c-6.25-.365-4.672,23.089.137,30.534A78.439,78.439,0,0,1,5936.913-1175.155Z" transform="translate(-5909.698 1198.826)"/><path class="e" d="M5912.882-1168.619a.723.723,0,0,1-.608-.331c-1.935-2.995-3.508-8.776-4.109-15.089-.617-6.5-.071-11.956,1.461-14.585a3.359,3.359,0,0,1,3.161-1.974c6.986.407,13.192,4.615,17.947,12.169a45.8,45.8,0,0,1,5.1,11.309.723.723,0,0,1-.092.58.722.722,0,0,1-.492.321,78.369,78.369,0,0,0-22.019,7.51A.72.72,0,0,1,5912.882-1168.619Zm-.306-30.54c-.339,0-1.029.113-1.7,1.264-2.815,4.829-1.4,21.088,2.272,27.6a80.582,80.582,0,0,1,21.054-7.21c-1.226-3.836-7.44-20.826-21.5-21.646C5912.669-1199.156,5912.626-1199.159,5912.576-1199.159Z" transform="translate(-5907.916 1200.603)"/></g><g transform="translate(53.002 17.104)"><path class="v" d="M5946.524-1151.7s-15.393,2.611-21.027,7.559c0,0-1.787-16.767,2.062-20.478C5927.559-1164.621,5934.293-1166.82,5946.524-1151.7Z" transform="translate(-5924.338 1165.454)"/><path class="e" d="M5923.668-1145.193a.715.715,0,0,1-.263-.05.721.721,0,0,1-.456-.6c-.187-1.752-1.709-17.23,2.278-21.075a.713.713,0,0,1,.277-.167c.294-.1,7.35-2.177,19.752,13.151a.721.721,0,0,1,.114.71.723.723,0,0,1-.555.458c-.152.025-15.257,2.634-20.672,7.389A.723.723,0,0,1,5923.668-1145.193Zm2.428-20.54c-2.554,2.825-2.267,13.237-1.832,18.433,5.3-3.748,15.555-5.979,19.095-6.663C5933.157-1166.192,5927.11-1165.891,5926.1-1165.733Z" transform="translate(-5922.509 1167.226)"/></g></g><path class="w" d="M14.957,11.334l-1.579.337a2.321,2.321,0,0,0-1.238,1.121l-.819,2.326a2.215,2.215,0,0,1-.64.784,3.929,3.929,0,0,1-4.67.011,2.186,2.186,0,0,1-.659-.818L4.63,12.9a2.322,2.322,0,0,0-1.2-1.134L1.68,11.334a2.3,2.3,0,0,1-1.053-.864A3.934,3.934,0,0,1,.762,6.013a2.191,2.191,0,0,1,.823-.661l2.174-.708A2.319,2.319,0,0,0,4.9,3.447l.447-1.771A2.3,2.3,0,0,1,6.2.629a3.932,3.932,0,0,1,4.445.122,2.143,2.143,0,0,1,.678.861l.612,2.035A2.321,2.321,0,0,0,13.108,4.8l1.94.548a2.17,2.17,0,0,1,.887.692,3.931,3.931,0,0,1,.128,4.408A2.273,2.273,0,0,1,14.957,11.334Z" transform="matrix(0.978, -0.208, 0.208, 0.978, 187.916, 113.838)"/><ellipse class="x" cx="4.686" cy="4.686" rx="4.686" ry="4.686" transform="translate(223.664 109.629)"/><ellipse class="y" cx="4.686" cy="4.686" rx="4.686" ry="4.686" transform="translate(161.057 5.62)"/><ellipse class="y" cx="3.124" cy="3.124" rx="3.124" ry="3.124" transform="translate(214.84 137.784) rotate(-42)"/><ellipse class="z" cx="1.562" cy="1.562" rx="1.562" ry="1.562" transform="translate(170.428 133.604)"/><ellipse class="z" cx="1.562" cy="1.562" rx="1.562" ry="1.562" transform="translate(177.428 30.604)"/></svg>